<?xml version="1.0" encoding="UTF-8"?>
<svg version="1.1" xmlns="http://www.w3.org/2000/svg" width="3000" height="3000">
<path d="M0 0 C2.15350927 0.00566852 4.30701056 0.00847187 6.46052551 0.0110817 C43.28611585 0.07579623 79.51803564 2.71690154 115.92402649 8.31805801 C116.61635376 8.42378128 117.30868103 8.52950455 118.02198792 8.63843155 C174.11264776 17.26634872 228.55695097 34.31721661 279.92402649 58.31805801 C280.75627747 58.70139297 281.58852844 59.08472794 282.44599915 59.47967911 C300.9912752 68.02371528 318.76392716 77.73924292 336.29902649 88.19305801 C337.33897766 88.81140518 338.37892883 89.42975235 339.45039368 90.06683731 C345.19296265 93.52706725 350.66599773 97.15489363 355.92402649 101.31805801 C348.97638478 120.13522953 341.58314904 138.76621995 334.11152649 157.38055801 C328.0012592 172.60446798 321.89570371 187.82731009 315.98652649 203.13055801 C309.91242436 218.85479289 303.70730929 234.52638167 297.48652649 250.19305801 C297.23706268 250.82133877 296.98759888 251.44961952 296.73057556 252.09693909 C294.50679819 257.69745977 292.28284112 263.29790912 290.05867004 268.89827347 C285.85298966 279.49064543 281.66601611 290.09032969 277.48652649 300.69305801 C272.66780732 312.91567929 267.8277596 325.1292262 262.92402649 337.31805801 C260.04256189 336.01756711 258.03755993 334.65865984 255.85762024 332.37665176 C255.29566956 331.79770157 254.73371887 331.21875137 254.15473938 330.62225723 C253.56297913 330.00624649 252.97121887 329.39023575 252.36152649 328.75555801 C246.52896714 322.81044182 240.47892895 317.4638794 233.92402649 312.31805801 C232.82931618 311.41323616 231.73699265 310.50552128 230.64668274 309.59540176 C194.54217573 279.68409483 151.03006685 258.55637101 105.92402649 246.31805801 C104.9709259 246.05686172 104.01782532 245.79566544 103.0358429 245.52655411 C19.20082314 222.95397852 -77.59393267 228.41655602 -156.07597351 266.31805801 C-157.13799988 266.82635147 -157.13799988 266.82635147 -158.22148132 267.34491348 C-199.46761094 287.17441127 -239.10098302 315.72401235 -267.07597351 352.31805801 C-268.06446115 353.56762348 -269.05413686 354.81624963 -270.04472351 356.06415176 C-282.66739843 372.10217222 -293.69625503 389.19100132 -303.07597351 407.31805801 C-303.54889832 408.23119766 -304.02182312 409.14433731 -304.50907898 410.08514786 C-351.17874301 501.28310832 -354.88919167 615.60692332 -324.07597351 712.31805801 C-323.80704285 713.16738907 -323.53811218 714.01672012 -323.2610321 714.89178848 C-309.36478105 758.14440108 -285.92898118 799.62687394 -255.10331726 833.10712051 C-253.31454011 835.05788712 -251.59754232 837.04786196 -249.88847351 839.06805801 C-241.99098244 848.10161509 -233.38449037 856.63300586 -223.93974304 864.03656387 C-221.091322 866.30583025 -218.32832551 868.65477781 -215.56034851 871.02118301 C-209.33725173 876.25743781 -202.74651331 880.85253183 -195.95097351 885.31805801 C-195.36304016 885.70680099 -194.77510681 886.09554398 -194.1693573 886.49606705 C-184.3981283 892.94801517 -174.51829387 899.00814033 -164.07597351 904.31805801 C-162.81865417 904.96798721 -162.81865417 904.96798721 -161.53593445 905.6310463 C-113.8436343 930.10130499 -61.43258003 939.79731082 -8.20097351 939.63055801 C-6.9918631 939.6287352 -5.78275269 939.62691238 -4.53700256 939.62503433 C14.12128533 939.57774591 32.44685973 939.0805494 50.92402649 936.31805801 C52.1080304 936.14113419 53.2920343 935.96421036 54.51191711 935.7819252 C87.31171777 930.69593576 119.04441867 921.93524157 148.92402649 907.31805801 C150.09191711 906.75248184 150.09191711 906.75248184 151.28340149 906.17547989 C168.27574352 897.86217348 184.53108418 887.62684343 198.92402649 875.31805801 C199.89726868 874.52657364 200.87051086 873.73508926 201.87324524 872.91962051 C214.46326204 862.62237283 225.98123967 851.20479847 235.92402649 838.31805801 C236.70906555 837.33837051 237.49410461 836.35868301 238.30293274 835.34930801 C261.0835327 806.73098286 276.01438816 773.778098 287.02949524 739.11273575 C287.97047963 736.17292998 288.94576701 733.24564244 289.92402649 730.31805801 C288.6268101 730.32213386 287.32959372 730.3262097 285.99306774 730.33040905 C271.60831301 730.36127513 257.231716 730.19886552 242.84907532 729.96673965 C240.41989356 729.92881221 237.99070953 729.89103076 235.56152344 729.85338211 C229.70267553 729.76216029 223.84385484 729.66933051 217.98504583 729.57564551 C213.20660966 729.4992639 208.42816342 729.42354362 203.6497097 729.34826851 C202.62025227 729.33204943 202.62025227 729.33204943 201.56999772 729.31550268 C200.17458808 729.29351953 198.77917843 729.27153726 197.38376876 729.24955588 C184.35672817 729.04425892 171.32972323 728.83676757 158.30272903 728.62855028 C146.47466265 728.43955868 134.64655739 728.253142 122.81843034 728.06798918 C110.58515307 727.87647356 98.35190355 727.68326742 86.11868113 727.48827833 C84.72510354 727.46607081 83.3315259 727.44386578 81.93794823 727.42166328 C81.25280709 727.41074756 80.56766596 727.39983183 79.86176297 727.38858532 C75.11502686 727.31306419 70.36827494 727.23859657 65.62151527 727.16457176 C37.38315604 726.72334337 9.15090959 726.25678718 -19.07597351 725.31805801 C-18.26172239 720.82252347 -16.73928085 716.89917865 -14.89237976 712.73993301 C-14.56549667 711.99305725 -14.23861359 711.24618149 -13.90182495 710.47667313 C-12.81871493 708.0050539 -11.72858936 705.53659433 -10.63847351 703.06805801 C-9.87336596 701.32550236 -9.10872566 699.58274149 -8.3445282 697.83978653 C-6.3320666 693.25287314 -4.31383889 688.66851991 -2.29429626 684.08472061 C-0.32634752 679.61574869 1.6367921 675.14466728 3.59980774 670.67352676 C3.97935608 669.80906937 4.35890442 668.94461197 4.74995422 668.05395889 C5.51154833 666.31934755 6.27312475 664.58472845 7.03468323 662.85010147 C8.17881483 660.24465387 9.32358355 657.63948694 10.46846008 655.03436661 C15.35650023 643.90896159 20.20979456 632.76930484 25.03364563 621.61590958 C29.37781052 611.57251918 33.73989834 601.53702513 38.11152649 591.50555801 C38.46472961 590.69491898 38.81793274 589.88427994 39.18183899 589.04907608 C43.34884081 579.48746422 47.52931395 569.93189372 51.72871399 560.38446426 C52.32722923 559.02329735 52.32722923 559.02329735 52.93783569 557.63463211 C54.85126194 553.28361422 56.7663436 548.93333927 58.68452454 544.58441544 C62.69045568 535.4880676 66.62194937 526.36659519 70.42123413 517.18164444 C72.81784927 511.42423523 72.81784927 511.42423523 73.92402649 510.31805801 C75.76932975 510.22049861 77.61842164 510.19434428 79.46630192 510.19501019 C80.67703123 510.19301914 81.88776055 510.19102809 83.13517863 510.18897671 C84.49603358 510.19183029 85.85688834 510.1947759 87.21774292 510.1978035 C88.6499119 510.19736792 90.08208079 510.19649327 91.51424927 510.19521433 C95.46834611 510.19296669 99.42241613 510.19699431 103.37650955 510.20199239 C107.6335188 510.20629286 111.89052642 510.20485076 116.14753723 510.20409012 C123.52927575 510.20356463 130.91100547 510.20671405 138.29274178 510.21232796 C148.96562047 510.22043955 159.63849488 510.22305783 170.31137633 510.22431595 C187.62554013 510.22650701 204.93969923 510.23316854 222.25386047 510.24261856 C239.07742794 510.25179129 255.90099414 510.2588728 272.7245636 510.26312637 C273.76078834 510.2633891 274.79701308 510.26365182 275.86463857 510.26392251 C281.06284066 510.2652275 286.26104275 510.26649122 291.45924485 510.26773441 C334.61417532 510.27810869 377.76910066 510.29572846 420.92402649 510.31805801 C421.1214787 509.71670847 421.31893091 509.11535892 421.52236652 508.49578667 C421.78594047 507.69807035 422.04951441 506.90035404 422.32107544 506.07846451 C422.58040265 505.29148996 422.83972986 504.50451542 423.10691547 503.69369316 C424.37383955 500.01028991 425.86366126 496.43079096 427.37324524 492.84149551 C427.7025856 492.05082687 428.03192596 491.26015823 428.37124634 490.44552994 C429.0792943 488.74646664 429.78873948 487.04798504 430.49946594 485.35004044 C432.4222077 480.75614393 434.33440125 476.1578542 436.24824524 471.56024551 C436.64059357 470.61852493 437.03294189 469.67680435 437.43717957 468.70654678 C441.30191961 459.42499266 445.11643877 450.12316802 448.92402649 440.81805801 C454.74213729 426.6072121 460.60710779 412.41637386 466.4967804 398.2350502 C471.6705912 385.77547666 476.81154082 373.30291449 481.92402649 360.81805801 C487.74313078 346.60761585 493.60710544 332.41637952 499.4967804 318.2350502 C504.6705912 305.77547666 509.81154082 293.30291449 514.92402649 280.81805801 C520.74313078 266.60761585 526.60710544 252.41637952 532.4967804 238.2350502 C537.6705912 225.77547666 542.81154082 213.30291449 547.92402649 200.81805801 C553.74313078 186.60761585 559.60710544 172.41637952 565.4967804 158.2350502 C570.6705912 145.77547666 575.81154082 133.30291449 580.92402649 120.81805801 C586.73804931 106.62002499 592.59538841 92.44053427 598.48167419 78.27231216 C602.50316134 68.59174779 606.51025226 58.90561564 610.48262024 49.20477676 C610.85275238 48.30103317 611.22288452 47.39728958 611.60423279 46.46615982 C613.38001116 42.12875237 615.1534785 37.79041555 616.92402649 33.45087051 C617.5581146 31.90007844 618.19222779 30.34929662 618.82637024 28.79852676 C619.1120134 28.09636536 619.39765656 27.39420395 619.69195557 26.67076492 C620.99836748 23.47921236 622.37977979 20.40655142 623.92402649 17.31805801 C700.15402649 17.31805801 776.38402649 17.31805801 854.92402649 17.31805801 C860.65448452 29.92506569 860.65448452 29.92506569 863.09590149 36.41180801 C863.37505905 37.14377396 863.65421661 37.8757399 863.9418335 38.62988663 C864.54170397 40.2029549 865.14017819 41.77655623 865.73735046 43.35065079 C867.38550128 47.69223649 869.04708585 52.02867071 870.70918274 56.36493301 C871.05560318 57.26890823 871.40202362 58.17288345 871.75894165 59.10425186 C875.47598997 68.78547146 879.2876738 78.42863008 883.11152649 88.06805801 C884.54670913 91.68773604 885.98160096 95.3075292 887.41621399 98.92743301 C887.78052017 99.84661514 888.14482635 100.76579727 888.52017212 101.7128334 C892.95265496 112.90395852 897.34487735 124.1108604 901.73652649 135.31805801 C902.36356979 136.9180011 902.36356979 136.9180011 903.00328064 138.55026627 C905.13072774 143.978736 907.25775073 149.40737174 909.38447571 154.83612442 C913.52046472 165.39346264 917.65965607 175.94954523 921.79902649 186.50555801 C922.20803192 187.54865128 922.61703735 188.59174454 923.03843689 189.66644669 C929.66000258 206.55305515 936.29034436 223.43620609 942.92402649 240.31805801 C952.44552835 264.54903279 961.9538608 288.78515014 971.45625305 313.02362442 C973.94251813 319.36541093 976.42929228 325.70699773 978.91621399 332.04852676 C979.32911682 333.10140884 979.74201965 334.15429092 980.16743469 335.23907852 C981.41962367 338.43207494 982.67182301 341.62506729 983.92402649 344.81805801 C993.10478752 368.22805918 993.10478752 368.22805918 997.62269592 379.7522316 C1006.71480495 402.94411949 1015.81364862 426.13333991 1024.92402649 449.31805801 C1034.44552835 473.54903279 1043.9538608 497.78515014 1053.45625305 522.02362442 C1055.94251813 528.36541093 1058.42929228 534.70699773 1060.91621399 541.04852676 C1061.32911682 542.10140884 1061.74201965 543.15429092 1062.16743469 544.23907852 C1063.41962367 547.43207494 1064.67182301 550.62506729 1065.92402649 553.81805801 C1075.10478752 577.22805918 1075.10478752 577.22805918 1079.62269592 588.7522316 C1088.71480495 611.94411949 1097.81364862 635.13333991 1106.92402649 658.31805801 C1116.44552835 682.54903279 1125.9538608 706.78515014 1135.45625305 731.02362442 C1137.94251813 737.36541093 1140.42929228 743.70699773 1142.91621399 750.04852676 C1143.32911682 751.10140884 1143.74201965 752.15429092 1144.16743469 753.23907852 C1145.41962367 756.43207494 1146.67182301 759.62506729 1147.92402649 762.81805801 C1157.10478752 786.22805918 1157.10478752 786.22805918 1161.62269592 797.7522316 C1170.71480495 820.94411949 1179.81364862 844.13333991 1188.92402649 867.31805801 C1198.44552835 891.54903279 1207.9538608 915.78515014 1217.45625305 940.02362442 C1219.94251813 946.36541093 1222.42929228 952.70699773 1224.91621399 959.04852676 C1225.32911682 960.10140884 1225.74201965 961.15429092 1226.16743469 962.23907852 C1227.41962367 965.43207494 1228.67182301 968.62506729 1229.92402649 971.81805801 C1234.90116044 984.50924029 1239.87806431 997.20051249 1244.85371399 1009.89227676 C1253.13335532 1031.01123428 1261.41641392 1052.12885142 1269.70796204 1073.24313736 C1271.09766721 1076.782758 1272.48645848 1080.32273629 1273.87519836 1083.86273575 C1278.25096569 1095.01094712 1282.64685177 1106.15043648 1287.09199524 1117.27118301 C1287.89719132 1119.29002267 1288.7022884 1121.30890182 1289.50727844 1123.32782364 C1290.99703193 1127.06395236 1292.49544888 1130.79643948 1293.99897766 1134.52704239 C1294.65923534 1136.18120137 1295.31916804 1137.83549012 1295.97871399 1139.48993301 C1296.2806517 1140.23188919 1296.58258942 1140.97384537 1296.89367676 1141.73828506 C1298.26584582 1145.2018301 1298.92402649 1147.53430498 1298.92402649 1151.31805801 C1210.15402649 1151.31805801 1121.38402649 1151.31805801 1029.92402649 1151.31805801 C1022.33402649 1130.19805801 1014.74402649 1109.07805801 1006.92402649 1087.31805801 C1000.62470134 1069.89104328 1000.62470134 1069.89104328 994.31855774 1052.46649551 C990.99488856 1043.28728709 987.6824474 1034.10405139 984.37324524 1024.91962051 C983.88636945 1023.56853878 983.39948691 1022.21745948 982.91259766 1020.8663826 C978.97850783 1009.94916254 978.97850783 1009.94916254 977.18180847 1004.95737076 C975.85964858 1001.28436164 974.53660005 997.61167421 973.21308899 993.93915176 C972.78655533 992.75491119 972.36002167 991.57067062 971.92056274 990.35054398 C969.57503862 983.85055225 967.20750097 977.35946743 964.81367493 970.87714005 C964.55713575 970.1815363 964.30059658 969.48593256 964.03628349 968.76924992 C962.79313969 965.39883963 961.54682001 962.02967399 960.29454041 958.66264725 C959.85306671 957.46748993 959.41159302 956.27233261 958.95674133 955.0409584 C958.56352692 953.98195831 958.1703125 952.92295822 957.7651825 951.83186722 C956.92402649 949.31805801 956.92402649 949.31805801 956.92402649 947.31805801 C810.73402649 947.31805801 664.54402649 947.31805801 513.92402649 947.31805801 C512.93402649 950.94805801 511.94402649 954.57805801 510.92402649 958.31805801 C509.89713708 961.29694922 508.84758182 964.2388396 507.72871399 967.18133926 C507.42453049 967.99379608 507.12034698 968.8062529 506.8069458 969.64332962 C506.15154385 971.39225431 505.49394818 973.14035824 504.83433533 974.88769913 C503.76818585 977.71226457 502.70801019 980.53901055 501.64936829 983.36639786 C500.53174588 986.35129969 499.41383969 989.33609052 498.29425049 992.32025528 C494.40734003 1002.68186728 490.56868362 1013.06109716 486.73652649 1023.44305801 C486.03587178 1025.33995996 485.33518783 1027.2368511 484.63447571 1029.13373184 C479.33720994 1043.47691324 474.05178442 1057.82445624 468.76701355 1072.17224503 C467.43360208 1075.79206311 466.09988915 1079.41176996 464.7660675 1083.03143692 C463.88642579 1085.41864283 463.00678711 1087.80584986 462.12715149 1090.19305801 C461.47830238 1091.95388214 461.47830238 1091.95388214 460.81634521 1093.75027847 C458.23727329 1100.75031055 455.66126338 1107.75146025 453.08760071 1114.75348282 C451.49361446 1119.08868038 449.89743833 1123.42306936 448.30073547 1127.757267 C447.55380555 1129.78635919 446.80786305 1131.81581516 446.0629425 1133.8456459 C445.04518695 1136.61863088 444.02409119 1139.39036286 443.00215149 1142.16180801 C442.70218262 1142.98173233 442.40221375 1143.80165665 442.09315491 1144.64642715 C440.03805263 1150.20403188 440.03805263 1150.20403188 438.92402649 1151.31805801 C437.47615793 1151.41255981 436.02367923 1151.43733919 434.57273293 1151.43437672 C433.62742576 1151.43491757 432.6821186 1151.43545842 431.70816576 1151.43601567 C430.65716012 1151.43153681 429.60615447 1151.42705796 428.52330017 1151.42244339 C427.41599655 1151.42173684 426.30869292 1151.42103029 425.16783464 1151.42030233 C421.42459809 1151.41690434 417.68141063 1151.40653682 413.93818665 1151.39642715 C411.26579695 1151.39291337 408.59341104 1151.38983982 405.92102051 1151.3874855 C401.63889089 1151.38337121 397.35676459 1151.37869208 393.07463861 1151.37168992 C382.41230292 1151.35432058 371.75003879 1151.35193865 361.08769226 1151.35869217 C360.31552182 1151.35915071 359.54335138 1151.35960925 358.74778183 1151.36008168 C354.79653695 1151.36243224 350.8452922 1151.36495068 346.8940475 1151.36759079 C338.73737413 1151.37303321 330.5807011 1151.37810009 322.42402649 1151.38129044 C321.60537256 1151.38161707 320.78671864 1151.3819437 319.94325702 1151.38228022 C306.76548983 1151.38676192 293.5878707 1151.36613959 280.41014083 1151.33677656 C266.83954364 1151.30721864 253.26918237 1151.30873001 239.69858205 1151.33698744 C232.0966132 1151.35189857 224.49519926 1151.35291729 216.89328384 1151.3175869 C173.25226058 1150.99576919 173.25226058 1150.99576919 130.58956528 1159.32103157 C83.1067822 1172.23634718 29.81051199 1174.28825223 -19.07597351 1173.31805801 C-20.09787781 1173.30017227 -21.1197821 1173.28228653 -22.1726532 1173.2638588 C-108.56938872 1171.57728815 -193.09989263 1152.89144211 -353.07597351 1068.31805801 C-353.728078 1067.8676918 -354.3801825 1067.41732559 -355.05204773 1066.95331192 C-368.84620117 1057.37863307 -382.22507143 1047.12240324 -395.07597351 1036.31805801 C-395.59691589 1035.88203262 -396.11785828 1035.44600723 -396.65458679 1034.99676895 C-411.33067329 1022.68613737 -425.02056947 1009.46487561 -438.57597351 995.94305801 C-439.19047363 995.33123672 -439.80497375 994.71941544 -440.43809509 994.08905411 C-446.8709898 987.67742552 -453.22525951 981.27371166 -459.07597351 974.31805801 C-460.10713657 973.12935166 -461.1396784 971.94183987 -462.17362976 970.75555801 C-463.16288204 969.61056291 -464.15116018 968.46472547 -465.13847351 967.31805801 C-465.6565155 966.71646866 -466.1745575 966.1148793 -466.70829773 965.49505997 C-469.48995087 962.2427935 -472.16862099 958.95876599 -474.70097351 955.50555801 C-476.70608071 952.3154944 -476.70608071 952.3154944 -479.07597351 951.31805801 C-479.28480164 951.84399551 -479.49362976 952.36993301 -479.70878601 952.91180801 C-481.64530312 956.32007813 -484.26689521 958.99435193 -486.95097351 961.81805801 C-487.58229187 962.48587296 -488.21361023 963.1536879 -488.86405945 963.84173965 C-495.31378516 970.60773006 -501.88257762 977.2587682 -508.47154236 983.8888588 C-509.69356 985.11896074 -510.91409746 986.35053517 -512.13304138 987.58368301 C-518.72260454 994.24177202 -525.33196564 1000.61110045 -532.70146179 1006.41107559 C-535.13745034 1008.36743037 -537.42049104 1010.4335553 -539.70097351 1012.56805801 C-546.09661044 1018.38687326 -553.01614481 1023.5076991 -559.9250946 1028.6935463 C-561.90145384 1030.18624713 -563.86052261 1031.69827773 -565.81425476 1033.22040176 C-593.39015854 1054.55706474 -623.98818994 1071.71289558 -655.07597351 1087.31805801 C-656.04857117 1087.80902969 -657.02116882 1088.30000137 -658.02323914 1088.80585098 C-731.17330023 1125.5202874 -813.81719841 1144.68843123 -972.55790555 1150.55018926 C-979.02009431 1150.54139485 -985.4822802 1150.54448597 -991.94447327 1150.5459938 C-1003.08950801 1150.54737429 -1014.23452047 1150.54093277 -1025.37954903 1150.52951813 C-1037.04310788 1150.51760357 -1048.7066572 1150.50997019 -1060.37022209 1150.5078125 C-1061.10078121 1150.50767502 -1061.83134033 1150.50753754 -1062.58403761 1150.5073959 C-1066.29555406 1150.50671905 -1070.00707051 1150.50611635 -1073.71858697 1150.50554214 C-1099.87312263 1150.50136323 -1126.02764595 1150.48795044 -1152.18217468 1150.46893692 C-1177.55977819 1150.45050976 -1202.9373783 1150.43637128 -1228.31498718 1150.4279213 C-1229.09995019 1150.42765824 -1229.88491319 1150.42739519 -1230.69366295 1150.42712417 C-1238.57799708 1150.42448668 -1246.46233123 1150.42193512 -1254.3466654 1150.41944645 C-1270.40189699 1150.4143767 -1286.45712835 1150.4087342 -1302.51235962 1150.40274429 C-1303.25023437 1150.40246971 -1303.98810912 1150.40219513 -1304.74834372 1150.40191223 C-1353.85755888 1150.38357204 -1402.9667668 1150.35184695 -1452.07597351 1150.31805801 C-1452.52166687 1151.48606949 -1452.52166687 1151.48606949 -1452.97636414 1152.67767715 C-1456.38169345 1160.85455029 -1464.12488435 1166.88063963 -1472.07597351 1170.31805801 C-1484.72335471 1174.37056396 -1497.08803386 1174.38233834 -1509.07597351 1168.31805801 C-1518.1743667 1162.54151219 -1525.61232473 1154.32237773 -1528.57597351 1143.78290176 C-1530.99370101 1131.86426073 -1530.39612273 1120.70007848 -1524.32597351 1109.94305801 C-1517.80243784 1100.11002133 -1509.42358718 1094.30035483 -1498.01347351 1090.94305801 C-1485.6848962 1088.98614098 -1474.93618957 1090.87184645 -1464.36894226 1097.64227676 C-1459.29729068 1101.348816 -1454.84977451 1105.60729124 -1452.07597351 1111.31805801 C-1452.07597351 1111.97805801 -1452.07597351 1112.63805801 -1452.07597351 1113.31805801 C-1434.58597351 1113.31805801 -1417.09597351 1113.31805801 -1399.07597351 1113.31805801 C-1399.07597351 1088.23805801 -1399.07597351 1063.15805801 -1399.07597351 1037.31805801 C-1362.24347835 1036.91502767 -1362.24347835 1036.91502767 -1346.80839539 1036.82977676 C-1336.15059799 1036.77043904 -1325.49359115 1036.70068676 -1314.83647156 1036.56366348 C-1307.07479845 1036.4639159 -1299.31376659 1036.39945898 -1291.55147034 1036.37717307 C-1287.44186607 1036.36414695 -1283.33409605 1036.3335949 -1279.22508049 1036.26075745 C-1275.35442017 1036.1927032 -1271.48634269 1036.17197331 -1267.61514091 1036.1869812 C-1266.19727517 1036.18423744 -1264.77932018 1036.16443825 -1263.36197281 1036.12600327 C-1252.62935299 1035.84931893 -1252.62935299 1035.84931893 -1248.78479195 1039.48439789 C-1246.94281006 1042.14682388 -1246.94281006 1042.14682388 -1245.51669407 1044.79205132 C-1241.74230104 1051.40967193 -1234.35932559 1055.37383154 -1227.29081726 1057.65399551 C-1214.60649647 1060.27408608 -1203.60186277 1058.63684032 -1192.55253601 1051.74383926 C-1183.48932545 1045.2851726 -1178.51979085 1036.5117214 -1176.60722351 1025.65790176 C-1175.11670107 1013.61515795 -1178.38679316 1002.98422854 -1185.63847351 993.21258926 C-1193.36396097 984.79997912 -1204.03932595 980.46134477 -1215.26347351 979.94305801 C-1227.25131325 980.22571166 -1236.63696196 984.68476594 -1244.88847351 993.18524551 C-1247.55676176 996.17424149 -1249.25501297 998.67613693 -1251.07597351 1002.31805801 C-1299.91597351 1002.31805801 -1348.75597351 1002.31805801 -1399.07597351 1002.31805801 C-1399.07597351 977.23805801 -1399.07597351 952.15805801 -1399.07597351 926.31805801 C-1420.55011497 926.26440386 -1420.55011497 926.26440386 -1442.02377129 926.28886604 C-1449.70364582 926.31102548 -1457.38293665 926.32130967 -1465.06278992 926.2872963 C-1471.79347182 926.2575287 -1478.52289843 926.26945054 -1485.25359726 926.30685806 C-1487.82201792 926.31430767 -1490.39051838 926.30775934 -1492.95886612 926.28702164 C-1496.5559189 926.26036323 -1500.14947225 926.28336313 -1503.74638367 926.31805801 C-1504.80949768 926.29864655 -1505.87261169 926.27923508 -1506.96794128 926.25923538 C-1512.48056946 926.30465112 -1512.48056946 926.30465112 -1517.02842331 929.08166885 C-1518.54344725 931.09713668 -1519.81018079 933.14097493 -1521.07597351 935.31805801 C-1528.24764317 942.97785179 -1536.4331517 947.91646026 -1547.01737976 948.55633926 C-1561.92532143 948.91671552 -1571.74962965 946.13453341 -1582.79081726 935.69696426 C-1591.20443866 926.76953392 -1593.50124347 915.9888753 -1593.28300476 904.13837051 C-1592.71154034 893.59323459 -1588.2195122 884.4702268 -1580.74784851 876.98602676 C-1569.96319737 867.84620449 -1558.92418124 865.50699162 -1545.07597351 866.31805801 C-1533.34631568 868.25657289 -1524.07257223 874.88636856 -1517.07597351 884.31805801 C-1516.41597351 885.63805801 -1515.75597351 886.95805801 -1515.07597351 888.31805801 C-1476.79597351 888.64805801 -1438.51597351 888.97805801 -1399.07597351 889.31805801 C-1399.07597351 747.08805801 -1399.07597351 604.85805801 -1399.07597351 458.31805801 C-1343.95832645 458.31805801 -1343.95832645 458.31805801 -1327.07597351 461.31805801 C-1325.34105652 461.62404922 -1325.34105652 461.62404922 -1323.5710907 461.93622208 C-1267.99760006 472.0391562 -1214.63842238 496.19369665 -1181.47514343 543.70965958 C-1166.32493363 565.92507618 -1155.94413087 590.85187052 -1150.32597351 617.13055801 C-1150.04620667 618.42340714 -1150.04620667 618.42340714 -1149.76078796 619.74237442 C-1145.67462342 640.1676976 -1144.64259811 660.41810003 -1144.73539734 681.19501114 C-1144.73624592 683.89803332 -1144.73589518 686.6010312 -1144.73406982 689.30405045 C-1144.73251383 695.06916427 -1144.74174485 700.83417447 -1144.75878334 706.59926224 C-1144.78340027 714.93409444 -1144.79100149 723.2688777 -1144.79474732 731.6037423 C-1144.80127671 745.13386796 -1144.82114128 758.66393867 -1144.84965515 772.19403458 C-1144.87728752 785.31968287 -1144.89847587 798.44531611 -1144.91117859 811.5709877 C-1144.91196676 812.38311913 -1144.91275493 813.19525055 -1144.91356698 814.03199202 C-1144.91748274 818.10713222 -1144.92127371 822.18227253 -1144.92500269 826.25741291 C-1144.95598894 859.94433443 -1145.00872751 893.63118943 -1145.07597351 927.31805801 C-1116.43987195 927.25721095 -1087.80385765 927.17949475 -1059.16785526 927.0823431 C-1045.86810839 927.03760429 -1032.56839943 926.99814077 -1019.26860046 926.97162247 C-1007.66044307 926.94846314 -996.05236781 926.91486992 -984.4442758 926.86935645 C-978.31248937 926.84566294 -972.18078306 926.82677949 -966.0489521 926.82044411 C-868.59886414 926.70630094 -775.64290818 907.18020666 -695.43901062 829.86420059 C-690.27812272 824.61950397 -685.54655232 819.16660858 -681.07597351 813.31805801 C-680.62689636 812.74007462 -680.17781921 812.16209122 -679.71513367 811.56659317 C-641.50390369 762.33951311 -620.02591298 703.87912774 -612.07597351 642.31805801 C-611.92499207 641.15242325 -611.77401062 639.98678848 -611.61845398 638.78583145 C-606.89062213 600.19815534 -606.8164003 559.8489217 -612.07597351 521.31805801 C-612.33338318 519.42772842 -612.33338318 519.42772842 -612.59599304 517.49921036 C-621.55246491 454.27564352 -645.60523693 389.41537578 -690.07597351 342.31805801 C-691.1221658 341.09274098 -692.16387523 339.86358166 -693.20097351 338.63055801 C-702.24614479 328.28119925 -712.19123456 318.70302096 -723.07597351 310.31805801 C-724.33955878 309.31486229 -725.60253535 308.3108996 -726.86503601 307.30633926 C-771.89319104 271.79394973 -826.97766761 251.29868116 -883.38847351 243.00555801 C-884.38620789 242.85820206 -885.38394226 242.7108461 -886.41191101 242.55902481 C-908.16894638 239.62450685 -930.0002297 239.01496701 -951.92428255 239.03070188 C-955.65704614 239.03113006 -959.38977954 239.01994299 -963.12252808 239.01024246 C-969.561417 238.99494436 -976.00028442 238.98641254 -982.43918991 238.9825325 C-991.77000116 238.97672445 -1001.10075531 238.95804371 -1010.43154098 238.93609196 C-1025.60695441 238.90054833 -1040.78237109 238.87215953 -1055.95780945 238.8497963 C-1056.86196016 238.8484613 -1057.76611088 238.84712631 -1058.6976601 238.84575087 C-1066.03443819 238.83497298 -1073.37121678 238.82454837 -1080.70799541 238.81415081 C-1087.13078523 238.80503598 -1093.55357483 238.79578403 -1099.97636414 238.78631973 C-1100.88120689 238.78498899 -1101.78604965 238.78365825 -1102.71831189 238.78228718 C-1117.85237435 238.75979037 -1132.98641213 238.72957262 -1148.12044919 238.69392729 C-1157.41941313 238.67239391 -1166.71833872 238.65767885 -1176.01732619 238.65208852 C-1182.391488 238.64781319 -1188.76561316 238.63650242 -1195.13975458 238.61986458 C-1198.80411375 238.61054656 -1202.46840456 238.60431238 -1206.13277626 238.60692787 C-1225.89660857 238.61828851 -1245.29313681 238.11012898 -1264.70097351 234.06805801 C-1265.75236511 233.85117325 -1266.80375671 233.63428848 -1267.88700867 233.41083145 C-1296.75074197 227.22731644 -1323.01923661 214.1636242 -1344.07597351 193.31805801 C-1344.99636414 192.45825333 -1345.91675476 191.59844864 -1346.86503601 190.71258926 C-1378.28215565 160.75570194 -1392.58545636 116.3274046 -1398.07597351 74.31805801 C-1398.24658295 73.01844131 -1398.41719238 71.71882462 -1398.5929718 70.37982559 C-1399.21178312 64.75057505 -1399.20151273 59.15917449 -1399.17362976 53.50165176 C-1399.17150734 51.85605019 -1399.17150734 51.85605019 -1399.16934204 50.17720413 C-1399.16378364 46.70329333 -1399.15123897 43.22944905 -1399.13847351 39.75555801 C-1399.13345313 37.38772041 -1399.12889117 35.01988178 -1399.12480164 32.65204239 C-1399.11382786 26.87402523 -1399.09713163 21.09604638 -1399.07597351 15.31805801 C-1339.96619378 15.29512861 -1280.85641415 15.27752578 -1221.7466309 15.26699268 C-1214.75533754 15.26574551 -1207.7640442 15.26444893 -1200.77275085 15.26312637 C-1200.07708725 15.26299561 -1199.38142364 15.26286486 -1198.66467931 15.26273013 C-1176.17552455 15.2584799 -1153.68637231 15.25097697 -1131.19721908 15.24176079 C-1107.40016323 15.2320265 -1083.60310917 15.22605467 -1059.80605137 15.22396952 C-1045.57229813 15.22260295 -1031.33855219 15.21829954 -1017.10480119 15.21014155 C-1007.32105085 15.20482246 -997.53730423 15.20326537 -987.75355254 15.20455664 C-982.12364023 15.20519201 -976.49374058 15.20427458 -970.86383057 15.19885254 C-911.89715387 15.14491643 -911.89715387 15.14491643 -882.51347351 17.56805801 C-881.73601776 17.63085953 -880.95856201 17.69366104 -880.157547 17.75836563 C-828.32070562 22.00224917 -777.49480377 32.11042854 -728.07597351 48.31805801 C-726.99187195 48.66948868 -725.90777039 49.02091934 -724.79081726 49.38299942 C-670.55553541 67.06877556 -618.03529631 93.54086169 -572.07597351 127.31805801 C-571.41194519 127.80339005 -570.74791687 128.28872208 -570.06376648 128.78876114 C-544.51074274 147.51407615 -520.99030116 168.34416746 -498.57597351 190.69305801 C-498.057146 191.2092067 -497.53831848 191.72535538 -497.00376892 192.25714493 C-491.14375501 198.09417475 -485.4001336 203.97981597 -480.07597351 210.31805801 C-479.321026 211.21500381 -479.321026 211.21500381 -478.55082703 212.13006973 C-477.38679361 213.52127579 -476.23034274 214.91882259 -475.07597351 216.31805801 C-470.58405157 214.72069198 -468.18650258 211.19419421 -465.26347351 207.63055801 C-461.5833639 203.23402108 -457.9049643 198.97141551 -453.7585907 195.00262833 C-452.05541192 193.29747255 -450.49812843 191.52335939 -448.93534851 189.68915176 C-444.86603116 185.00973141 -440.53308644 180.62791974 -436.13847351 176.25555801 C-435.37857117 175.49178848 -434.61866882 174.72801895 -433.83573914 173.94110489 C-429.651346 169.76385846 -425.38117533 165.75475478 -420.9004364 161.89740372 C-418.29448662 159.64156414 -415.78557501 157.29231619 -413.26347351 154.94305801 C-408.6717267 150.70619385 -403.96643237 146.66399919 -399.09550476 142.74774551 C-396.86930191 140.95641541 -394.66109235 139.15067499 -392.46269226 137.32587051 C-383.38975741 129.82175929 -374.06061937 122.78648132 -364.44413757 115.99481583 C-362.01902305 114.27773474 -359.6058106 112.54478637 -357.19316101 110.81024551 C-346.56272613 103.21349852 -335.68714946 96.25363551 -324.39872742 89.6779213 C-322.26340368 88.42778957 -320.14198862 87.15782928 -318.02519226 85.87665176 C-246.21206172 42.58188599 -165.50214234 15.78524173 0 0 Z M737.92402649 342.31805801 C735.22566546 348.21976008 732.77956739 354.16127035 730.55293274 360.25555801 C730.23867844 361.10799088 729.92442413 361.96042374 729.60064697 362.8386879 C728.55979455 365.66411845 727.52318506 368.49108632 726.48652649 371.31805801 C725.7407224 373.34485733 724.99462112 375.37154731 724.24824524 377.39813614 C722.64657262 381.74847017 721.04662132 386.09943185 719.44795227 390.45087051 C716.8801488 397.43931506 714.30698183 404.42577704 711.73262024 411.41180801 C711.29738541 412.59292664 710.86215057 413.77404526 710.41372681 414.99095535 C709.52893849 417.39201704 708.64413722 419.79307395 707.75932312 422.19412613 C706.41718005 425.83663892 705.07544695 429.47930247 703.73384094 433.12201309 C696.16619539 453.66882756 688.57893525 474.20835212 680.98457336 494.74530411 C678.88559637 500.4216517 676.78750692 506.09832709 674.68965149 511.77508926 C674.33822083 512.72605484 673.98679016 513.67702042 673.62471008 514.65680313 C672.55780159 517.54388293 671.49091056 520.43096919 670.42402649 523.31805801 C662.59877203 544.49393383 662.59877203 544.49393383 658.83918762 554.6607399 C650.68640306 576.70788788 642.54791745 598.76024584 634.42402649 620.81805801 C628.33991702 637.33655783 622.25503447 653.85476613 616.15519714 670.36746597 C615.46416535 672.23833771 614.77334612 674.10928796 614.08274841 675.98031998 C610.18625915 686.53641625 606.26718638 697.08359134 602.31465149 707.61883926 C601.19213389 710.61594668 600.06987122 713.61314948 598.94761658 716.61035538 C597.88443208 719.44449833 596.81584389 722.27656363 595.74702454 725.10858536 C595.10655685 726.81763898 594.46632522 728.52678109 593.82637024 730.23602676 C593.53042969 731.01488739 593.23448914 731.79374802 592.92958069 732.59621048 C591.79601283 735.63747913 590.92402649 738.04423844 590.92402649 741.31805801 C686.95402649 741.31805801 782.98402649 741.31805801 881.92402649 741.31805801 C880.38000001 734.11790367 880.38000001 734.11790367 878.22602844 727.26312637 C877.73558296 725.9183799 877.73558296 725.9183799 877.23522949 724.54646683 C876.70413322 723.11662712 876.70413322 723.11662712 876.16230774 721.65790176 C875.78419449 720.62511597 875.40608124 719.59233017 875.01651001 718.52824783 C874.1943411 716.28409864 873.36965744 714.0408695 872.54273987 711.79846573 C870.50441124 706.2698053 868.48202251 700.73531608 866.45846558 695.20123672 C865.7412769 693.24041253 865.02342131 691.27983339 864.30549622 689.31927872 C859.23532414 675.46664541 854.24858173 661.58428176 849.26857758 647.69903183 C847.3292866 642.29265138 845.38814012 636.88693652 843.44729614 631.48111343 C842.96054219 630.12532961 842.47381732 628.76953534 841.98712158 627.41373062 C836.62650242 612.48074555 831.24630609 597.5548451 825.86152649 582.63055801 C825.40516477 581.36564576 824.94880491 580.10073284 824.4924469 578.83581924 C822.66956236 573.78331406 820.84655825 568.73085203 819.02333069 563.67847061 C815.82394133 554.81257225 812.62555898 545.94631117 809.42793274 537.07977676 C809.2009413 536.45036493 808.97394985 535.8209531 808.74007988 535.17246819 C807.59338395 531.99284353 806.44670496 528.81321276 805.30003357 525.63357925 C803.23727296 519.91372459 801.17436228 514.19392404 799.11146355 508.47411919 C797.96564511 505.29710099 796.81983628 502.12007933 795.67402649 498.94305801 C795.2156932 497.67222466 794.75735987 496.40139133 794.29902649 495.13055801 C791.54902641 487.5055578 791.54902641 487.5055578 790.86151505 485.59927559 C790.40322045 484.32855013 789.94492526 483.05782488 789.48662949 481.78709984 C788.34019863 478.60836784 787.19377806 475.42963213 786.04737854 472.25088882 C783.99202443 466.55182195 781.93660203 460.85277976 779.8807869 455.15387917 C778.74410683 452.00289489 777.60748816 448.85188848 776.47090149 445.70087051 C776.24548424 445.0759383 776.02006699 444.45100609 775.78781891 443.80713654 C772.68670318 435.20943691 769.58841639 426.6107224 766.49226379 418.01123428 C764.76706954 413.21959121 763.0410761 408.42823612 761.31491852 403.63694 C760.14961635 400.40222149 758.98488357 397.16730077 757.82099915 393.93207169 C751.6182442 376.69080835 745.31848482 359.48905175 738.92402649 342.31805801 C738.59402649 342.31805801 738.26402649 342.31805801 737.92402649 342.31805801 Z " fill="#EF5023" transform="translate(1639.0759735107422,675.681941986084)"/>
<path d="M0 0 C76.23 0 152.46 0 231 0 C236.73045803 12.60700768 236.73045803 12.60700768 239.171875 19.09375 C239.45103256 19.82571594 239.73019012 20.55768188 240.01780701 21.31182861 C240.61767748 22.88489689 241.2161517 24.45849822 241.81332397 26.03259277 C243.46147479 30.37417848 245.12305936 34.7106127 246.78515625 39.046875 C247.13157669 39.95085022 247.47799713 40.85482544 247.83491516 41.78619385 C251.55196348 51.46741345 255.36364732 61.11057207 259.1875 70.75 C260.62268264 74.36967802 262.05757447 77.98947118 263.4921875 81.609375 C263.85649368 82.52855713 264.22079987 83.44773926 264.59614563 84.39477539 C269.02862847 95.58590051 273.42085086 106.79280239 277.8125 118 C278.23052887 119.06662872 278.64855774 120.13325745 279.07925415 121.23220825 C281.20670125 126.66067798 283.33372424 132.08931373 285.46044922 137.51806641 C289.59643823 148.07540463 293.73562958 158.63148722 297.875 169.1875 C298.48850815 170.75213989 298.48850815 170.75213989 299.1144104 172.34838867 C305.73597609 189.23499714 312.36631787 206.11814807 319 223 C328.52150186 247.23097477 338.02983431 271.46709212 347.53222656 295.70556641 C350.01849164 302.04735291 352.50526579 308.38893971 354.9921875 314.73046875 C355.40509033 315.78335083 355.81799316 316.83623291 356.2434082 317.92102051 C357.49559718 321.11401692 358.74779652 324.30700927 360 327.5 C369.18076103 350.91000117 369.18076103 350.91000117 373.69866943 362.43417358 C382.79077846 385.62606148 391.88962213 408.8152819 401 432 C410.52150186 456.23097477 420.02983431 480.46709212 429.53222656 504.70556641 C432.01849164 511.04735291 434.50526579 517.38893971 436.9921875 523.73046875 C437.40509033 524.78335083 437.81799316 525.83623291 438.2434082 526.92102051 C439.49559718 530.11401692 440.74779652 533.30700927 442 536.5 C451.18076103 559.91000117 451.18076103 559.91000117 455.69866943 571.43417358 C464.79077846 594.62606148 473.88962213 617.8152819 483 641 C492.52150186 665.23097477 502.02983431 689.46709212 511.53222656 713.70556641 C514.01849164 720.04735291 516.50526579 726.38893971 518.9921875 732.73046875 C519.40509033 733.78335083 519.81799316 734.83623291 520.2434082 735.92102051 C521.49559718 739.11401692 522.74779652 742.30700927 524 745.5 C533.18076103 768.91000117 533.18076103 768.91000117 537.69866943 780.43417358 C546.79077846 803.62606148 555.88962213 826.8152819 565 850 C574.52150186 874.23097477 584.02983431 898.46709212 593.53222656 922.70556641 C596.01849164 929.04735291 598.50526579 935.38893971 600.9921875 941.73046875 C601.40509033 942.78335083 601.81799316 943.83623291 602.2434082 944.92102051 C603.49559718 948.11401692 604.74779652 951.30700927 606 954.5 C610.97713395 967.19118227 615.95403782 979.88245448 620.9296875 992.57421875 C629.20932883 1013.69317626 637.49238744 1034.81079341 645.78393555 1055.92507935 C647.17364072 1059.46469999 648.56243199 1063.00467827 649.95117188 1066.54467773 C654.3269392 1077.69288911 658.72282528 1088.83237846 663.16796875 1099.953125 C663.97316483 1101.97196466 664.77826191 1103.9908438 665.58325195 1106.00976562 C667.07300544 1109.74589434 668.57142239 1113.47838147 670.07495117 1117.20898438 C670.73520885 1118.86314336 671.39514155 1120.51743211 672.0546875 1122.171875 C672.35662521 1122.91383118 672.65856293 1123.65578735 672.96965027 1124.42022705 C674.34181933 1127.88377209 675 1130.21624697 675 1134 C586.23 1134 497.46 1134 406 1134 C398.41 1112.88 390.82 1091.76 383 1070 C376.70067485 1052.57298526 376.70067485 1052.57298526 370.39453125 1035.1484375 C367.07086207 1025.96922907 363.75842091 1016.78599338 360.44921875 1007.6015625 C359.96234297 1006.25048077 359.47546042 1004.89940147 358.98857117 1003.54832458 C355.05448134 992.63110453 355.05448134 992.63110453 353.25778198 987.63931274 C351.93562209 983.96630363 350.61257356 980.2936162 349.2890625 976.62109375 C348.86252884 975.43685318 348.43599518 974.25261261 347.99653625 973.03248596 C345.65101213 966.53249423 343.28347448 960.04140941 340.88964844 953.55908203 C340.63310926 952.86347829 340.37657009 952.16787455 340.112257 951.4511919 C338.8691132 948.08078161 337.62279352 944.71161597 336.37051392 941.34458923 C335.92904022 940.14943192 335.48756653 938.9542746 335.03271484 937.72290039 C334.63950043 936.6639003 334.24628601 935.60490021 333.84115601 934.5138092 C333 932 333 932 333 930 C186.81 930 40.62 930 -110 930 C-111.485 935.445 -111.485 935.445 -113 941 C-114.02688941 943.97889121 -115.07644466 946.92078158 -116.1953125 949.86328125 C-116.499496 950.67573807 -116.8036795 951.48819489 -117.11708069 952.32527161 C-117.77248264 954.0741963 -118.43007831 955.82230023 -119.08969116 957.56964111 C-120.15584064 960.39420655 -121.2160163 963.22095254 -122.2746582 966.04833984 C-123.39228061 969.03324168 -124.5101868 972.01803251 -125.629776 975.00219727 C-129.51668646 985.36380926 -133.35534287 995.74303915 -137.1875 1006.125 C-137.88815471 1008.02190195 -138.58883866 1009.91879309 -139.28955078 1011.81567383 C-144.58681655 1026.15885523 -149.87224207 1040.50639823 -155.15701294 1054.85418701 C-156.49042441 1058.47400509 -157.82413734 1062.09371195 -159.15795898 1065.71337891 C-160.0376007 1068.10058482 -160.91723938 1070.48779184 -161.796875 1072.875 C-162.22944107 1074.04888275 -162.66200714 1075.2227655 -163.10768127 1076.43222046 C-165.6867532 1083.43225253 -168.26276311 1090.43340224 -170.83642578 1097.4354248 C-172.43041203 1101.77062236 -174.02658816 1106.10501134 -175.62329102 1110.43920898 C-176.37022094 1112.46830118 -177.11616344 1114.49775715 -177.86108398 1116.52758789 C-178.87883954 1119.30057287 -179.8999353 1122.07230484 -180.921875 1124.84375 C-181.22184387 1125.66367432 -181.52181274 1126.48359863 -181.83087158 1127.32836914 C-183.88597386 1132.88597386 -183.88597386 1132.88597386 -185 1134 C-186.46478636 1134.09671192 -187.93423195 1134.12371783 -189.40220737 1134.12304783 C-190.83686953 1134.1260344 -190.83686953 1134.1260344 -192.30051476 1134.12908131 C-193.36372175 1134.12616847 -194.42692874 1134.12325563 -195.52235413 1134.12025452 C-196.6421019 1134.12110894 -197.76184967 1134.12196337 -198.91552919 1134.12284368 C-202.69899169 1134.12450176 -206.48241067 1134.11897178 -210.26586914 1134.11352539 C-212.96548999 1134.112688 -215.66510997 1134.11335705 -218.36473083 1134.1139679 C-224.19296285 1134.11449333 -230.02118371 1134.11134454 -235.84941292 1134.10573006 C-244.27614819 1134.09761763 -252.70287804 1134.0950001 -261.12961679 1134.09374207 C-274.8000373 1134.09155114 -288.47045186 1134.08488996 -302.14086914 1134.07543945 C-315.42374644 1134.06626638 -328.70662213 1134.05918504 -341.98950195 1134.05493164 C-342.80767602 1134.05466892 -343.62585008 1134.05440619 -344.4688173 1134.05413551 C-348.57318218 1134.05283051 -352.67754707 1134.05156679 -356.78191197 1134.05032361 C-390.8546123 1134.03994973 -424.92730542 1134.02233032 -459 1134 C-456.00678177 1132.00452118 -453.62662882 1131.12131183 -450.21484375 1130.046875 C-448.47352173 1129.49410889 -448.47352173 1129.49410889 -446.69702148 1128.93017578 C-445.45637939 1128.54071777 -444.2157373 1128.15125977 -442.9375 1127.75 C-441.64958955 1127.34040794 -440.36191162 1126.93008403 -439.07446289 1126.51904297 C-434.50433285 1125.06057604 -429.93299073 1123.60602257 -425.35546875 1122.17089844 C-381.50313633 1108.40550739 -337.69990027 1087.37014021 -300 1061 C-299.36288086 1060.55833496 -298.72576172 1060.11666992 -298.06933594 1059.66162109 C-281.87929256 1048.43207503 -266.140033 1036.64465364 -251.58203125 1023.3359375 C-249.48553036 1021.4392544 -247.36840805 1019.57652369 -245.234375 1017.72265625 C-240.88461286 1013.92405737 -236.64823098 1010.01410907 -232.4375 1006.0625 C-231.72142578 1005.39798828 -231.00535156 1004.73347656 -230.26757812 1004.04882812 C-226.15285896 1000.18870487 -222.32777485 996.20787912 -218.65942383 991.92211914 C-216.07206301 988.92516582 -213.3410419 986.06731914 -210.625 983.1875 C-205.14713034 977.32606988 -199.97713327 971.295637 -195 965 C-194.15399843 963.94633138 -193.30762803 962.89295883 -192.4609375 961.83984375 C-181.23123838 947.7940218 -170.64920568 933.17782109 -161 918 C-160.4023584 917.06027344 -159.8047168 916.12054687 -159.18896484 915.15234375 C-136.68832221 879.50469986 -118.29397777 841.65780651 -104 802 C-103.55350098 800.76749512 -103.10700195 799.53499023 -102.64697266 798.26513672 C-97.24329758 783.26146145 -92.4948631 768.27176632 -88.71777344 752.77929688 C-87.90247842 749.62238584 -86.97982339 746.5053501 -86.0546875 743.37890625 C-83.7691155 735.45576924 -82.11008668 727.45569098 -80.5 719.375 C-80.19395214 717.85499161 -79.88755168 716.33505418 -79.58081055 714.81518555 C-79.12714068 712.56564681 -78.67413933 710.31598878 -78.22380066 708.06578064 C-77.44570503 704.18149652 -76.6450431 700.30417545 -75.80078125 696.43359375 C-72.71251691 682.13858389 -70.97829812 667.66006515 -69.25646973 653.1494751 C-68.9972886 650.97727574 -68.73310843 648.80573298 -68.46777344 646.63427734 C-65.80613904 624.77334255 -64.06814895 602.99752285 -63 581 C-62.67 574.4 -62.34 567.8 -62 561 C-61.67 538.56 -61.34 516.12 -61 493 C-107.86 493 -154.72 493 -203 493 C-201.01376683 487.0413005 -198.97629265 481.29050789 -196.55078125 475.5234375 C-196.22144089 474.73276886 -195.89210052 473.94210022 -195.55278015 473.12747192 C-194.84473219 471.42840863 -194.13528701 469.72992703 -193.42456055 468.03198242 C-191.50181879 463.43808592 -189.58962524 458.83979619 -187.67578125 454.2421875 C-187.28343292 453.30046692 -186.89108459 452.35874634 -186.48684692 451.38848877 C-182.62210688 442.10693465 -178.80758772 432.80511001 -175 423.5 C-169.1818892 409.28915408 -163.3169187 395.09831585 -157.42724609 380.91699219 C-152.25343529 368.45741864 -147.11248567 355.98485648 -142 343.5 C-136.1808957 329.28955784 -130.31692105 315.0983215 -124.42724609 300.91699219 C-119.25343529 288.45741864 -114.11248567 275.98485648 -109 263.5 C-103.1808957 249.28955784 -97.31692105 235.0983215 -91.42724609 220.91699219 C-86.25343529 208.45741864 -81.11248567 195.98485648 -76 183.5 C-70.1808957 169.28955784 -64.31692105 155.0983215 -58.42724609 140.91699219 C-53.25343529 128.45741864 -48.11248567 115.98485648 -43 103.5 C-37.18597718 89.30196697 -31.32863808 75.12247626 -25.44235229 60.95425415 C-21.42086515 51.27368977 -17.41377423 41.58755762 -13.44140625 31.88671875 C-12.88620804 30.53110336 -12.88620804 30.53110336 -12.3197937 29.14810181 C-10.54401533 24.81069436 -8.77054799 20.47235753 -7 16.1328125 C-6.36591188 14.58202043 -5.7317987 13.03123861 -5.09765625 11.48046875 C-4.66919151 10.42722664 -4.66919151 10.42722664 -4.23207092 9.35270691 C-2.92565901 6.16115435 -1.5442467 3.08849341 0 0 Z M114 325 C111.30163897 330.90170206 108.8555409 336.84321234 106.62890625 342.9375 C106.31465195 343.78993286 106.00039764 344.64236572 105.67662048 345.52062988 C104.63576806 348.34606044 103.59915857 351.17302831 102.5625 354 C101.81669591 356.02679932 101.07059463 358.0534893 100.32421875 360.08007812 C98.72254614 364.43041215 97.12259483 368.78137384 95.52392578 373.1328125 C92.95612231 380.12125705 90.38295534 387.10771902 87.80859375 394.09375 C87.37335892 395.27486862 86.93812408 396.45598724 86.48970032 397.67289734 C85.60491201 400.07395902 84.72011073 402.47501593 83.83529663 404.87606812 C82.49315356 408.5185809 81.15142046 412.16124445 79.80981445 415.80395508 C72.24216891 436.35076955 64.65490876 456.8902941 57.06054688 477.42724609 C54.96156988 483.10359368 52.86348043 488.78026907 50.765625 494.45703125 C50.41419434 495.40799683 50.06276367 496.3589624 49.70068359 497.33874512 C48.6337751 500.22582492 47.56688408 503.11291118 46.5 506 C38.67474554 527.17587581 38.67474554 527.17587581 34.91516113 537.34268188 C26.76237657 559.38982987 18.62389096 581.44218782 10.5 603.5 C4.41589054 620.01849982 -1.66899201 636.53670811 -7.76882935 653.04940796 C-8.45986114 654.92027969 -9.15068037 656.79122995 -9.84127808 658.66226196 C-13.73776733 669.21835823 -17.65684011 679.76553333 -21.609375 690.30078125 C-22.7318926 693.29788867 -23.85415527 696.29509147 -24.97640991 699.29229736 C-26.03959441 702.12644032 -27.10818259 704.95850562 -28.17700195 707.79052734 C-28.81746964 709.49958097 -29.45770126 711.20872308 -30.09765625 712.91796875 C-30.3935968 713.69682938 -30.68953735 714.47569 -30.9944458 715.27815247 C-32.12801366 718.31942111 -33 720.72618042 -33 724 C63.03 724 159.06 724 258 724 C256.45597352 716.79984565 256.45597352 716.79984565 254.30200195 709.94506836 C253.81155647 708.60032188 253.81155647 708.60032188 253.311203 707.22840881 C252.78010674 705.79856911 252.78010674 705.79856911 252.23828125 704.33984375 C251.860168 703.30705795 251.48205475 702.27427216 251.09248352 701.21018982 C250.27031461 698.96604063 249.44563095 696.72281148 248.61871338 694.48040771 C246.58038475 688.95174728 244.55799602 683.41725807 242.53443909 677.88317871 C241.81725041 675.92235452 241.09939482 673.96177537 240.38146973 672.0012207 C235.31129765 658.14858739 230.32455524 644.26622375 225.34455109 630.38097382 C223.40526011 624.97459336 221.46411363 619.56887851 219.52326965 614.16305542 C219.0365157 612.8072716 218.54979083 611.45147733 218.06309509 610.09567261 C212.70247593 595.16268753 207.3222796 580.23678709 201.9375 565.3125 C201.48113828 564.04758775 201.02477842 562.78267482 200.56842041 561.51776123 C198.74553587 556.46525604 196.92253176 551.41279401 195.0993042 546.3604126 C191.89991484 537.49451423 188.70153249 528.62825316 185.50390625 519.76171875 C185.27691481 519.13230692 185.04992336 518.50289509 184.81605339 517.85441017 C183.66935746 514.67478551 182.52267847 511.49515475 181.37600708 508.31552124 C179.31324647 502.59566657 177.25033579 496.87586603 175.18743706 491.15606117 C174.04161862 487.97904298 172.89580979 484.80202131 171.75 481.625 C171.29166671 480.35416665 170.83333338 479.08333332 170.375 477.8125 C167.62499992 470.18749979 167.62499992 470.18749979 166.93748856 468.28121758 C166.47919396 467.01049211 166.02089877 465.73976686 165.562603 464.46904182 C164.41617214 461.29030982 163.26975157 458.11157411 162.12335205 454.93283081 C160.06799795 449.23376393 158.01257555 443.53472174 155.95676041 437.83582115 C154.82008034 434.68483688 153.68346167 431.53383046 152.546875 428.3828125 C152.32145775 427.75788029 152.0960405 427.13294807 151.86379242 426.48907852 C148.76267669 417.8913789 145.66438991 409.29266438 142.5682373 400.69317627 C140.84304305 395.9015332 139.11704961 391.1101781 137.39089203 386.31888199 C136.22558986 383.08416347 135.06085708 379.84924275 133.89697266 376.61401367 C127.69421771 359.37275033 121.39445833 342.17099373 115 325 C114.67 325 114.34 325 114 325 Z " fill="#1D1749" transform="translate(2263,693)"/>
<path d="M0 0 C16 0 16 0 19.66015625 3.3125 C20.90917969 5.53344727 20.90917969 5.53344727 22.0625 8 C23.02494866 9.76042613 23.98991202 11.51947914 24.95703125 13.27734375 C25.4463916 14.21304199 25.93575195 15.14874023 26.43994141 16.11279297 C29.12621492 21.08429072 32.21347518 25.800025 35.25 30.5625 C39.31212404 37.0419649 43.34042339 43.54180183 47.3359375 50.0625 C47.69558594 50.6490184 48.05523438 51.2355368 48.42578125 51.83982849 C50.16542139 54.67757227 51.90196298 57.51709226 53.63378906 60.35961914 C56.91524519 65.72120898 60.25883046 70.94727103 64 76 C64.39155273 75.37246826 64.78310547 74.74493652 65.18652344 74.09838867 C73.26820307 61.14906574 81.37165115 48.21430184 89.53515625 35.31640625 C91.57588466 32.08933439 93.61213168 28.85945794 95.64501953 25.62744141 C96.66223678 24.01837695 97.68651339 22.41375069 98.71826172 20.81396484 C101.43415095 16.58954441 103.93628732 12.37576885 106.11572266 7.84814453 C107.77284372 5.02948369 109.94744155 2.54517248 112 0 C116.95 0 121.9 0 127 0 C127 44.55 127 89.1 127 135 C121.72 135 116.44 135 111 135 C111 100.68 111 66.36 111 31 C107.7 36.28 104.4 41.56 101 47 C99.25884601 49.71525906 97.51464793 52.42541246 95.75 55.125 C92.61795486 59.93705399 89.5095417 64.76264581 86.4375 69.61328125 C85.82551758 70.57927246 85.21353516 71.54526367 84.58300781 72.54052734 C83.3980562 74.41328119 82.2149823 76.28722503 81.03417969 78.16259766 C79.92613235 79.91318323 78.80355535 81.65466409 77.66601562 83.38623047 C75.95188538 86.0059381 75.95188538 86.0059381 74.44335938 88.88330078 C72.14765561 92.82999587 70.57474466 95.45327936 66.15551758 96.98754883 C62.67222819 97.3066891 60.3137065 97.13303422 57 96 C53.59618414 93.04128102 51.61742544 89.53830837 49.4375 85.625 C48.80529541 84.57513916 48.17309082 83.52527832 47.52172852 82.44360352 C46.24215 80.31108068 44.98074124 78.16754383 43.73828125 76.01318359 C41.80121445 72.65541977 39.78413096 69.35494526 37.74584961 66.05810547 C36.43324999 63.93061149 35.13972523 61.79235563 33.84765625 59.65234375 C29.8418716 53.0609677 25.66592846 46.57626589 21.50561523 40.08178711 C20.93399658 39.18854736 20.36237793 38.29530762 19.7734375 37.375 C19.26216309 36.57835937 18.75088867 35.78171875 18.22412109 34.9609375 C17 33 17 33 16 31 C16 65.32 16 99.64 16 135 C10.72 135 5.44 135 0 135 C0 90.45 0 45.9 0 0 Z " fill="#F05123" transform="translate(2339,1967)"/>
<path d="M0 0 C16 0 16 0 19.625 3.2421875 C20.85864258 5.43237305 20.85864258 5.43237305 22 7.875 C22.96015205 9.63004991 23.92251395 11.3838921 24.88671875 13.13671875 C25.38220215 14.08466309 25.87768555 15.03260742 26.38818359 16.00927734 C29.28420026 21.38283145 32.57981384 26.51218492 35.8125 31.6875 C37.17087857 33.89484476 38.52763902 36.10318607 39.8828125 38.3125 C43.96495951 44.94963193 48.06725844 51.57395261 52.1875 58.1875 C53.10462769 59.66512817 53.10462769 59.66512817 54.0402832 61.17260742 C57.20547585 66.24335274 60.46137533 71.18187262 64 76 C71.81239658 64.18817077 79.49904519 52.33704231 86.71533203 40.15039062 C90.33019679 34.06347984 94.06598976 28.07087014 98.00585938 22.18823242 C100.34955864 18.66974129 102.47556248 15.1623762 104.3828125 11.38671875 C104.78161621 10.64067383 105.18041992 9.89462891 105.59130859 9.12597656 C106.33771724 7.71619842 107.04026585 6.28186561 107.68603516 4.82324219 C108.734375 2.90234375 108.734375 2.90234375 112 0 C116.95 0 121.9 0 127 0 C127 44.55 127 89.1 127 135 C121.72 135 116.44 135 111 135 C111 101.01 111 67.02 111 32 C100.38992873 48.31377939 100.38992873 48.31377939 89.875 64.6875 C84.67558542 72.82886261 79.45863513 80.9579477 74.18505859 89.05151367 C71.96014389 92.44834798 71.96014389 92.44834798 70 96 C65.32682945 97.13671716 61.64393009 97.36884402 57 96 C52.69867034 92.09859891 50.12292188 86.50727275 47.37695312 81.47167969 C45.15128704 77.47653015 42.65877737 73.65860574 40.1875 69.8125 C39.18991921 68.23270886 38.19385921 66.65195652 37.19921875 65.0703125 C33.64620506 59.43418956 30.07509131 53.80963823 26.5 48.1875 C25.9124292 47.26235596 25.3248584 46.33721191 24.71948242 45.3840332 C24.16236572 44.50835693 23.60524902 43.63268066 23.03125 42.73046875 C22.54205078 41.96114014 22.05285156 41.19181152 21.54882812 40.39916992 C19.72890113 37.5800617 17.86130686 34.79196028 16 32 C16 65.99 16 99.98 16 135 C10.72 135 5.44 135 0 135 C0 90.45 0 45.9 0 0 Z " fill="#F05123" transform="translate(1314,2187)"/>
<path d="M0 0 C15 0 15 0 18.74609375 2.98046875 C19.69317668 4.34957571 20.58855533 5.75546896 21.4375 7.1875 C22.50049014 8.76054521 23.56569721 10.33209401 24.6328125 11.90234375 C25.44733887 13.15313721 25.44733887 13.15313721 26.27832031 14.42919922 C29.24641297 18.86113565 32.54803712 23.03447002 35.8125 27.25 C37.17476613 29.0352469 38.53543113 30.82171665 39.89453125 32.609375 C43.92891544 37.90683841 47.96435649 43.20349592 52 48.5 C53.33333824 50.24999626 54.66667157 51.99999627 56 53.75 C56.66 54.61625 57.32 55.4825 58 56.375 C60 59 62 61.625 64 64.25 C64.66088623 65.11737793 65.32177246 65.98475586 66.00268555 66.87841797 C67.32720455 68.61691999 68.65158754 70.35552566 69.97583008 72.09423828 C73.44287664 76.64604531 76.91272967 81.19567626 80.38671875 85.7421875 C81.10666016 86.68513672 81.82660156 87.62808594 82.56835938 88.59960938 C83.93987611 90.39585387 85.31221779 92.1914689 86.68554688 93.98632812 C87.30880859 94.80294922 87.93207031 95.61957031 88.57421875 96.4609375 C89.11651123 97.17040527 89.65880371 97.87987305 90.2175293 98.61083984 C92.52626416 101.70538571 94.75590333 104.85826466 97 108 C97 72.36 97 36.72 97 0 C102.28 0 107.56 0 113 0 C113 44.55 113 89.1 113 135 C97 135 97 135 93.3046875 132.1328125 C92.03857422 130.22583008 92.03857422 130.22583008 90.875 128.125 C89.92011744 126.6501039 88.96163541 125.17753339 88 123.70703125 C87.51789062 122.93439941 87.03578125 122.16176758 86.5390625 121.36572266 C83.90606894 117.31849746 80.87791152 113.58854617 77.875 109.8125 C76.68862334 108.2954277 75.50369809 106.77721913 74.3203125 105.2578125 C73.75602539 104.5349707 73.19173828 103.81212891 72.61035156 103.06738281 C68.71397669 98.06518414 64.86037495 93.02999186 61 88 C59.33390746 85.83289152 57.66693223 83.66646261 56 81.5 C55.16275248 80.41146444 54.32551287 79.32292279 53.48828125 78.234375 C51.86133583 76.11928247 50.2336002 74.00480548 48.60546875 71.890625 C43.33613443 65.04644925 38.0835214 58.1897091 32.83911133 51.32641602 C28.57962169 45.75358901 24.30559458 40.19214181 20.0234375 34.63671875 C18.33392582 32.435135 16.66281872 30.22172206 15 28 C15.02996567 28.76252075 15.05993134 29.5250415 15.09080505 30.31066895 C15.93750034 52.53495619 16.12876451 74.72580635 16.06866455 96.9644165 C16.0581796 101.27705364 16.05381479 105.58969737 16.04882812 109.90234375 C16.03830624 118.26824821 16.02081863 126.63411482 16 135 C10.72 135 5.44 135 0 135 C0 90.45 0 45.9 0 0 Z " fill="#F05123" transform="translate(2680,1967)"/>
<path d="M0 0 C14 0 14 0 17.625 3 C18.78178781 4.64476282 19.9016984 6.31561989 21 8 C22.29546789 9.75369248 23.6183369 11.48499734 24.94067383 13.21850586 C26.49639186 15.26496907 28.03097276 17.32600532 29.5625 19.390625 C33.31493139 24.43624245 37.12329548 29.43849426 40.9375 34.4375 C41.96121704 35.77977661 41.96121704 35.77977661 43.00561523 37.14916992 C47.68977583 43.28832249 52.38016337 49.42270962 57.07275391 55.55541992 C63.35913051 63.77273589 69.6261191 72.0048177 75.89453125 80.23583984 C78.08537419 83.11208332 80.27696547 85.98775524 82.46875 88.86328125 C83.19602295 89.81750977 83.9232959 90.77173828 84.67260742 91.75488281 C86.06849859 93.58634299 87.46448997 95.41772681 88.8605957 97.24902344 C89.49054443 98.07563477 90.12049316 98.90224609 90.76953125 99.75390625 C91.32229736 100.47908447 91.87506348 101.2042627 92.44458008 101.95141602 C93.97090173 103.96167578 95.48557313 105.98076417 97 108 C97 72.36 97 36.72 97 0 C102.28 0 107.56 0 113 0 C113 44.55 113 89.1 113 135 C97 135 97 135 92.7265625 131.51953125 C91.63938716 129.98698503 90.6062467 128.41493659 89.625 126.8125 C89.05813477 125.99112549 88.49126953 125.16975098 87.90722656 124.32348633 C86.7667886 122.67101171 85.6457828 121.00493502 84.54589844 119.32519531 C82.43546934 116.15088598 80.11327794 113.17508422 77.75 110.1875 C76.16640355 108.12520201 74.5830668 106.06270459 73 104 C71.33390747 101.83289153 69.66694801 99.66645047 68 97.5 C67.16665095 96.41667876 66.33331759 95.33334544 65.5 94.25 C65.0875 93.71375 64.675 93.1775 64.25 92.625 C56.33333333 82.33333333 48.41666667 72.04166667 40.5 61.75 C39.8810083 60.9453833 39.8810083 60.9453833 39.24951172 60.12451172 C38.41761713 59.04295123 37.58591087 57.96124585 36.75439453 56.87939453 C34.65058208 54.14270782 32.54338673 51.40874723 30.4296875 48.6796875 C29.78773437 47.84920898 29.78773437 47.84920898 29.1328125 47.00195312 C27.96196451 45.4874867 26.78963519 43.97416583 25.6171875 42.4609375 C21.98444852 37.71043268 18.50499024 32.84497413 15 28 C15.03029297 28.71873291 15.06058594 29.43746582 15.09179688 30.17797852 C16.03792459 54.03313319 16.08764921 77.88025609 16.0625 101.75 C16.06164398 102.56818836 16.06078796 103.38637672 16.05990601 104.22935867 C16.04838927 114.48626372 16.027373 124.74312486 16 135 C10.72 135 5.44 135 0 135 C0 90.45 0 45.9 0 0 Z " fill="#F05123" transform="translate(1649,2187)"/>
<path d="M0 0 C15 0 15 0 18.52734375 2.76171875 C19.77050781 4.61987305 19.77050781 4.61987305 20.9375 6.6875 C21.90685546 8.1688319 22.87969699 9.64788671 23.85546875 11.125 C24.35739746 11.91777344 24.85932617 12.71054688 25.37646484 13.52734375 C28.26360237 17.92447591 31.52931363 22.03211318 34.75 26.1875 C36.12119072 27.98200476 37.49096946 29.77758924 38.859375 31.57421875 C39.54451172 32.47188965 40.22964844 33.36956055 40.93554688 34.29443359 C44.2928754 38.6943762 47.64627489 43.09731059 51 47.5 C52.33331371 49.25001495 53.66664706 51.00001494 55 52.75 C57.66666667 56.25 60.33333333 59.75 63 63.25 C63.9912085 64.55094604 63.9912085 64.55094604 65.00244141 65.87817383 C66.327676 67.61756448 67.6528717 69.35698476 68.97802734 71.09643555 C72.43494316 75.63400998 75.89265539 80.17097451 79.3515625 84.70703125 C80.06699219 85.64546875 80.78242188 86.58390625 81.51953125 87.55078125 C82.87865352 89.33352604 84.23801143 91.11609122 85.59765625 92.8984375 C86.52771484 94.11853516 86.52771484 94.11853516 87.4765625 95.36328125 C88.01361816 96.06751221 88.55067383 96.77174316 89.10400391 97.49731445 C91.74887091 100.98849803 94.37204903 104.49606537 97 108 C97 72.36 97 36.72 97 0 C102.28 0 107.56 0 113 0 C113 44.55 113 89.1 113 135 C97 135 97 135 92.83203125 131.66015625 C91.7723244 130.16389408 90.76693141 128.62801582 89.8125 127.0625 C88.66861158 125.40320249 87.52406426 123.74435906 86.37890625 122.0859375 C85.82090332 121.23741211 85.26290039 120.38888672 84.68798828 119.51464844 C82.05793432 115.59657557 79.15109015 111.90655064 76.25 108.1875 C75.17408676 106.78124274 74.09983035 105.3737161 73.02734375 103.96484375 C68.70213193 98.29661886 64.35028975 92.64898963 60 87 C58.33304708 84.83355349 56.66652587 82.66677503 55 80.5 C54.16667453 79.41666062 53.3333412 78.33332728 52.5 77.25 C47.5 70.75 42.5 64.25 37.5 57.75 C37.08709717 57.2132666 36.67419434 56.6765332 36.2487793 56.12353516 C35.4193575 55.04520574 34.59009198 53.96675611 33.76098633 52.88818359 C31.61910264 50.10226055 29.47416226 47.31877167 27.32421875 44.5390625 C23.11673235 39.09403469 18.9383677 33.6449937 15 28 C14.93774571 36.56440316 15.12512743 45.08525129 15.49609375 53.640625 C16.12353919 69.60166944 16.11768622 85.54723641 16.06866455 101.5177002 C16.05818131 105.31387747 16.05381513 109.11006223 16.04882812 112.90625 C16.03830491 120.27085493 16.02081658 127.63541566 16 135 C10.72 135 5.44 135 0 135 C0 90.45 0 45.9 0 0 Z " fill="#F05123" transform="translate(2158,1967)"/>
<path d="M0 0 C15 0 15 0 18.66796875 2.71875 C19.97436523 4.51904297 19.97436523 4.51904297 21.1875 6.5 C21.66195557 7.17562988 22.13641113 7.85125977 22.62524414 8.54736328 C23.62029842 9.966531 24.596083 11.39939332 25.55273438 12.84472656 C27.41352708 15.61582608 29.41814875 18.2594228 31.44165039 20.9128418 C32.95932028 22.90362243 34.45610421 24.90872182 35.94921875 26.91796875 C39.01665123 31.03315345 42.12767912 35.11386936 45.25 39.1875 C46.34246384 40.61326905 47.43491139 42.03905058 48.52734375 43.46484375 C49.08921387 44.19815918 49.65108398 44.93147461 50.22998047 45.68701172 C54.10956822 50.75669645 57.97541856 55.83686957 61.84228516 60.91625977 C65.25074507 65.39317051 68.66232533 69.86760922 72.08203125 74.3359375 C80.84832964 85.79907188 89.48432562 97.34941234 98 109 C97.96970703 108.00750244 97.93941406 107.01500488 97.90820312 105.99243164 C97.15287202 80.57625238 96.9078622 55.1755293 96.9375 29.75 C96.93835602 29.01040668 96.93921204 28.27081337 96.94009399 27.50880814 C96.9514947 18.33917845 96.97238073 9.16959627 97 0 C102.28 0 107.56 0 113 0 C113 44.55 113 89.1 113 135 C98 135 98 135 93.375 130.5625 C92.30421095 128.99563918 91.23612093 127.42627388 90.21337891 125.82763672 C87.8601877 122.28317206 85.17234531 118.98212638 82.5625 115.625 C81.44081511 114.15508862 80.32100648 112.68374348 79.203125 111.2109375 C76.41876663 107.54756944 73.62058969 103.89519719 70.8125 100.25 C70.01457031 99.21359375 69.21664062 98.1771875 68.39453125 97.109375 C67.60433594 96.08328125 66.81414063 95.0571875 66 94 C64.33304708 91.83355349 62.66652587 89.66677503 61 87.5 C60.16667453 86.41666062 59.3333412 85.33332728 58.5 84.25 C44.33333333 65.83333333 30.16666667 47.41666667 16 29 C16 63.98 16 98.96 16 135 C10.72 135 5.44 135 0 135 C0 90.45 0 45.9 0 0 Z " fill="#1D174A" transform="translate(2516,2187)"/>
<path d="M0 0 C78.63689482 0 78.63689482 0 95.8984375 16.83984375 C96.59195313 17.55269531 97.28546875 18.26554687 98 19 C98.54914063 19.51691406 99.09828125 20.03382812 99.6640625 20.56640625 C112.64419019 33.85888996 115.5222284 52.94574097 115.41796875 70.62426758 C115.01062074 87.63486576 110.03158047 104.6477562 97.96484375 117.234375 C70.1436689 142.23471502 37.58725921 135 0 135 C0 90.45 0 45.9 0 0 Z M16 16 C16 49.99 16 83.98 16 119 C53.63081853 121.73293795 53.63081853 121.73293795 84 107 C94.52797079 96.32830265 98.91836031 82.99739355 99.3125 68.25 C99.04510378 53.74768712 95.18075933 39.5938514 85.05078125 28.8125 C64.52628506 10.6727548 44.65944847 16 16 16 Z " fill="#F05123" transform="translate(243,1967)"/>
<path d="M0 0 C69.23469579 0 69.23469579 0 81.375 6.625 C82.03363037 6.97127441 82.69226074 7.31754883 83.37084961 7.67431641 C98.58541528 16.00774473 107.76463368 29.94360758 113.0390625 46.203125 C117.87171559 65.26274746 116.01846063 86.49642857 107 104 C104.84672929 107.48671816 102.49934689 110.75492722 100 114 C99.236875 115.051875 98.47375 116.10375 97.6875 117.1875 C88.07649343 127.24553013 76.29871392 131.67532152 63 135 C42.21 135 21.42 135 0 135 C0 90.45 0 45.9 0 0 Z M16 16 C16 50.32 16 84.64 16 120 C52.95757346 122.30822248 52.95757346 122.30822248 84 107 C95.08216344 94.82276112 99.50907714 80.32817776 99 64 C97.82968126 49.04088109 92.25130792 36.16422503 81 26 C61.13696122 11.43377156 41.67243029 16 16 16 Z " fill="#F05123" transform="translate(245,2187)"/>
<path d="M0 0 C2.54118544 2.52347683 4.83198015 5.15123672 7 8 C3.79239749 11.80635497 0.59253891 15.54563567 -3 19 C-6.06646047 17.6067752 -8.38049353 15.92909956 -10.9375 13.75 C-24.04520574 3.3892887 -38.77023179 0.59480971 -55 2 C-68.05732521 4.31975884 -79.8264931 11.54837818 -88 22 C-96.47988257 35.99261694 -99.32013102 50.50293063 -96.3125 66.703125 C-92.31988831 80.74380944 -84.44776361 91.42156071 -72 99 C-58.34538959 106.29782272 -43.1287328 108.65416671 -28.0625 104.375 C-16.45951468 100.21762574 -8.97547249 94.53968921 -3.1875 83.5625 C-1.7189347 79.15680411 -0.91076553 74.55382767 0 70 C-14.85 70 -29.7 70 -45 70 C-45 64.72 -45 59.44 -45 54 C-24.87 54 -4.74 54 16 54 C16 85.96263736 16 85.96263736 5 101 C4.29037109 101.98613281 4.29037109 101.98613281 3.56640625 102.9921875 C-5.89209059 115.04976138 -21.2273289 121.04345526 -36 123 C-57.44055525 124.75533734 -76.6789254 118.55770773 -93.625 105.3125 C-107.27742696 92.93691873 -114.00371447 76.10020772 -115.28125 58.01953125 C-115.9267683 39.72465212 -110.84579353 22.08965301 -98.87890625 8.0078125 C-98.25886719 7.34523438 -97.63882812 6.68265625 -97 6 C-96.30777344 5.25492188 -95.61554688 4.50984375 -94.90234375 3.7421875 C-69.761381 -21.02103124 -27.34960783 -21.0051847 0 0 Z " fill="#F05123" transform="translate(1446,1981)"/>
<path d="M0 0 C14.65945282 12.38430574 22.75884334 28.84696426 24.47265625 47.97265625 C25.7413282 67.53251067 21.43072965 86.78751319 8.6015625 102.046875 C-3.33392557 115.0054049 -18.6468833 123.62564024 -36.48828125 124.3984375 C-56.43981294 124.91752681 -73.28903886 121.0720819 -88.77734375 107.63671875 C-102.29867975 94.2403874 -109.25798266 77.02144718 -109.55395508 58.109375 C-109.62611097 36.60279599 -103.96064713 19.47377867 -89.1875 3.4375 C-65.24540375 -19.55680243 -25.77667047 -19.76857435 0 0 Z M-62.3125 5.125 C-63.42044922 5.61806641 -63.42044922 5.61806641 -64.55078125 6.12109375 C-78.08523683 12.87663375 -85.72339174 23.70673728 -90.55078125 37.6796875 C-94.60180316 50.68450655 -93.84543952 66.69743178 -88.3125 79.125 C-87.88839844 80.08535156 -87.46429687 81.04570312 -87.02734375 82.03515625 C-81.19468285 93.84670075 -71.82702889 101.93216286 -59.5625 106.4375 C-47.06540058 110.0018648 -32.06851077 110.00300539 -20.3125 104.125 C-17.1490958 102.31040924 -14.22285681 100.31831238 -11.3125 98.125 C-10.44625 97.5475 -9.58 96.97 -8.6875 96.375 C2.56782801 85.71205767 7.53094962 70.65775929 8.0625 55.5 C7.77869876 40.14134472 2.97275373 26.42790391 -7.75 15.1875 C-19.45514691 4.27057847 -31.93042322 1.29092853 -47.65234375 1.8046875 C-52.90242756 2.0947935 -57.51940351 2.90380894 -62.3125 5.125 Z " fill="#F05123" transform="translate(1088.3125,2199.875)"/>
<path d="M0 0 C6.54391174 5.66085547 6.54391174 5.66085547 8.17578125 8.73046875 C8.125 10.75390625 8.125 10.75390625 6.25390625 13.11328125 C5.40699219 13.9021875 4.56007813 14.69109375 3.6875 15.50390625 C2.84316406 16.303125 1.99882812 17.10234375 1.12890625 17.92578125 C0.13697266 18.83070313 0.13697266 18.83070313 -0.875 19.75390625 C-4.29861778 18.52624533 -6.02214043 17.61636193 -8.75 15.06640625 C-19.30219509 5.64810932 -33.5648286 2.2670653 -47.31640625 2.50390625 C-60.35242195 3.41971855 -72.40644119 8.72615558 -81.875 17.75390625 C-91.8795882 29.34876099 -96.41765089 43.56484853 -95.75 58.75390625 C-94.43172739 72.37106307 -88.91236685 84.77568227 -78.8125 94.19921875 C-64.57107814 105.62681129 -49.54627137 107.79317369 -31.875 106.75390625 C-22.23343256 105.26788797 -11.36272998 99.76247805 -5.46875 91.87109375 C-0.85521125 84.81667113 0.17012506 79.34778068 1.125 70.75390625 C-13.395 70.75390625 -27.915 70.75390625 -42.875 70.75390625 C-42.875 65.47390625 -42.875 60.19390625 -42.875 54.75390625 C-23.075 54.75390625 -3.275 54.75390625 17.125 54.75390625 C20.89528547 62.29447719 18.55046699 77.12456443 16.234375 84.9140625 C10.11959753 100.56703158 0.91136346 111.24047195 -14.3125 118.56640625 C-16.15299907 119.32941427 -18.00752863 120.05952253 -19.875 120.75390625 C-20.72835937 121.07359375 -21.58171875 121.39328125 -22.4609375 121.72265625 C-41.32747365 127.56101128 -61.84857822 123.9083208 -79.08935547 115.16333008 C-94.56478443 106.73274276 -105.15563957 92.43624556 -110.84375 75.9453125 C-116.14163101 57.08387501 -113.67707308 36.63231566 -104.5078125 19.46875 C-101.96818611 15.24616545 -99.11486515 11.46071427 -95.875 7.75390625 C-95.36582031 7.150625 -94.85664063 6.54734375 -94.33203125 5.92578125 C-71.08006038 -19.5652683 -26.48875267 -20.69433802 0 0 Z " fill="#1D174A" transform="translate(2298.875,2200.24609375)"/>
<path d="M0 0 C2.50348664 2.19631036 4.8500464 4.47271349 7.171875 6.859375 C7.87957031 7.54644531 8.58726563 8.23351563 9.31640625 8.94140625 C22.76094985 22.7972552 26.66555361 41.64903776 26.38671875 60.37109375 C25.74248272 79.01392403 18.20868485 96.93266298 4.609375 109.796875 C-10.95852878 122.96971666 -29.86101919 127.51553503 -49.828125 125.859375 C-67.58669992 123.47948435 -82.5214955 114.99653641 -93.953125 101.31640625 C-105.74289925 85.33414763 -110.00336567 65.37879969 -107.33203125 45.8203125 C-104.30573773 26.75785368 -95.51819731 10.0899678 -79.71875 -1.40234375 C-56.15130536 -16.65352503 -22.80205012 -17.25901031 0 0 Z M-79.828125 20.859375 C-90.42619828 34.87238301 -92.5038455 51.42368741 -90.390625 68.3671875 C-87.82931907 81.65396199 -80.95439701 93.4450742 -70.140625 101.546875 C-58.10865822 109.6348285 -43.83566659 111.59812846 -29.6875 109.36328125 C-14.09638643 105.42095682 -4.84539876 97.33811035 3.39453125 83.859375 C10.66570842 70.58878548 11.3147062 53.7533654 7.546875 39.296875 C3.34537986 26.66300851 -4.40931683 15.66747737 -16.17578125 9.140625 C-38.8438631 -1.80949407 -62.65081288 2.04863749 -79.828125 20.859375 Z " fill="#F05123" transform="translate(1615.828125,1978.140625)"/>
<path d="M0 0 C3.33926613 2.71854196 6.35965935 5.67763024 9.26953125 8.84765625 C7.79231703 12.29967264 5.83159124 14.49727561 3.14453125 17.09765625 C2.42007813 17.8040625 1.695625 18.51046875 0.94921875 19.23828125 C0.39492188 19.769375 -0.159375 20.30046875 -0.73046875 20.84765625 C-1.16875 20.49574219 -1.60703125 20.14382813 -2.05859375 19.78125 C-17.24426772 7.95988185 -32.42777969 1.81602822 -51.73046875 3.84765625 C-65.21073487 6.30787761 -77.53272858 13.2499401 -85.56640625 24.39453125 C-93.5517589 36.86111555 -96.42698446 51.18016681 -94.04296875 65.78515625 C-90.97229618 79.21934874 -84.12319791 90.88007235 -72.73046875 98.84765625 C-58.36038695 107.18773919 -43.13847678 110.80142608 -26.66796875 106.59765625 C-25.00844481 106.05449381 -23.36037135 105.47412464 -21.73046875 104.84765625 C-21.02792969 104.58082031 -20.32539062 104.31398438 -19.6015625 104.0390625 C-9.81808538 99.73126925 -3.62418908 92.64095284 0.26953125 82.84765625 C0.92953125 79.21765625 1.58953125 75.58765625 2.26953125 71.84765625 C-12.25046875 71.84765625 -26.77046875 71.84765625 -41.73046875 71.84765625 C-41.73046875 66.56765625 -41.73046875 61.28765625 -41.73046875 55.84765625 C-21.93046875 55.84765625 -2.13046875 55.84765625 18.26953125 55.84765625 C21.69694274 69.5573022 18.78728594 84.5773791 12.1796875 96.8671875 C2.98838019 111.20863428 -10.11153906 119.98228101 -26.73046875 123.84765625 C-45.48992124 127.68189277 -65.97892843 124.13238481 -82.03125 113.703125 C-97.05973653 102.71717034 -107.43505089 88.94154365 -111.33569336 70.40429688 C-114.57770888 49.40838683 -110.81656491 30.63081174 -98.8515625 13.09375 C-87.92889889 -1.35947154 -72.1037363 -9.7707755 -54.3828125 -12.70703125 C-35.10315933 -15.05770554 -15.8420737 -11.64481992 0 0 Z " fill="#F05123" transform="translate(627.73046875,1979.15234375)"/>
<path d="M0 0 C71.66179159 0 71.66179159 0 85 12 C94.41267427 21.94213719 96.4975909 33.21510214 96.2734375 46.4375 C95.86520674 56.28354102 91.76572419 63.95980424 85 71 C80.67323041 74.82462998 76.19319403 77.48074843 71 80 C71.43828125 80.76699219 71.8765625 81.53398437 72.328125 82.32421875 C73.27945313 83.98904297 73.27945313 83.98904297 74.25 85.6875 C74.60280029 86.30471924 74.95560059 86.92193848 75.3190918 87.55786133 C77.48655391 91.3501118 79.65238127 95.14328698 81.81640625 98.9375 C82.81502303 100.6875463 83.81372261 102.43754536 84.8125 104.1875 C85.31587891 105.06978271 85.81925781 105.95206543 86.33789062 106.86108398 C88.94725284 111.42870805 91.569333 115.98836102 94.21484375 120.53515625 C94.72490967 121.41212158 95.23497559 122.28908691 95.76049805 123.19262695 C96.7378619 124.87069389 97.71712882 126.54765415 98.69848633 128.22338867 C99.13314209 128.96951416 99.56779785 129.71563965 100.015625 130.484375 C100.40008789 131.14147461 100.78455078 131.79857422 101.18066406 132.47558594 C102 134 102 134 102 135 C98.95349368 135.24432377 95.92658981 135.42155414 92.875 135.5625 C92.0190625 135.63791016 91.163125 135.71332031 90.28125 135.79101562 C87.61091514 135.88345029 85.55671667 135.79065131 83 135 C80.2531775 132.40846662 78.71925286 129.33213254 77 126 C75.90280456 124.08232362 74.80376603 122.16570088 73.703125 120.25 C72.548748 118.16851293 71.39781314 116.08511383 70.25 114 C65.57811963 105.5693286 60.84270459 97.19345144 55.84472656 88.95117188 C53 84.20915529 53 84.20915529 53 82 C40.79 82 28.58 82 16 82 C16 99.49 16 116.98 16 135 C10.72 135 5.44 135 0 135 C0 90.45 0 45.9 0 0 Z M16 16 C16 32.83 16 49.66 16 67 C26.3640625 67.0928125 26.3640625 67.0928125 36.9375 67.1875 C39.10046631 67.21481201 41.26343262 67.24212402 43.49194336 67.27026367 C45.2329045 67.27903685 46.97387186 67.28667881 48.71484375 67.29296875 C49.59724731 67.30831665 50.47965088 67.32366455 51.38879395 67.33947754 C60.32352295 67.3431926 67.70808511 65.31215367 74.26953125 59.078125 C78.95458146 53.45183445 80.73148588 46.75666147 80.37890625 39.51171875 C79.14311014 31.31979198 75.64225034 24.95882579 69 20 C62.24544923 16.4201883 56.1762159 15.43305089 48.6171875 15.609375 C47.78195557 15.61340332 46.94672363 15.61743164 46.08618164 15.62158203 C43.01555893 15.64224834 39.94525346 15.69809028 36.875 15.75 C26.541875 15.87375 26.541875 15.87375 16 16 Z " fill="#F05123" transform="translate(2000,1967)"/>
<path d="M0 0 C6.27 0 12.54 0 19 0 C19.75953979 2.02338501 19.75953979 2.02338501 20.53442383 4.08764648 C29.9130364 29.05961826 39.33799015 54.01109265 49 78.875 C49.39334534 79.88747803 49.78669067 80.89995605 50.19195557 81.94311523 C53.76669531 91.14159181 57.35025829 100.33661574 60.93893433 109.52966309 C62.09409607 112.49055113 63.24690552 115.45235107 64.39916992 118.41436768 C65.16382814 120.37674968 65.93235712 122.33758338 66.70117188 124.29833984 C67.36536133 126.00497803 67.36536133 126.00497803 68.04296875 127.74609375 C68.61567505 129.21067017 68.61567505 129.21067017 69.19995117 130.70483398 C70 133 70 133 70 135 C64.06 135 58.12 135 52 135 C47.38 123.12 42.76 111.24 38 99 C18.53 99 -0.94 99 -21 99 C-25.23628819 110.4724002 -25.23628819 110.4724002 -29.46655273 121.94702148 C-29.99701392 123.38012671 -30.52768006 124.8131561 -31.05859375 126.24609375 C-31.33417114 126.99669067 -31.60974854 127.7472876 -31.89367676 128.52062988 C-33.8859282 133.8859282 -33.8859282 133.8859282 -35 135 C-37.86469325 135.07330331 -40.69893674 135.09217831 -43.5625 135.0625 C-45.0676244 135.05101114 -46.57275159 135.03988496 -48.07788086 135.02905273 C-49.37218018 135.01946533 -50.66647949 135.00987793 -52 135 C-48.21775181 124.05503271 -44.21298823 113.22382917 -39.96606445 102.45101929 C-38.23116422 98.04937309 -36.50640373 93.64375466 -34.78125 89.23828125 C-34.40786499 88.28520584 -34.03447998 87.33213043 -33.64978027 86.35017395 C-30.52377343 78.36117705 -27.4291829 70.36021072 -24.34375 62.35546875 C-24.10209106 61.72861301 -23.86043213 61.10175728 -23.6114502 60.45590591 C-21.43693911 54.81479524 -19.26382338 49.17314915 -17.09326172 43.53051758 C-11.49535776 28.97854515 -5.8257975 14.46240619 0 0 Z M8 19 C7.62302979 20.060979 7.24605957 21.12195801 6.85766602 22.21508789 C5.0970921 27.16582751 3.33100368 32.11458793 1.5625 37.0625 C1.24553162 37.94948578 0.92856323 38.83647156 0.60198975 39.75033569 C-3.58503245 51.45096245 -7.85747095 63.09777826 -12.50952148 74.62329102 C-12.84411377 75.45530029 -13.17870605 76.28730957 -13.5234375 77.14453125 C-13.81138184 77.84940674 -14.09932617 78.55428223 -14.39599609 79.28051758 C-15.11047277 81.01074764 -15.11047277 81.01074764 -15 83 C0.51 83 16.02 83 32 83 C31.08064668 78.4032334 29.72546956 74.2646014 28.0859375 69.90234375 C27.79520355 69.11897644 27.5044696 68.33560913 27.20492554 67.52850342 C26.26491663 64.99692798 25.32004593 62.4671989 24.375 59.9375 C23.0939303 56.49568895 21.81567198 53.05284273 20.5390625 49.609375 C20.07209961 48.35050728 20.07209961 48.35050728 19.59570312 47.06620789 C16.92484584 39.84378542 14.3625159 32.58592537 11.95458984 25.27124023 C10.90728664 21.40914429 10.90728664 21.40914429 8 19 Z " fill="#F05123" transform="translate(988,1967)"/>
<path d="M0 0 C6.27 0 12.54 0 19 0 C19.75953979 2.02338501 19.75953979 2.02338501 20.53442383 4.08764648 C29.9130364 29.05961826 39.33799015 54.01109265 49 78.875 C49.39334534 79.88747803 49.78669067 80.89995605 50.19195557 81.94311523 C53.76669531 91.14159181 57.35025829 100.33661574 60.93893433 109.52966309 C62.09409607 112.49055113 63.24690552 115.45235107 64.39916992 118.41436768 C65.16382814 120.37674968 65.93235712 122.33758338 66.70117188 124.29833984 C67.36536133 126.00497803 67.36536133 126.00497803 68.04296875 127.74609375 C68.61567505 129.21067017 68.61567505 129.21067017 69.19995117 130.70483398 C70 133 70 133 70 135 C64.06 135 58.12 135 52 135 C47.38 123.12 42.76 111.24 38 99 C8.795 98.505 8.795 98.505 -21 98 C-21.99 101.3 -22.98 104.6 -24 108 C-24.78679449 110.2198734 -25.59889575 112.43107501 -26.4453125 114.62890625 C-26.88230469 115.76521484 -27.31929687 116.90152344 -27.76953125 118.07226562 C-28.44048828 119.79993164 -28.44048828 119.79993164 -29.125 121.5625 C-29.58003906 122.74908203 -30.03507812 123.93566406 -30.50390625 125.15820312 C-33.86805556 133.86805556 -33.86805556 133.86805556 -35 135 C-37.69654854 135.07319621 -40.36691458 135.09242537 -43.0625 135.0625 C-43.82111328 135.05798828 -44.57972656 135.05347656 -45.36132812 135.04882812 C-47.24091871 135.0370068 -49.12046899 135.01907078 -51 135 C-50.38343694 130.18150152 -48.97502025 125.93065877 -47.17578125 121.44921875 C-46.8820311 120.70306808 -46.58828094 119.95691742 -46.28562927 119.18815613 C-45.64104591 117.55240575 -44.993843 115.91768579 -44.34436035 114.28387451 C-42.53113382 109.72142075 -40.73803751 105.15103925 -38.94140625 100.58203125 C-38.55173676 99.59267578 -38.16206726 98.60332031 -37.7605896 97.58398438 C-32.6932627 84.70570906 -27.72601446 71.78875781 -22.75 58.875 C-21.33602215 55.20772818 -19.92179782 51.54055148 -18.5075531 47.87338257 C-17.59907447 45.51764035 -16.6906766 43.16186699 -15.78236389 40.80606079 C-12.07073966 31.18030149 -8.35109019 21.55766798 -4.625 11.9375 C-4.37552612 11.29335144 -4.12605225 10.64920288 -3.86901855 9.98553467 C-2.57977353 6.65685712 -1.28998901 3.32838936 0 0 Z M8 19 C7.76514893 19.70044434 7.53029785 20.40088867 7.28833008 21.12255859 C1.60676001 37.99708039 -4.4492329 54.68802073 -10.88354492 71.29052734 C-11.15775772 71.99899811 -11.43197052 72.70746887 -11.7144928 73.43740845 C-12.23232277 74.77354145 -12.75188787 76.10900365 -13.27342224 77.44369507 C-14.48864248 80.14347308 -14.48864248 80.14347308 -15 83 C0.51 83 16.02 83 32 83 C31.08064668 78.4032334 29.72546956 74.2646014 28.0859375 69.90234375 C27.79520355 69.11897644 27.5044696 68.33560913 27.20492554 67.52850342 C26.26491663 64.99692798 25.32004593 62.4671989 24.375 59.9375 C23.0939303 56.49568895 21.81567198 53.05284273 20.5390625 49.609375 C20.07209961 48.35050728 20.07209961 48.35050728 19.59570312 47.06620789 C16.92484584 39.84378542 14.3625159 32.58592537 11.95458984 25.27124023 C10.90728664 21.40914429 10.90728664 21.40914429 8 19 Z " fill="#1D174A" transform="translate(2076,2187)"/>
<path d="M0 0 C27.39 0 54.78 0 83 0 C83 5.28 83 10.56 83 16 C60.89 16 38.78 16 16 16 C16 29.86 16 43.72 16 58 C34.48 58 52.96 58 72 58 C72 62.95 72 67.9 72 73 C53.52 73 35.04 73 16 73 C16 88.18 16 103.36 16 119 C38.11 119 60.22 119 83 119 C83 124.28 83 129.56 83 135 C55.61 135 28.22 135 0 135 C0 90.45 0 45.9 0 0 Z " fill="#F05123" transform="translate(2534,1967)"/>
<path d="M0 0 C27.39 0 54.78 0 83 0 C83 5.28 83 10.56 83 16 C60.89 16 38.78 16 16 16 C16 29.86 16 43.72 16 58 C34.48 58 52.96 58 72 58 C72 62.95 72 67.9 72 73 C53.52 73 35.04 73 16 73 C16 88.18 16 103.36 16 119 C38.11 119 60.22 119 83 119 C83 124.28 83 129.56 83 135 C55.61 135 28.22 135 0 135 C0 90.45 0 45.9 0 0 Z " fill="#F05123" transform="translate(1855,1967)"/>
<path d="M0 0 C27.39 0 54.78 0 83 0 C83 5.28 83 10.56 83 16 C60.89 16 38.78 16 16 16 C16 29.86 16 43.72 16 58 C34.48 58 52.96 58 72 58 C72 63.28 72 68.56 72 74 C53.52 74 35.04 74 16 74 C16 89.18 16 104.36 16 120 C38.11 120 60.22 120 83 120 C83 124.95 83 129.9 83 135 C55.61 135 28.22 135 0 135 C0 90.45 0 45.9 0 0 Z " fill="#1D174A" transform="translate(2374,2187)"/>
<path d="M0 0 C27.39 0 54.78 0 83 0 C83 5.28 83 10.56 83 16 C60.89 16 38.78 16 16 16 C16 29.86 16 43.72 16 58 C34.48 58 52.96 58 72 58 C72 63.28 72 68.56 72 74 C53.52 74 35.04 74 16 74 C16 89.18 16 104.36 16 120 C38.11 120 60.22 120 83 120 C83 124.95 83 129.9 83 135 C55.61 135 28.22 135 0 135 C0 90.45 0 45.9 0 0 Z " fill="#F05123" transform="translate(1506,2187)"/>
<path d="M0 0 C27.39 0 54.78 0 83 0 C83 5.28 83 10.56 83 16 C60.89 16 38.78 16 16 16 C16 29.86 16 43.72 16 58 C34.48 58 52.96 58 72 58 C72 63.28 72 68.56 72 74 C53.52 74 35.04 74 16 74 C16 89.18 16 104.36 16 120 C38.11 120 60.22 120 83 120 C83 124.95 83 129.9 83 135 C55.61 135 28.22 135 0 135 C0 90.45 0 45.9 0 0 Z " fill="#F05123" transform="translate(715,2187)"/>
<path d="M0 0 C27.39 0 54.78 0 83 0 C83 5.28 83 10.56 83 16 C60.89 16 38.78 16 16 16 C16 29.86 16 43.72 16 58 C34.48 58 52.96 58 72 58 C72 63.28 72 68.56 72 74 C53.52 74 35.04 74 16 74 C16 89.18 16 104.36 16 120 C37.78 120 59.56 120 82 120 C82 124.95 82 129.9 82 135 C54.94 135 27.88 135 0 135 C0 90.45 0 45.9 0 0 Z " fill="#F05123" transform="translate(415,2187)"/>
<path d="M0 0 C69.69444444 0 69.69444444 0 81 11 C88.89001886 21.03808682 92.90424555 32.15507602 92 45 C90.2519539 58.6745885 84.32842237 68.95081307 73.5390625 77.45703125 C66.3499867 81.82577731 60.1675682 82.42266994 51.9375 82.29296875 C50.56368164 82.28843689 50.56368164 82.28843689 49.16210938 82.28381348 C45.77462325 82.2682398 42.38729907 82.22635674 39 82.1875 C27.615 82.0946875 27.615 82.0946875 16 82 C16 99.49 16 116.98 16 135 C10.72 135 5.44 135 0 135 C0 90.45 0 45.9 0 0 Z M16 16 C16 32.83 16 49.66 16 67 C22.765 67.0825 29.53 67.165 36.5 67.25 C39.67979492 67.30462402 39.67979492 67.30462402 42.92382812 67.36035156 C44.62629182 67.37204691 46.3287668 67.38223673 48.03125 67.390625 C49.3301416 67.4213208 49.3301416 67.4213208 50.65527344 67.45263672 C57.49467268 67.45651833 62.87727405 65.86505505 67.98828125 61.17578125 C73.76971467 53.04084396 76.29144254 45.04132853 75 35 C72.97892 27.82916247 68.84439215 21.43767695 62.51464844 17.42407227 C57.88476538 15.54812701 53.95169398 15.62251098 49.0078125 15.70703125 C47.74892212 15.71156311 47.74892212 15.71156311 46.46459961 15.71618652 C43.35127334 15.73179675 40.23812338 15.77368043 37.125 15.8125 C30.15375 15.874375 23.1825 15.93625 16 16 Z " fill="#F05123" transform="translate(1168,2187)"/>
<path d="M0 0 C5.36404238 4.38124694 5.36404238 4.38124694 7 7 C6.90901616 11.04464511 4.21948953 13.08555932 1.4375 15.75 C0.61121094 16.54921875 -0.21507813 17.3484375 -1.06640625 18.171875 C-1.70449219 18.77515625 -2.34257812 19.3784375 -3 20 C-6 19 -6 19 -8.0625 16.875 C-17.16806425 7.49762786 -28.5855261 2.67246242 -41.5 1.75 C-55.43838481 2.01650831 -67.854602 7.13920225 -77.93359375 16.6953125 C-87.89197446 27.80201311 -91.8741397 42.71130229 -91.38671875 57.41796875 C-89.71509205 72.90162208 -84.48331769 85.21486802 -73 96 C-61.05475777 105.28191035 -46.70415068 107.54442585 -32 106 C-20.54284568 103.92913467 -11.95294281 98.16235424 -3 91 C-0.36 94.96 2.28 98.92 5 103 C0.21401538 112.57196925 -9.72038949 116.61757166 -19.3359375 120.265625 C-37.74454499 126.03609357 -57.61679582 124.41035209 -74.8125 115.8125 C-90.66702193 106.68885487 -101.85969301 91.80357447 -106.875 74.25 C-111.17043647 54.21352307 -109.48350773 32.84022834 -98.625 15.125 C-97.44341024 13.39806113 -96.23648415 11.68806966 -95 10 C-94.48953125 9.29359375 -93.9790625 8.5871875 -93.453125 7.859375 C-70.2308372 -21.34092748 -28.13081736 -20.36011319 0 0 Z " fill="#1D174A" transform="translate(2793,2201)"/>
<path d="M0 0 C5.94 0 11.88 0 18 0 C22.89112951 11.50102944 27.36899603 23.156546 31.875 34.8125 C32.71815945 36.98986708 33.56142239 39.16719408 34.40478516 41.34448242 C38.41941454 51.71381392 42.42225688 62.08760848 46.40625 72.46875 C46.74705597 73.35648605 47.08786194 74.24422211 47.43899536 75.15885925 C49.02567565 79.29278397 50.61027141 83.42748513 52.19091797 87.5637207 C55.3315662 95.76727145 58.55683822 103.91745603 62 112 C62.1948851 111.4263269 62.3897702 110.85265381 62.59056091 110.26159668 C67.72672096 95.19416017 73.25419092 80.31978876 79.0625 65.5 C80.3091004 62.30641743 81.55428755 59.11228635 82.79931641 55.91809082 C83.63674741 53.76971824 84.47463578 51.62152389 85.31298828 49.47351074 C88.07702121 42.38701807 90.81597111 35.29131567 93.53515625 28.1875 C93.88616898 27.27101685 94.2371817 26.35453369 94.59883118 25.41027832 C95.93433318 21.9219766 97.26926672 18.43346979 98.59939575 14.94311523 C99.4937264 12.59663591 100.39112114 10.25134941 101.2890625 7.90625 C101.55167374 7.21394287 101.81428497 6.52163574 102.08485413 5.80834961 C103.88649572 1.11350428 103.88649572 1.11350428 105 0 C106.34267413 -0.08631874 107.68974322 -0.10706473 109.03515625 -0.09765625 C109.84404297 -0.09443359 110.65292969 -0.09121094 111.48632812 -0.08789062 C112.33646484 -0.07951172 113.18660156 -0.07113281 114.0625 -0.0625 C114.91650391 -0.05798828 115.77050781 -0.05347656 116.65039062 -0.04882812 C118.76695663 -0.03700373 120.88348685 -0.01906769 123 0 C120.89146641 7.96383139 117.86098879 15.48770916 114.6778717 23.06995201 C113.10179757 26.82649204 111.54381792 30.59053635 109.984375 34.35400391 C109.65758003 35.14182975 109.33078506 35.92965559 108.99408722 36.74135494 C105.35362449 45.53277714 101.81185165 54.36322241 98.28125 63.19921875 C97.96158264 63.99881138 97.64191528 64.79840401 97.31256104 65.62222672 C95.36686887 70.4898153 93.42376055 75.35843142 91.48156738 80.22741699 C89.82495689 84.37934726 88.16629445 88.53045764 86.5078125 92.68164062 C84.3524701 98.07693374 82.19754211 103.47239119 80.04442596 108.86857319 C79.49722833 110.23952378 78.9496961 111.61034087 78.40180206 112.9810133 C77.02351646 116.42974847 75.65114201 119.88066843 74.2878418 123.33535767 C73.87412449 124.37989341 73.87412449 124.37989341 73.45204926 125.44553089 C72.92667612 126.77219857 72.40330949 128.09966314 71.8822403 129.42802715 C70.11263091 133.88736909 70.11263091 133.88736909 69 135 C66.13732433 135.07325168 63.299281 135.09238205 60.4375 135.0625 C59.63119141 135.05798828 58.82488281 135.05347656 57.99414062 135.04882812 C55.99606244 135.03700518 53.99802217 135.01906914 52 135 C28.17284824 74.26588801 28.17284824 74.26588801 17.16656494 46.09936523 C15.04925148 40.68144401 12.92826392 35.26497969 10.80447388 29.84959412 C9.47145525 26.44871474 8.14120884 23.04675608 6.81170654 19.64450073 C6.192816 18.06243228 5.57276072 16.48081891 4.95147705 14.89968872 C4.10777493 12.75203337 3.26820805 10.60280763 2.4296875 8.453125 C1.95772949 7.24817383 1.48577148 6.04322266 0.99951172 4.80175781 C0 2 0 2 0 0 Z " fill="#F05123" transform="translate(542,2187)"/>
<path d="M0 0 C5.94 0 11.88 0 18 0 C22.81826207 11.33878439 27.24358445 22.82310228 31.6875 34.3125 C32.52068403 36.46242867 33.3539371 38.61233058 34.18725586 40.76220703 C38.5470784 52.01926538 42.88024012 63.28614842 47.1796875 74.56640625 C47.59332047 75.65071426 48.00695343 76.73502228 48.43312073 77.85218811 C50.42293857 83.06924106 52.40868862 88.28777696 54.38745117 93.5090332 C55.10321977 95.38888532 55.81911445 97.26868943 56.53515625 99.1484375 C56.85825775 100.00550797 57.18135925 100.86257843 57.51425171 101.74562073 C57.81384796 102.53001022 58.11344421 103.31439972 58.42211914 104.12255859 C58.68013809 104.80305267 58.93815704 105.48354675 59.20399475 106.18466187 C60.05806524 108.27546176 60.05806524 108.27546176 62 111 C62.21914062 110.36650635 62.43828125 109.7330127 62.6640625 109.08032227 C69.55483674 89.26059281 77.09247811 69.72413901 84.77827454 50.20179749 C87.38695387 43.57240482 89.97320384 36.93450995 92.55078125 30.29296875 C93.29276493 28.38304069 94.0347891 26.47312836 94.77685547 24.56323242 C95.85280225 21.7938959 96.9280843 19.02431251 98.0010376 16.2538147 C98.98656653 13.70993377 99.97533138 11.16733357 100.96484375 8.625 C101.40586174 7.48281258 101.40586174 7.48281258 101.85578918 6.31755066 C103.88609937 1.11390063 103.88609937 1.11390063 105 0 C106.34267413 -0.08631874 107.68974322 -0.10706473 109.03515625 -0.09765625 C109.84404297 -0.09443359 110.65292969 -0.09121094 111.48632812 -0.08789062 C112.33646484 -0.07951172 113.18660156 -0.07113281 114.0625 -0.0625 C114.91650391 -0.05798828 115.77050781 -0.05347656 116.65039062 -0.04882812 C118.76695663 -0.03700373 120.88348685 -0.01906769 123 0 C118.80964182 11.32116999 114.43399566 22.5573876 109.94140625 33.76171875 C109.26834122 35.44378158 108.59540646 37.12589655 107.92259216 38.80805969 C106.5159515 42.32388494 105.10816962 45.83925013 103.69946289 49.35424805 C101.94337058 53.73612316 100.18946845 58.11887039 98.43634987 62.50193596 C91.16968351 80.66834097 83.87347859 98.82260548 76.52734375 116.95703125 C76.03752612 118.16710122 76.03752612 118.16710122 75.53781319 119.40161705 C74.62502541 121.65590377 73.71106407 123.90971039 72.79663086 126.16333008 C72.52631231 126.83106508 72.25599377 127.49880009 71.97748375 128.18676949 C71.04096324 130.49146931 70.11303107 132.77393785 69 135 C63.39 135 57.78 135 52 135 C41.96920348 109.77268795 31.99385613 84.52658718 22.24462891 59.18896484 C18.65083536 49.85098351 15.03756579 40.52134951 11.3828125 31.20703125 C11.00720688 30.24892044 10.63160126 29.29080963 10.24461365 28.30366516 C8.44168701 23.70544749 6.63533923 19.10862363 4.82348633 14.51391602 C4.18296333 12.88172895 3.54257473 11.24948913 2.90234375 9.6171875 C2.60639313 8.87052322 2.3104425 8.12385895 2.00552368 7.35456848 C0 2.22708587 0 2.22708587 0 0 Z " fill="#F05123" transform="translate(1679,1967)"/>
<path d="M0 0 C6.35818778 -1.08767309 12.73959668 -1.98672884 19 0 C24.20606909 3.86673769 27.27862148 9.89234286 30.47167969 15.41259766 C32.93718054 19.58661971 35.73094394 23.52389831 38.5 27.5 C39.57264496 29.07351685 40.64425708 30.64773826 41.71484375 32.22265625 C45.10254229 37.1720236 48.56370284 42.06615882 52.0625 46.9375 C52.59875 47.68902344 53.135 48.44054688 53.6875 49.21484375 C56.24546616 52.75564169 58.76708819 56.03068292 62 59 C62.22042969 58.34128906 62.44085937 57.68257812 62.66796875 57.00390625 C64.44714092 52.99163822 66.84095527 49.553366 69.3125 45.9375 C70.40082553 44.32625381 71.48802457 42.71424627 72.57421875 41.1015625 C73.13802246 40.2652832 73.70182617 39.42900391 74.28271484 38.56738281 C77.10748112 34.34428895 79.86550131 30.07841153 82.625 25.8125 C86.634912 19.62447534 90.66393663 13.45056556 94.75 7.3125 C95.16846191 6.68255127 95.58692383 6.05260254 96.01806641 5.40356445 C98.87584073 1.12415927 98.87584073 1.12415927 100 0 C101.34267413 -0.08631874 102.68974322 -0.10706473 104.03515625 -0.09765625 C104.84404297 -0.09443359 105.65292969 -0.09121094 106.48632812 -0.08789062 C107.33646484 -0.07951172 108.18660156 -0.07113281 109.0625 -0.0625 C109.91650391 -0.05798828 110.77050781 -0.05347656 111.65039062 -0.04882812 C113.76695663 -0.03700373 115.88348685 -0.01906769 118 0 C116.75193939 3.33827236 115.34444223 6.23879209 113.38061523 9.20996094 C112.59224525 10.40972565 112.59224525 10.40972565 111.78794861 11.63372803 C111.21726151 12.49194153 110.6465744 13.35015503 110.05859375 14.234375 C109.15778831 15.5997641 109.15778831 15.5997641 108.23878479 16.99273682 C106.95891654 18.93080386 105.67686938 20.86743347 104.39282227 22.80273438 C102.49222693 25.66750986 100.59799642 28.53639779 98.70507812 31.40625 C98.0852153 32.34206406 97.46535248 33.27787811 96.82670593 34.24205017 C95.55270295 36.17166661 94.28656099 38.10649377 93.02790833 40.04615784 C89.65714345 45.19708436 86.1674345 50.11233844 82.29760742 54.90209961 C69.66376644 70.96993444 67.61122237 84.33025891 68.36914062 103.99389648 C68.48525424 107.5075773 68.50022861 111.02180954 68.52539062 114.53710938 C68.58831993 121.36214904 68.76665816 128.17867216 69 135 C63.72 135 58.44 135 53 135 C53.03778564 133.31221436 53.07557129 131.62442871 53.11450195 129.88549805 C53.22538052 124.22565218 53.27381302 118.56741414 53.28240681 112.906497 C53.2897793 109.48300475 53.32000185 106.06331446 53.40795898 102.64086914 C53.80844298 84.86654306 52.71391828 72.55166488 40.68110657 58.93164062 C37.92738585 55.76753496 35.48926244 52.37277099 33 49 C32.01060947 47.69417851 31.0198952 46.389358 30.02734375 45.0859375 C26.15795727 39.92591609 22.56051067 34.58415194 18.95214844 29.23999023 C14.47914911 22.63496908 9.82323089 16.17631531 5.04907227 9.78564453 C4.27454712 8.73352783 4.27454712 8.73352783 3.484375 7.66015625 C3.02772461 7.04793213 2.57107422 6.43570801 2.10058594 5.80493164 C0.92568675 3.87812825 0.42908279 2.20467112 0 0 Z " fill="#1D174A" transform="translate(2836,2187)"/>
<path d="M0 0 C19.8 0 39.6 0 60 0 C60 4.95 60 9.9 60 15 C52.74 15 45.48 15 38 15 C38 49.65 38 84.3 38 120 C45.26 120 52.52 120 60 120 C60 124.95 60 129.9 60 135 C40.2 135 20.4 135 0 135 C0 130.05 0 125.1 0 120 C7.26 120 14.52 120 22 120 C22 85.35 22 50.7 22 15 C14.74 15 7.48 15 0 15 C0 10.05 0 5.1 0 0 Z " fill="#F05123" transform="translate(695,1967)"/>
<path d="M0 0 C19.8 0 39.6 0 60 0 C60 4.95 60 9.9 60 15 C52.74 15 45.48 15 38 15 C38 49.65 38 84.3 38 120 C45.26 120 52.52 120 60 120 C60 124.95 60 129.9 60 135 C40.2 135 20.4 135 0 135 C0 130.05 0 125.1 0 120 C7.26 120 14.52 120 22 120 C22 85.35 22 50.7 22 15 C14.74 15 7.48 15 0 15 C0 10.05 0 5.1 0 0 Z " fill="#F05123" transform="translate(407,1967)"/>
<path d="M0 0 C31.35 0 62.7 0 95 0 C95 5.28 95 10.56 95 16 C81.8 16 68.6 16 55 16 C55 55.27 55 94.54 55 135 C49.72 135 44.44 135 39 135 C39 95.73 39 56.46 39 16 C26.13 16 13.26 16 0 16 C0 10.72 0 5.44 0 0 Z " fill="#F05123" transform="translate(1813,2187)"/>
<path d="M0 0 C31.35 0 62.7 0 95 0 C95 5.28 95 10.56 95 16 C81.8 16 68.6 16 55 16 C55 55.27 55 94.54 55 135 C49.72 135 44.44 135 39 135 C39 95.73 39 56.46 39 16 C26.13 16 13.26 16 0 16 C0 10.72 0 5.44 0 0 Z " fill="#F05123" transform="translate(2847,1967)"/>
<path d="M0 0 C31.02 0 62.04 0 94 0 C94 5.28 94 10.56 94 16 C80.8 16 67.6 16 54 16 C54 55.27 54 94.54 54 135 C48.72 135 43.44 135 38 135 C38 95.73 38 56.46 38 16 C25.46 16 12.92 16 0 16 C0 10.72 0 5.44 0 0 Z " fill="#F05123" transform="translate(803,1967)"/>
<path d="M0 0 C5.28 0 10.56 0 16 0 C16 39.27 16 78.54 16 119 C37.45 119 58.9 119 81 119 C81 124.28 81 129.56 81 135 C54.27 135 27.54 135 0 135 C0 90.45 0 45.9 0 0 Z " fill="#F05123" transform="translate(1115,1967)"/>
<path d="M0 0 C5.28 0 10.56 0 16 0 C16 39.6 16 79.2 16 120 C37.45 120 58.9 120 81 120 C81 124.95 81 129.9 81 135 C54.27 135 27.54 135 0 135 C0 90.45 0 45.9 0 0 Z " fill="#F05123" transform="translate(857,2187)"/>
</svg>
