<?xml version="1.0" encoding="UTF-8"?>
<svg version="1.1" xmlns="http://www.w3.org/2000/svg" width="1024" height="1024">
<path d="M0 0 C337.92 0 675.84 0 1024 0 C1024 337.92 1024 675.84 1024 1024 C686.08 1024 348.16 1024 0 1024 C0 686.08 0 348.16 0 0 Z " fill="#F7F7F7" transform="translate(0,0)"/>
<path d="M0 0 C5.06629112 3.65619021 9.10764391 8.16085459 13 13 C14.65365623 14.67957633 16.32211366 16.34462905 18 18 C18.85939178 18.85717117 19.71878357 19.71434235 20.60421753 20.5974884 C21.53130524 21.52155991 22.45839294 22.44563141 23.41357422 23.39770508 C28.6679494 28.63572922 33.9197714 33.87630546 39.17014885 39.11833668 C42.33720425 42.28017534 45.50518854 45.44107162 48.67529297 48.59985352 C51.75666226 51.67029334 54.83552429 54.74322747 57.91272354 57.8178463 C59.07830322 58.9815928 60.24475561 60.14446595 61.41213608 61.30640602 C66.91969477 66.78930464 72.35778262 72.27321569 77.40963745 78.1860199 C80.28622757 81.46708134 83.40390997 84.5061498 86.5078125 87.5703125 C87.19632294 88.25503632 87.88483337 88.93976013 88.59420776 89.64523315 C90.76869554 91.80763239 92.94641667 93.96672755 95.125 96.125 C98.00554906 98.97882428 100.88267795 101.83603448 103.7578125 104.6953125 C104.41000763 105.33920929 105.06220276 105.98310608 105.73416138 106.64651489 C107.50975103 108.41260926 109.26294895 110.19603546 111 112 C111.51038315 112.5278006 112.0207663 113.0556012 112.5466156 113.59939575 C114.62315654 115.88836415 115.91448775 117.57833749 116.53442383 120.63525391 C116.48825928 121.53163574 116.44209473 122.42801758 116.39453125 123.3515625 C116.32613037 124.92212402 116.32613037 124.92212402 116.25634766 126.52441406 C116.17175293 127.67135742 116.0871582 128.81830078 116 130 C115.91669434 131.24233398 115.83338867 132.48466797 115.74755859 133.76464844 C115.49697766 137.25035913 115.19765501 140.73047374 114.88305664 144.2109375 C114.69342174 146.30946905 114.51097531 148.40851183 114.33007812 150.5078125 C113.49916328 160.020296 112.54823965 169.51955451 111.5859375 179.01953125 C109.96733122 195.04326402 108.53234492 211.08111481 107.12921143 227.12493896 C106.87270411 230.05186627 106.61411512 232.97860815 106.35552025 235.90535164 C106.03667502 239.51622992 105.71931008 243.1272376 105.40234375 246.73828125 C105.34110699 247.43511143 105.27987022 248.1319416 105.2167778 248.84988785 C104.58117625 256.09722752 103.96523317 263.34532927 103.40673828 270.59912109 C103.31662979 271.76670456 103.2265213 272.93428802 103.13368225 274.13725281 C102.96825466 276.30802307 102.8066065 278.47908589 102.6493988 280.65046692 C102.57761917 281.59749985 102.50583954 282.54453278 102.43188477 283.52026367 C102.34210106 284.75397957 102.34210106 284.75397957 102.25050354 286.01261902 C102 288 102 288 101 290 C98.01419055 290.54396128 95.06877903 290.98556368 92.0625 291.375 C80.93430199 292.99883062 71.6998054 295.21295356 64 304 C62.33184643 306.566772 61.07994545 309.13974843 60 312 C59.66030182 312.88841583 59.32060364 313.77683167 58.97061157 314.69216919 C57.9169728 318.28295556 57.72222913 321.2771492 57.68115234 325.01513672 C57.67110672 325.68900925 57.6610611 326.36288177 57.65071106 327.05717468 C57.62004156 329.26467098 57.60288977 331.47204693 57.5859375 333.6796875 C57.56721273 335.21811955 57.54763835 336.75654147 57.5272522 338.29495239 C57.4760631 342.32916272 57.43636696 346.36340629 57.39910889 350.39776611 C57.358986 354.5204685 57.30793158 358.64303416 57.2578125 362.765625 C57.16120992 370.84365637 57.07675541 378.92175578 57 387 C25.52545129 387.1140742 -5.94903859 387.20255407 -37.42374573 387.25532665 C-41.14000075 387.26158015 -44.85625536 387.26805176 -48.57250977 387.2746582 C-49.31234606 387.27596976 -50.05218235 387.27728131 -50.81443792 387.2786326 C-62.79224623 387.30038648 -74.7699345 387.33980786 -86.74767161 387.38576398 C-99.0388428 387.43252921 -111.32995115 387.46029552 -123.62120765 387.47044247 C-131.20503771 387.47730154 -138.78852846 387.49896128 -146.37225407 387.53958233 C-152.18845114 387.56914808 -158.00443102 387.57227396 -163.82068825 387.56553841 C-166.20596659 387.56691496 -168.59125767 387.57687405 -170.9764595 387.59602737 C-174.23250611 387.62089308 -177.4870993 387.61492759 -180.74317932 387.60127258 C-181.68774461 387.61583679 -182.6323099 387.630401 -183.60549837 387.64540654 C-190.00866287 387.57278904 -193.16366657 386.23207418 -198 382 C-200.57761156 378.60252503 -200.25951972 375.12161057 -200.2746582 370.95361328 C-200.2823246 369.89848289 -200.2823246 369.89848289 -200.29014587 368.82203674 C-200.30407051 366.48804229 -200.30307758 364.15434372 -200.30078125 361.8203125 C-200.30467744 360.17153823 -200.30901398 358.52276495 -200.31376648 356.87399292 C-200.32124265 353.39870992 -200.32093519 349.92352832 -200.31567383 346.44824219 C-200.31110766 342.94583062 -200.31770234 339.44377152 -200.33618164 335.94140625 C-200.45049904 314.08746934 -199.84198404 292.69586521 -197 271 C-196.89295746 270.17381165 -196.78591492 269.34762329 -196.67562866 268.49639893 C-196.10759134 264.22930964 -195.43522059 259.9889835 -194.6875 255.75 C-194.47730225 254.52659912 -194.26710449 253.30319824 -194.05053711 252.04272461 C-192.03041554 240.60374006 -189.5327413 229.29590278 -186.74414062 218.02148438 C-186.03407129 215.13834196 -185.35138849 212.24984283 -184.671875 209.359375 C-174.78604184 168.39193438 -157.37067595 128.80177382 -133.0625 94.375 C-132.54453857 93.6413623 -132.02657715 92.90772461 -131.49291992 92.15185547 C-128.20874865 87.55554677 -124.78252246 83.23341246 -120.921875 79.1015625 C-118.68388985 76.65433484 -116.63226952 74.09078047 -114.5625 71.5 C-108.08861815 63.53556803 -100.79411424 56.6459345 -93 50 C-92.10152344 49.20078125 -91.20304687 48.4015625 -90.27734375 47.578125 C-75.76718041 34.78918676 -20.79262804 -9.15917436 0 0 Z " fill="#010101" transform="translate(320,409)"/>
<path d="M0 0 C1.63388672 0.50853516 1.63388672 0.50853516 3.30078125 1.02734375 C20.85093031 7.04882346 36.34736033 19.74204966 50.82714844 31.04345703 C54.68606536 34.03879967 58.62962272 36.89446233 62.61254883 39.72241211 C88.25701747 57.95063938 108.59872665 78.20905138 118 109 C118.37640625 110.21171875 118.7528125 111.4234375 119.140625 112.671875 C123.55765125 131.1344579 120.56790784 151.10997204 111.625 167.5625 C104.28410552 179.22899683 94.36429887 185.75844666 81 189 C81 188.34 81 187.68 81 187 C82.0828125 186.01 82.0828125 186.01 83.1875 185 C88.81872547 179.46530982 91.31193032 173.08925127 91.5625 165.25 C91.33726355 160.06956166 90.73184367 156.83005008 87 153 C83.99709822 150.73250274 81.56500652 149.18833551 78 148 C77.98582031 148.78761719 77.97164062 149.57523438 77.95703125 150.38671875 C77.38336932 163.48791699 73.4506813 174.73666658 63.98046875 183.96875 C60.78873594 186.85848211 57.87860271 189.12267164 54 191 C54.45614841 194.70860541 54.91511556 198.41685608 55.375 202.125 C55.51075439 203.22344238 55.64650879 204.32188477 55.78637695 205.45361328 C56.51200309 211.27492861 57.29211803 217.07756276 58.1875 222.875 C59.92256554 235.0204588 59.92256554 235.0204588 59 239 C56.62629524 241.77560186 54.38039857 242.21291809 50.890625 242.51171875 C49.34434821 242.58440698 47.79733285 242.64259399 46.25 242.6875 C45.45722656 242.72166016 44.66445313 242.75582031 43.84765625 242.79101562 C41.89892496 242.87319104 39.94948638 242.93828045 38 243 C37.8040625 244.04800781 37.608125 245.09601563 37.40625 246.17578125 C35.11633421 257.06016131 35.11633421 257.06016131 32.0234375 259.6640625 C29.37072412 260.61903932 26.81991975 261 24 261 C24 263.97 24 266.94 24 270 C22.5437455 270.67119549 21.08492133 271.33681807 19.625 272 C18.81289063 272.37125 18.00078125 272.7425 17.1640625 273.125 C15 274 15 274 13 274 C12.99742187 274.64066406 12.99484375 275.28132813 12.9921875 275.94140625 C12.72777136 281.85551392 11.81838377 285.40721354 7.60546875 289.66015625 C4.37813959 292.35352341 1.81564138 292.90766324 -2.3125 293.375 C-11.6750761 292.42287362 -17.4005386 286.20814718 -24 280 C-25.32708639 278.8262323 -26.65999433 277.65899684 -28 276.5 C-31.84690504 273.14747633 -35.64248752 269.74048985 -39.42578125 266.31640625 C-41.12067586 264.79125829 -42.82622056 263.27785023 -44.54296875 261.77734375 C-58.12279449 249.8397295 -69.56248288 236.46191044 -71.3034668 217.73591614 C-71.44261744 214.14667368 -71.4942354 210.56848979 -71.50390625 206.9765625 C-71.51389145 205.6722226 -71.52387665 204.36788269 -71.53416443 203.02401733 C-71.55197228 200.28595499 -71.55770021 197.54817462 -71.5559082 194.81005859 C-71.55560115 191.30923409 -71.5968458 187.81020534 -71.64822483 184.30980873 C-71.6896108 180.94869855 -71.687848 177.58792416 -71.69140625 174.2265625 C-71.7129628 172.97444977 -71.73451935 171.72233704 -71.75672913 170.43228149 C-71.69040362 162.05804469 -71.69040362 162.05804469 -69.74508667 159.07684326 C-66.94590427 156.57527398 -65.12148233 156.00418905 -61.375 155.875 C-57.24495552 157.25168149 -56.25388327 158.30305227 -54 162 C-53.4606655 164.99977556 -53.43996952 167.95755113 -53.4375 171 C-53.48145366 178.49374133 -53.48145366 178.49374133 -50 185 C-47.15916359 186.42041821 -45.14522722 186.31452272 -42 186 C-39.60747335 184.7516441 -39.60747335 184.7516441 -38 182 C-37.41619864 178.24382205 -37.48872991 174.54321044 -37.5625 170.75 C-37.55541016 169.73808594 -37.54832031 168.72617187 -37.54101562 167.68359375 C-37.61185193 159.28131842 -38.92139136 152.25228318 -45 146 C-52.3214737 140.42931349 -58.97392873 139.17828085 -68 140 C-73.44719997 141.19595471 -78.37636985 143.67006905 -82 148 C-86.07778901 154.68977819 -88.1040434 160.62345227 -88.16113281 168.47021484 C-88.17074036 169.54258392 -88.1803479 170.614953 -88.19024658 171.71981812 C-88.19449646 172.87188751 -88.19874634 174.02395691 -88.203125 175.2109375 C-88.20882507 176.41126617 -88.21452515 177.61159485 -88.22039795 178.84829712 C-88.22984061 181.39185712 -88.23637901 183.9354293 -88.24023438 186.47900391 C-88.24987736 190.32607154 -88.28088266 194.17259034 -88.3125 198.01953125 C-88.45665618 220.93512706 -88.45665618 220.93512706 -81.5 242.5625 C-81.16033203 243.2630249 -80.82066406 243.9635498 -80.47070312 244.68530273 C-73.59692478 258.22609469 -62.90294015 269.68198604 -50.6875 278.5546875 C-50.130625 279.03164063 -49.57375 279.50859375 -49 280 C-49 280.66 -49 281.32 -49 282 C-50.53195272 283.37212301 -52.12921081 284.6715446 -53.75 285.9375 C-57.98581741 289.3207234 -62.03884147 292.80071482 -66 296.5 C-69.8291158 300.06833607 -73.73090411 303.46685584 -77.8125 306.75 C-81.59275791 309.79158683 -85.05851359 312.95405219 -88.4453125 316.421875 C-90.85932597 318.87228063 -93.1878168 321.00022528 -96 323 C-99.21094695 322.99312431 -100.22369959 321.78283932 -102.5390625 319.53515625 C-103.57407348 318.38329196 -104.6021068 317.22513862 -105.625 316.0625 C-113.18191812 307.7044579 -121.14794614 299.78207568 -129.1572876 291.86184692 C-130.27761833 290.75391129 -131.39697054 289.64498523 -132.51530457 288.53503418 C-133.5413828 287.51672682 -134.56958952 286.50055679 -135.60054016 285.48718262 C-138.31992931 282.78654946 -140.88964668 280.00613101 -143.39379883 277.10400391 C-146.94277203 273.00789595 -150.7137165 269.19141281 -154.578125 265.39453125 C-156.00013049 263.98515769 -157.42200161 262.57564855 -158.84375 261.16601562 C-161.05604567 258.97861321 -163.26993159 256.79286651 -165.48632812 254.60961914 C-167.64633345 252.47982534 -169.80006707 250.34384485 -171.953125 248.20703125 C-172.6156427 247.55797318 -173.2781604 246.9089151 -173.96075439 246.2401886 C-177.18425167 243.03431941 -179.88852322 240.08429667 -182 236 C-177.87911351 231.76321358 -173.64289702 227.7431955 -169.16796875 223.8828125 C-166.75157049 221.7842468 -164.37470976 219.645603 -162 217.5 C-159.04130249 214.82951656 -156.07073528 212.17701942 -153.0625 209.5625 C-147.96622486 205.12549659 -142.98838733 200.55740534 -138 196 C-139.32237272 193.04216416 -140.76116522 191.14116056 -143.07846069 188.9024353 C-146.9799981 184.42600744 -146.83619934 180.29938895 -146.74462891 174.56103516 C-146.75193024 173.53393433 -146.75923157 172.5068335 -146.76675415 171.4486084 C-146.78292953 168.06141425 -146.75576045 164.67614633 -146.7265625 161.2890625 C-146.72552404 158.91840618 -146.72656431 156.54774813 -146.72958374 154.17709351 C-146.7294044 149.20552884 -146.70858374 144.23461344 -146.67236328 139.26318359 C-146.62723628 132.9344759 -146.62585674 126.60672647 -146.63939857 120.2779026 C-146.64613331 115.37718409 -146.63271122 110.47667816 -146.61314011 105.57600021 C-146.60551174 103.24554945 -146.6031078 100.91507485 -146.6063118 98.5846138 C-146.61176773 74.82845728 -143.55981103 54.13259961 -126.63256836 36.36816406 C-117.75709626 27.53014121 -106.3218132 21.5075718 -94 19 C-91.92871094 19.04516602 -91.92871094 19.04516602 -89.734375 19.25390625 C-80.54288152 20.22314368 -80.54288152 20.22314368 -72.32421875 17.0234375 C-70.39845626 14.45391164 -70.39845626 14.45391164 -68.73046875 11.671875 C-63.41387071 3.46295162 -51.90719051 -1.39990359 -42.65087891 -3.54418945 C-28.51857189 -5.97419656 -13.50581988 -4.54191279 0 0 Z " fill="#010101" transform="translate(528,173)"/>
<path d="M0 0 C3 2 3 2 5 5 C6.13983177 11.94416436 3.99131199 18.20105047 1.75 24.6875 C1.01143725 26.90572337 0.27457064 29.12451193 -0.4609375 31.34375 C-1.06953613 33.16519531 -1.06953613 33.16519531 -1.69042969 35.0234375 C-3.12311799 39.34511367 -4.49075155 43.6864908 -5.8515625 48.03125 C-6.09672104 48.81391739 -6.34187958 49.59658478 -6.59446716 50.40296936 C-7.0986129 52.01332835 -7.60263477 53.62372613 -8.10653687 55.23416138 C-11.9321881 67.44765284 -15.84018053 79.62464695 -19.9375 91.75 C-23.99739905 103.77227923 -27.77646115 115.86981979 -31.5 128 C-35.22354227 140.13019135 -39.00290662 152.22761133 -43.0625 164.25 C-46.75012333 175.17126763 -50.29248201 186.12908833 -53.75 197.125 C-53.9979129 197.91295959 -54.24582581 198.70091919 -54.50125122 199.51275635 C-55.52782765 202.77599358 -56.55393552 206.03937767 -57.57945251 209.302948 C-64.88261292 232.54123397 -72.20784087 255.77496832 -79.85058594 278.90423584 C-80.35939364 280.44545641 -80.86628919 281.98730981 -81.37109375 283.52984619 C-87.75296357 303.00263429 -87.75296357 303.00263429 -92.8125 307.5 C-96.761256 309.35823812 -98.63929281 309.49455752 -103 309 C-106.70377084 307.41152355 -110.10700491 305.37785339 -113.5625 303.3125 C-114.57119141 302.72597656 -115.57988281 302.13945313 -116.61914062 301.53515625 C-119.75573563 299.7059644 -122.87898105 297.85562086 -126 296 C-127.86302704 294.89930919 -129.72629863 293.79903219 -131.58984375 292.69921875 C-134.30551448 291.09460423 -137.0199888 289.48811428 -139.73120117 287.87597656 C-146.23111709 284.01706694 -152.78600625 280.26695002 -159.375 276.5625 C-162.24299956 274.94328091 -165.11053052 273.32323419 -167.97802734 271.703125 C-170.07782464 270.51972009 -172.17988145 269.34031907 -174.28369141 268.1640625 C-177.59272935 266.31027051 -180.89079111 264.43811057 -184.1875 262.5625 C-185.20956543 261.99539307 -186.23163086 261.42828613 -187.28466797 260.84399414 C-196.79862129 255.39099244 -196.79862129 255.39099244 -199 250 C-198.86788381 244.48414922 -197.44378571 239.77201605 -195.5 234.625 C-194.94547999 233.10457999 -194.39217024 231.58371823 -193.83984375 230.0625 C-193.54062012 229.24394531 -193.24139648 228.42539062 -192.93310547 227.58203125 C-191.25827348 222.94754064 -189.66600577 218.28454265 -188.0625 213.625 C-185.19481291 205.31488127 -182.30751447 197.01191856 -179.40234375 188.71484375 C-170.38390571 162.97344609 -170.38390571 162.97344609 -161.70117188 137.11743164 C-161.38212891 136.14668701 -161.06308594 135.17594238 -160.734375 134.17578125 C-160.46850586 133.36020752 -160.20263672 132.54463379 -159.92871094 131.7043457 C-159.17216302 129.50132749 -158.37492614 127.32758129 -157.54931641 125.15014648 C-156.08607159 121.2746103 -154.75961881 117.36031558 -153.4765625 113.421875 C-153.00799243 111.99863867 -152.53923649 110.57546352 -152.0703125 109.15234375 C-151.34885102 106.9572069 -150.6287981 104.76164143 -149.91210938 102.56494141 C-147.24538737 94.40131929 -144.43959115 86.41320741 -141.04492188 78.515625 C-139.76829711 75.44218071 -138.8151035 72.33335511 -137.9375 69.125 C-135.25422147 60.23730272 -131.82732276 56.52120989 -124 52 C-121.39242504 50.62152857 -118.73892319 49.36369269 -116.0625 48.125 C-115.26585937 47.75189697 -114.46921875 47.37879395 -113.6484375 46.99438477 C-103.50214277 42.26500496 -93.29868771 37.65764178 -83.10188293 33.03842163 C-76.33622943 29.97328021 -69.57743485 26.89394727 -62.828125 23.79296875 C-34.85698152 10.94699943 -34.85698152 10.94699943 -22.38769531 5.73681641 C-18.08368881 3.93333088 -13.94369978 1.99307093 -9.84912109 -0.25073242 C-6.22426279 -1.71953228 -3.73823126 -1.04180215 0 0 Z " fill="#030303" transform="translate(899,443)"/>
<path d="M0 0 C1.85012223 1.28275141 3.70038187 2.56530467 5.55078125 3.84765625 C6.43330566 4.46785645 7.31583008 5.08805664 8.22509766 5.72705078 C10.30741771 7.17348488 12.4050977 8.57144629 14.54296875 9.93359375 C15.58066406 10.59488281 16.61835937 11.25617187 17.6875 11.9375 C18.55375 12.4840625 19.42 13.030625 20.3125 13.59375 C26.57646761 18.45656696 29.18475925 24.14725668 32 31.375 C32.53850586 32.67727539 32.53850586 32.67727539 33.08789062 34.00585938 C35.07620646 39.01641528 36.34211686 43.03867059 35.6875 48.4375 C33.0788586 50.8926919 31.42643496 51.38823767 27.875 51.625 C24.48927741 50.36365237 23.46217749 49.34344027 21.0625 46.75 C14.16074448 39.37043064 5.54276849 35.96817434 -4.390625 35.19921875 C-13.47630433 34.98662281 -20.03977426 36.4214583 -27.5 41.6875 C-30.40139291 44.52441751 -32.9759928 47.49746819 -35.50390625 50.66796875 C-39.58403706 54.65997579 -44.18360063 54.70194969 -49.66796875 54.78125 C-50.36964676 54.7958728 -51.07132477 54.81049561 -51.79426575 54.82556152 C-54.02945276 54.87182463 -56.26455776 54.90611351 -58.5 54.9375 C-76.66997382 55.19568085 -89.47031655 57.23917901 -103.9375 69 C-105.51066958 70.25262087 -107.08490888 71.50389933 -108.66015625 72.75390625 C-109.83022217 73.68614014 -109.83022217 73.68614014 -111.02392578 74.63720703 C-114.42129249 77.30972486 -117.8969348 79.87154364 -121.375 82.4375 C-127.81097581 87.21299245 -134.00666403 92.23937112 -140.16601562 97.36499023 C-145.34157861 101.66506412 -150.61749642 105.78554829 -155.9765625 109.85546875 C-160.6620881 113.44599187 -165.20923291 117.2116177 -169.75805664 120.97290039 C-170.39348389 121.49489014 -171.02891113 122.01687988 -171.68359375 122.5546875 C-172.23974365 123.01472168 -172.79589355 123.47475586 -173.36889648 123.94873047 C-174.01028564 124.44002441 -174.6516748 124.93131836 -175.3125 125.4375 C-176.6277063 126.50460205 -176.6277063 126.50460205 -177.96948242 127.59326172 C-182.31818279 129.99230376 -185.55522954 129.95053431 -190.4296875 129.828125 C-191.28684357 129.82246521 -192.14399963 129.81680542 -193.02713013 129.81097412 C-195.7478368 129.78869639 -198.46719568 129.73851774 -201.1875 129.6875 C-203.03904339 129.6674238 -204.89060756 129.649175 -206.7421875 129.6328125 C-211.2661393 129.58886001 -215.78909164 129.51989359 -220.3125 129.4375 C-220.38211858 120.93582462 -220.4353712 112.43426906 -220.46793652 103.93237877 C-220.48356904 99.98427613 -220.5047628 96.03636903 -220.53881836 92.08837891 C-220.57149851 88.27582511 -220.58937117 84.463459 -220.59713173 80.65077591 C-220.60265977 79.19875765 -220.61345474 77.74674926 -220.62969017 76.29481125 C-220.65158046 74.25539995 -220.65446223 72.21675664 -220.65307617 70.17724609 C-220.65973801 69.01808685 -220.66639984 67.85892761 -220.67326355 66.66464233 C-220.09631542 61.50366161 -218.22357016 58.3393347 -214.56689453 54.71972656 C-211.11994834 52.30246827 -208.26541613 51.12710376 -204.2421875 49.921875 C-203.5502681 49.70935089 -202.85834869 49.49682678 -202.14546204 49.27786255 C-200.63231862 48.81449958 -199.11721012 48.35751642 -197.60043335 47.90618896 C-193.32201164 46.63186679 -189.05890004 45.30759254 -184.79296875 43.9921875 C-183.87338882 43.7100943 -182.9538089 43.4280011 -182.00636292 43.13735962 C-171.8716434 40.01859185 -161.80463382 36.69848934 -151.73446655 33.37838745 C-131.32544907 26.65279135 -110.86904859 20.08578456 -90.375 13.625 C-88.54634903 13.0483963 -88.54634903 13.0483963 -86.68075562 12.46014404 C-83.19505682 11.36168633 -79.7089945 10.26439512 -76.22265625 9.16796875 C-75.20807343 8.84887039 -74.1934906 8.52977203 -73.14816284 8.20100403 C-66.8793145 6.23318914 -60.60305858 4.29047239 -54.32194519 2.36216736 C-51.32278734 1.44066084 -48.32530114 0.51386631 -45.328125 -0.4140625 C-43.4063063 -1.00539133 -41.48443174 -1.59653867 -39.5625 -2.1875 C-38.59957031 -2.4865625 -37.63664063 -2.785625 -36.64453125 -3.09375 C-33.8741131 -3.94329478 -31.09807077 -4.76413369 -28.3125 -5.5625 C-27.52423828 -5.7903418 -26.73597656 -6.01818359 -25.92382812 -6.25292969 C-15.19886386 -9.0295141 -8.82867658 -6.30897358 0 0 Z " fill="#020202" transform="translate(614.3125,666.5625)"/>
<path d="M0 0 C1.15693359 0.00644531 2.31386719 0.01289062 3.50585938 0.01953125 C5.30313477 0.04466797 5.30313477 0.04466797 7.13671875 0.0703125 C8.96299805 0.08384766 8.96299805 0.08384766 10.82617188 0.09765625 C13.82572149 0.12118213 16.82486919 0.15405597 19.82421875 0.1953125 C20.07977539 1.10095947 20.33533203 2.00660645 20.59863281 2.93969727 C23.63306793 13.55129535 27.15026744 23.59462932 37.25123405 29.30127716 C42.62423257 31.90827955 47.80477791 31.74374384 53.67947388 31.68737793 C55.4474715 31.69439641 55.4474715 31.69439641 57.25118625 31.70155668 C60.50540194 31.71056868 63.7590016 31.7018092 67.01317048 31.68548179 C70.52921344 31.67226823 74.04519933 31.68228359 77.56124878 31.68959045 C83.64858132 31.6992562 89.73577053 31.69482355 95.82309341 31.6811676 C104.63078471 31.6617799 113.43831535 31.66825495 122.24601088 31.68174142 C136.54568836 31.70330863 150.84532786 31.71003933 165.14501953 31.70458984 C166.00021871 31.70426921 166.85541789 31.70394858 167.7365322 31.70361823 C173.80742791 31.70124485 179.87832333 31.69834006 185.94921875 31.6953125 C192.88753243 31.69185288 199.8258461 31.68863464 206.76416016 31.68603516 C207.61892068 31.68570965 208.4736812 31.68538413 209.35434355 31.68504876 C223.60410522 31.68010748 237.85381418 31.69077863 252.10355937 31.71260691 C260.8901275 31.72530701 269.67647846 31.72385105 278.46303485 31.70415604 C284.48079868 31.69155542 290.49845228 31.69300421 296.51621594 31.70552957 C299.98843896 31.71224619 303.46034031 31.71233633 306.93253326 31.6949482 C310.69627874 31.67940304 314.45920145 31.68826641 318.22293091 31.70324707 C319.86941956 31.68751373 319.86941956 31.68751373 321.54917061 31.67146254 C327.63265708 31.72554379 331.19547096 32.12689625 335.82421875 36.1953125 C338.59894373 39.32806651 339.04655516 41.63261992 338.82421875 45.6953125 C338.12947086 50.23382859 336.55114502 52.4001178 332.82421875 55.1953125 C328.88496957 57.13013754 325.69241098 57.44719641 321.3251667 57.45258141 C320.6832894 57.45608748 320.0414121 57.45959355 319.38008398 57.46320587 C317.22653899 57.47251908 315.07326448 57.46759687 312.91970825 57.46273804 C311.36120504 57.46647434 309.80270371 57.47107578 308.24420536 57.47646868 C303.95920004 57.4887165 299.67427269 57.48843612 295.38925385 57.48607993 C290.76883884 57.48567222 286.14844898 57.49670651 281.52804565 57.50619507 C272.47517188 57.52281548 263.42232415 57.52830507 254.3694364 57.52941982 C247.01215503 57.53036974 239.65488226 57.53447722 232.29760361 57.54082108 C211.44501389 57.55843581 190.59244477 57.56765951 169.73984756 57.56616013 C168.61542931 57.56608022 167.49101106 57.5660003 166.33251953 57.56591797 C164.64383648 57.56579533 164.64383648 57.56579533 162.92103861 57.56567021 C144.67104581 57.56485709 126.42113549 57.58400053 108.17116655 57.6121947 C89.438753 57.64090621 70.70637971 57.65473597 51.97394359 57.65300715 C41.45444752 57.65234268 30.93503795 57.65785997 20.41556168 57.67936325 C11.45999647 57.69755218 2.50455698 57.70194118 -6.45101868 57.6883444 C-11.02100997 57.68180336 -15.59075995 57.68173845 -20.16072845 57.6990509 C-24.34423277 57.71473647 -28.52730352 57.7119645 -32.71079697 57.69448264 C-34.2242229 57.69140276 -35.73768084 57.69508224 -37.25106905 57.70620279 C-51.31820232 57.80272404 -51.31820232 57.80272404 -57.17578125 53.1953125 C-59.50793863 50.35616438 -59.79207869 46.9771237 -59.6640625 43.33203125 C-57.80685014 35.20486995 -48.09805962 29.95294556 -41.83789062 25.42236328 C-38.9557147 23.29459944 -36.16608989 21.05089418 -33.36328125 18.8203125 C-28.33591187 14.84852179 -23.25826511 10.95118206 -18.11328125 7.1328125 C-17.49412842 6.66762207 -16.87497559 6.20243164 -16.23706055 5.72314453 C-10.76028801 1.69220397 -6.81849318 -0.06717727 0 0 Z " fill="#050505" transform="translate(542.17578125,738.8046875)"/>
<path d="M0 0 C1.02702875 -0.00480972 1.02702875 -0.00480972 2.07480556 -0.0097166 C4.3739529 -0.01803196 6.67284079 -0.01208703 8.97199249 -0.00622082 C10.6350406 -0.00924079 12.29808732 -0.0131295 13.96113157 -0.01781338 C18.53503986 -0.0281218 23.10887001 -0.02590435 27.6827848 -0.02163279 C32.61399929 -0.01917075 37.54519472 -0.02817317 42.47640228 -0.03567028 C52.13821567 -0.04843338 61.80000128 -0.050209 71.46182168 -0.04787002 C79.31254074 -0.04608867 87.16325136 -0.04783255 95.01396942 -0.05209446 C96.13031894 -0.05268965 97.24666845 -0.05328484 98.39684674 -0.05389806 C100.66452142 -0.05510978 102.93219609 -0.05632391 105.19987077 -0.05754044 C126.47567693 -0.06842197 147.75146725 -0.06625045 169.02727431 -0.06015559 C188.50400952 -0.05498461 207.98069474 -0.06624559 227.45742005 -0.08525381 C247.44413656 -0.10461065 267.43082939 -0.11289208 287.41755533 -0.10913056 C298.64343568 -0.1072154 309.86927346 -0.10973673 321.09514618 -0.1238451 C330.65059075 -0.13573236 340.20596655 -0.13719363 349.76141202 -0.12505493 C354.63895272 -0.11914784 359.51636746 -0.11811719 364.39389992 -0.13005733 C368.85602954 -0.14085391 373.31792709 -0.13788754 377.78004557 -0.12379565 C379.39706711 -0.12113148 381.01410648 -0.12356875 382.63111061 -0.13153151 C384.82430784 -0.14158483 387.01669013 -0.13326171 389.20985413 -0.12025452 C390.42946351 -0.12030953 391.64907289 -0.12036455 392.90564013 -0.12042123 C396.40706735 0.28988081 398.25896112 1.2284694 401.10492706 3.25447559 C401.68242706 3.64635059 402.25992706 4.03822559 402.85492706 4.44197559 C404.93640596 7.46011999 405.32837939 10.67923832 405.10492706 14.25447559 C402.89198527 18.76547233 400.58206691 21.07357606 396.10492706 23.25447559 C392.90037876 23.63167375 392.90037876 23.63167375 389.19703007 23.63479233 C388.51095546 23.63945225 387.82488084 23.64411217 387.11801609 23.64891329 C384.81402563 23.66088507 382.51062251 23.65145981 380.20662689 23.64215565 C378.54016477 23.64632762 376.87370548 23.65180438 375.20725149 23.65847546 C370.62383969 23.67296674 366.04060715 23.66867388 361.45718539 23.66130865 C356.51571807 23.65658838 351.57429017 23.66907669 346.63283539 23.67932606 C336.95062264 23.69654172 327.2684747 23.69734835 317.58625061 23.69211315 C309.71837411 23.68807544 301.8505168 23.68951027 293.98264122 23.69486141 C292.30438699 23.69598405 292.30438699 23.69598405 290.59222863 23.69712936 C288.31948268 23.6986608 286.04673674 23.70019914 283.7739908 23.70174433 C262.44998063 23.71547933 241.12600712 23.7100246 219.80199777 23.69855911 C200.2838892 23.68862523 180.76587541 23.70156833 161.24778146 23.7254933 C141.21698451 23.74986218 121.18623173 23.75949765 101.15542024 23.75284058 C89.90546344 23.74934349 78.65557955 23.75161267 67.40563393 23.76909161 C57.82897159 23.78378592 48.25243351 23.78448534 38.67577369 23.76702069 C33.78794962 23.75848553 28.90034779 23.75642236 24.0125351 23.77167225 C19.53980237 23.78545456 15.06748363 23.78083986 10.59477525 23.76143301 C8.97504525 23.75765277 7.3552826 23.76065288 5.73558152 23.77104466 C3.53610804 23.7841549 1.33807606 23.77268673 -0.8613348 23.75504684 C-2.08360222 23.75493951 -3.30586964 23.75483217 -4.56517547 23.75472158 C-9.10429514 23.07281578 -12.41850315 21.13374623 -15.27007294 17.50447559 C-16.22947799 14.0506174 -16.46223539 10.77648442 -15.89507294 7.25447559 C-12.07264621 0.74219303 -7.15654063 0.00508616 0 0 Z " fill="#030303" transform="translate(475.8950729370117,818.7455244064331)"/>
<path d="M0 0 C2.46113941 -0.16489023 4.91088631 -0.28209805 7.375 -0.375 C8.39400391 -0.45041016 8.39400391 -0.45041016 9.43359375 -0.52734375 C16.23778547 -0.71811548 20.51912459 2.25038832 26 6 C27.01578125 6.67627441 28.0315625 7.35254883 29.078125 8.04931641 C32.50469308 10.34472995 35.91024776 12.66881857 39.3125 15 C41.79452711 16.69554573 44.27790428 18.38910515 46.76171875 20.08203125 C47.37656128 20.50136429 47.99140381 20.92069733 48.62487793 21.35273743 C53.3738941 24.58659092 58.15809018 27.76470683 62.95507812 30.92700195 C79.42979379 41.79013058 79.42979379 41.79013058 85 47 C85 47.33 85 47.66 85 48 C63.55582129 48.11673315 42.11169486 48.20493906 20.66726303 48.25906086 C10.71052183 48.28485704 0.75397788 48.32003455 -9.20263672 48.37719727 C-17.87949527 48.42698898 -26.55621098 48.45928073 -35.23320842 48.47044247 C-39.82890294 48.47696843 -44.42418879 48.4923354 -49.0197525 48.52865028 C-53.34376453 48.56254306 -57.66719886 48.57306668 -61.9913311 48.56553841 C-63.57966436 48.56691598 -65.16801658 48.57688885 -66.75623512 48.59602737 C-68.92318436 48.62086281 -71.08794528 48.61494304 -73.25494385 48.60127258 C-74.46802341 48.60588155 -75.68110298 48.61049051 -76.93094254 48.61523914 C-80 48 -80 48 -82.35613632 45.59352398 C-83.76391814 43.37246638 -84.86759599 41.40332899 -85.75 38.9375 C-85.99234375 38.28652344 -86.2346875 37.63554688 -86.484375 36.96484375 C-87 35 -87 35 -87 31 C-86.39414062 30.76667969 -85.78828125 30.53335938 -85.1640625 30.29296875 C-78.18027232 27.25233395 -73.86373815 23.04758883 -69.03125 17.328125 C-66.51961487 14.44940474 -65.78944666 14.06245946 -61.98828125 13.76171875 C-51.29486589 13.54580494 -47.24190749 14.96819336 -39.625 22.0625 C-33.96015208 27.22722552 -27.90267702 29.69446779 -20.109375 29.3515625 C-13.35905415 28.22650902 -7.16030448 25.54707264 -3 20 C0.38813314 13.34056591 0.33206771 7.3792824 0 0 Z " fill="#020202" transform="translate(666,705)"/>
<path d="M0 0 C2.57323592 2.18784344 2.9917108 2.97202396 4 6.375 C4 10 4 10 2.125 12.9375 C-2.06647785 15.70387538 -5.20227291 15.88415256 -10 15 C-13.61800545 13.86024716 -17.13885661 12.58166255 -20.66796875 11.19140625 C-35.03814963 6.05318214 -52.36103439 8.41288613 -65.99194336 14.51318359 C-83.33460636 22.77860558 -96.48059291 37.69226939 -103 55.7734375 C-105.15244969 62.66541585 -106.12336946 69.15636396 -106.12597656 76.39477539 C-106.1278447 77.10938431 -106.12971283 77.82399323 -106.13163757 78.56025696 C-106.13562143 80.1021851 -106.13771455 81.64411908 -106.13809967 83.18605232 C-106.14153666 86.46826393 -106.16291828 89.7502812 -106.18333054 93.03242397 C-106.22126429 99.13370472 -106.25260953 105.23476918 -106.25048828 111.33618164 C-106.24970129 115.5903512 -106.27304931 119.84379611 -106.3123703 124.09777641 C-106.32282519 125.71523213 -106.32435803 127.33277152 -106.31671906 128.950243 C-106.30709494 131.21250115 -106.32827523 133.47255969 -106.35644531 135.73461914 C-106.36009094 137.0200209 -106.36373657 138.30542267 -106.36749268 139.629776 C-107.16431064 143.87550553 -108.64474701 145.36237879 -112 148 C-115.9363755 148.73807041 -117.43925798 148.36136708 -120.8125 146.1875 C-124.51498746 142.48501254 -124.13823709 139.0629262 -124.17700195 134.04443359 C-124.18357315 133.3397847 -124.19014435 132.6351358 -124.19691467 131.90913391 C-124.21664807 129.57223389 -124.22832068 127.23539868 -124.23828125 124.8984375 C-124.24235678 124.0949651 -124.2464323 123.29149269 -124.25063133 122.46367264 C-124.27150887 118.19713855 -124.28579388 113.93063663 -124.29516602 109.6640625 C-124.30613349 105.30152411 -124.34041396 100.93950958 -124.38033772 96.57715416 C-124.40678892 93.18801073 -124.41488354 89.79898559 -124.41844749 86.40974808 C-124.42325363 84.80493321 -124.43469166 83.2001214 -124.45348549 81.59540939 C-124.6080688 67.50100731 -123.12664532 53.13132081 -116.1875 40.5625 C-115.84130615 39.90620605 -115.4951123 39.24991211 -115.13842773 38.57373047 C-103.91166659 17.72146509 -86.28120812 1.09436642 -63.4375 -5.9375 C-43.66037033 -11.85342892 -17.81018026 -11.78723548 0 0 Z " fill="#F3F4F5" transform="translate(363,499)"/>
<path d="M0 0 C4.94236105 3.7314826 8.0663068 8.79075534 9.25 14.8671875 C9.54548082 18.67589787 9.57297832 22.48582332 9.625 26.3046875 C9.68107422 27.86026367 9.68107422 27.86026367 9.73828125 29.44726562 C9.82652661 37.08048899 9.82652661 37.08048899 6.9140625 41.0546875 C3.63400451 43.2862812 2.14045783 43.59664834 -1.75 42.8671875 C-5.08761045 40.71628299 -6.48470933 39.66305951 -7.75 35.8671875 C-7.83883877 34.51773349 -7.88137294 33.16484347 -7.890625 31.8125 C-7.90996094 31.03261719 -7.92929687 30.25273437 -7.94921875 29.44921875 C-7.98290636 27.81925659 -8.00128938 26.1889019 -8.00390625 24.55859375 C-8.13935831 20.23125703 -8.38074895 18.35579243 -11.0703125 14.796875 C-13.68991089 12.51413241 -13.68991089 12.51413241 -17.375 12.8671875 C-21.23859897 14.00653532 -21.23859897 14.00653532 -23.75 16.8671875 C-24.21280107 19.49756484 -24.21280107 19.49756484 -24.15405273 22.50927734 C-24.17307899 24.24786514 -24.17307899 24.24786514 -24.19248962 26.02157593 C-24.18955399 27.27773712 -24.18661835 28.53389832 -24.18359375 29.828125 C-24.19145653 31.77315414 -24.19145653 31.77315414 -24.19947815 33.75747681 C-24.20842195 36.5098031 -24.20597908 39.26183962 -24.19604492 42.01416016 C-24.18466097 45.50510441 -24.20459374 48.99502106 -24.23396206 52.48583031 C-24.2569957 55.84997732 -24.24984166 59.21390161 -24.24609375 62.578125 C-24.25732773 63.81404388 -24.26856171 65.04996277 -24.28013611 66.32333374 C-24.22098376 73.83063389 -23.1273349 79.92185502 -20.4122467 86.93984985 C-19.59693866 90.54376651 -20.32598973 92.5140056 -21.75 95.8671875 C-22.41 95.2071875 -23.07 94.5471875 -23.75 93.8671875 C-23.8428125 95.0428125 -23.8428125 95.0428125 -23.9375 96.2421875 C-24.205625 97.1084375 -24.47375 97.9746875 -24.75 98.8671875 C-27.3125 100.1796875 -27.3125 100.1796875 -29.75 100.8671875 C-29.09 101.5271875 -28.43 102.1871875 -27.75 102.8671875 C-27.34952556 105.18993927 -27.0102896 107.52458107 -26.75 109.8671875 C-27.74 109.8671875 -28.73 109.8671875 -29.75 109.8671875 C-38.03592026 93.82674805 -43.06539705 80.30505357 -43.05078125 61.9921875 C-43.05506638 60.7870752 -43.0593515 59.58196289 -43.06376648 58.34033203 C-43.06948063 55.80567042 -43.07003169 53.27099243 -43.06567383 50.73632812 C-43.06250938 46.87861999 -43.08602666 43.02167635 -43.11132812 39.1640625 C-43.1136011 36.69010513 -43.11430462 34.21614571 -43.11328125 31.7421875 C-43.122491 30.60023926 -43.13170074 29.45829102 -43.14118958 28.28173828 C-43.08112365 17.78860536 -41.37233893 8.54068306 -33.75 0.8671875 C-23.16460367 -7.33190561 -11.15282644 -7.21946354 0 0 Z " fill="#EFF0F1" transform="translate(481.75,317.1328125)"/>
<path d="M0 0 C1.58152805 -0.01673575 3.16297535 -0.04424991 4.74414062 -0.08203125 C7.0608512 -0.13676607 9.37584601 -0.15863882 11.69311523 -0.17333984 C12.39524643 -0.19600922 13.09737762 -0.21867859 13.82078552 -0.24203491 C17.73359845 -0.22517974 19.28585573 0.24368718 22.35473633 2.75732422 C25.10335638 6.21507652 25.18749042 7.81301222 24.97045898 12.09619141 C23.80712622 18.92053077 21.45963731 25.42840143 19.21948242 31.96240234 C18.4667073 34.19877557 17.76327682 36.44328208 17.07983398 38.70166016 C16.87189209 39.37302002 16.6639502 40.04437988 16.44970703 40.73608398 C15.89130581 42.53974506 15.33886637 44.34524883 14.78686523 46.15087891 C12.8797171 50.60089121 10.61816298 54.21535079 6.17211914 56.50610352 C-3.62710601 59.50662799 -16.17796721 57.15612182 -26.27783203 56.17822266 C-28.43958191 55.97098958 -30.60245186 55.7812299 -32.76586914 55.59228516 C-34.14942915 55.4631059 -35.53289721 55.33293699 -36.91625977 55.20166016 C-38.15093994 55.0864502 -39.38562012 54.97124023 -40.65771484 54.85253906 C-43.58422852 54.35009766 -43.58422852 54.35009766 -45.58422852 52.35009766 C-46.05730192 47.33551956 -45.57549584 44.41822122 -42.58422852 40.35009766 C-40.87578532 38.64165446 -38.658984 39.2199466 -36.32641602 39.21728516 C-35.23184082 39.21535156 -34.13726563 39.21341797 -33.00952148 39.21142578 C-31.25212646 39.21819336 -31.25212646 39.21819336 -29.45922852 39.22509766 C-27.69216553 39.22799805 -27.69216553 39.22799805 -25.8894043 39.23095703 C-17.415889 39.27285327 -9.02230347 39.57034156 -0.58422852 40.35009766 C-0.42567383 39.79064453 -0.26711914 39.23119141 -0.10375977 38.65478516 C2.09419694 31.10158585 4.7224243 23.73817255 7.41577148 16.35009766 C6.27624023 16.42228516 5.13670898 16.49447266 3.96264648 16.56884766 C-4.90522783 17.10127948 -13.76223858 17.47262881 -22.64672852 17.53759766 C-23.50878906 17.55048828 -24.37084961 17.56337891 -25.2590332 17.57666016 C-27.36878101 17.5800616 -29.47814775 17.4744808 -31.58422852 17.35009766 C-32.24422852 16.69009766 -32.90422852 16.03009766 -33.58422852 15.35009766 C-33.50082957 10.34616105 -33.00778568 6.25590071 -29.38208008 2.45629883 C-22.20940727 -1.95697935 -8.39391498 0.06502143 0 0 Z " fill="#F3F4F4" transform="translate(783.584228515625,590.64990234375)"/>
<path d="M0 0 C2.5625 2.0625 2.5625 2.0625 4 5 C4.07618485 9.26635132 3.50138643 11.33148475 0.9375 14.75 C-5.39263158 19.59861143 -14.14518836 21.41425271 -21.6640625 23.87109375 C-22.77373383 24.23469498 -23.88340515 24.5982962 -25.02670288 24.97291565 C-27.36793596 25.73941926 -29.70946415 26.50502202 -32.05126953 27.26977539 C-35.59382608 28.42731385 -39.13484772 29.58946075 -42.67578125 30.75195312 C-75.19810115 41.40470906 -75.19810115 41.40470906 -81 41 C-82 40 -82 40 -82.3125 36.875 C-81.9424119 32.28590761 -81.32860255 29.20518193 -78 26 C-66.8914211 20.06017813 -54.3125609 16.50508235 -42.4375 12.4375 C-38.68514893 11.14755911 -34.93399992 9.85417767 -31.18359375 8.55859375 C-30.29086258 8.25105164 -29.39813141 7.94350952 -28.47834778 7.62664795 C-22.43212028 5.53192971 -16.46558649 3.30001715 -10.53564453 0.89331055 C-6.64973213 -0.47570096 -4.06975488 -0.73995543 0 0 Z " fill="#F1F2F3" transform="translate(859,490)"/>
<path d="M0 0 C1.81278643 2.43678665 1.74941514 4.75627211 1.62963867 7.71801758 C1.06481369 10.93124413 -0.35712853 12.54496244 -2.72192383 14.71801758 C-6.50424484 16.51202271 -10.1445848 17.24487864 -14.26879883 17.87890625 C-14.90523315 17.9783403 -15.54166748 18.07777435 -16.1973877 18.18022156 C-18.28799467 18.50503231 -20.37982922 18.82091043 -22.47192383 19.13598633 C-23.93257888 19.35944458 -25.39319024 19.58318861 -26.85375977 19.8072052 C-29.9094672 20.27433962 -32.96583356 20.73683647 -36.02270508 21.19628906 C-39.93484193 21.78483972 -43.84479935 22.38669166 -47.7543335 22.99225903 C-50.76804898 23.45724679 -53.78293543 23.91424607 -56.79821777 24.3689518 C-58.24028086 24.58756902 -59.68194047 24.80886553 -61.12316895 25.03291893 C-63.13920273 25.34529015 -65.15710038 25.64555913 -67.17504883 25.9453125 C-68.32134766 26.11914963 -69.46764648 26.29298676 -70.64868164 26.47209167 C-73.62890072 26.71057372 -75.85755275 26.53050277 -78.72192383 25.71801758 C-79.72192383 24.71801758 -79.72192383 24.71801758 -79.74145508 22.82739258 C-79.67313477 22.04879883 -79.60481445 21.27020508 -79.53442383 20.46801758 C-79.47899414 19.69973633 -79.42356445 18.93145508 -79.36645508 18.13989258 C-78.45502857 14.71513842 -77.33292066 13.14741494 -74.72192383 10.71801758 C-71.72299935 9.49471443 -68.64814586 8.93473588 -65.47192383 8.34301758 C-64.50552979 8.14877197 -63.53913574 7.95452637 -62.54345703 7.75439453 C-59.64044271 7.18346472 -56.7339381 6.63719377 -53.8237915 6.10394287 C-51.5101839 5.67913987 -49.19785571 5.24771538 -46.88549805 4.81616211 C-41.56358818 3.82656299 -36.23714034 2.86328618 -30.90942383 1.90551758 C-30.035802 1.74649963 -29.16218018 1.58748169 -28.26208496 1.42364502 C-3.9875264 -2.96873686 -3.9875264 -2.96873686 0 0 Z " fill="#F1F2F3" transform="translate(843.721923828125,543.281982421875)"/>
<path d="M0 0 C6.57297518 0.08549078 12.58702792 0.87231912 18.96995544 2.41157532 C19.90255692 2.62642075 20.83515839 2.84126617 21.79602051 3.06262207 C24.74346346 3.74454162 27.68667748 4.44304805 30.63011169 5.14204407 C32.59795953 5.59950585 34.56605724 6.0558942 36.53440857 6.51118469 C41.13779657 7.57879635 45.73453346 8.672333 50.33000183 9.77345276 C52.41717161 10.26471329 54.50726427 10.73079592 56.60325623 11.18257141 C57.66528259 11.42056458 58.72730896 11.65855774 59.82151794 11.90376282 C60.6897821 12.08898499 61.55804626 12.27420715 62.45262146 12.46504211 C65.32128491 13.57217424 66.77560278 14.94038145 68.69261169 17.32954407 C69.38192798 22.15475806 69.39804176 24.16193569 66.88011169 28.32954407 C61.33658484 31.80783543 55.43257932 30.91906323 49.18406677 29.57466125 C45.26761069 28.51931186 41.38643705 27.38075232 37.50511169 26.20454407 C34.67638143 25.36953735 31.84475898 24.54457683 29.01292419 23.72016907 C28.31066208 23.51433197 27.60839996 23.30849487 26.88485718 23.09642029 C19.27902552 20.88338374 11.58982488 19.02335563 3.8657074 17.27046204 C2.9565155 17.05534973 2.04732361 16.84023743 1.11058044 16.61860657 C0.32449402 16.44023254 -0.46159241 16.26185852 -1.27149963 16.07807922 C-3.63074765 15.21065454 -4.76177421 14.30008895 -6.30738831 12.32954407 C-6.88592771 8.61036217 -6.36161648 6.46898795 -4.99488831 2.95454407 C-2.30738831 0.32954407 -2.30738831 0.32954407 0 0 Z " fill="#F2F4F3" transform="translate(731.3073883056641,667.6704559326172)"/>
<path d="M0 0 C4.01404283 1.12919124 5.99046008 4.09487973 8.02734375 7.5703125 C11.81480971 16.1217005 12.20074967 24.73003808 12.265625 33.953125 C12.27369675 35.04495087 12.28176849 36.13677673 12.29008484 37.26168823 C12.30387724 39.56295199 12.31462091 41.86423578 12.32250977 44.16552734 C12.33408364 46.52235898 12.35461944 48.87916334 12.3840332 51.23583984 C12.42653033 54.64178266 12.44284904 58.04695065 12.453125 61.453125 C12.47063309 62.5073465 12.48814117 63.56156799 12.50617981 64.6477356 C12.48446914 71.93048955 12.48446914 71.93048955 10.12573242 75.23193359 C6.75779848 77.38004457 3.88309532 77.36996529 0.02734375 76.5703125 C-2.94123782 74.36290569 -3.80131416 73.08433877 -4.97265625 69.5703125 C-5.06673419 68.14563026 -5.10793559 66.71707659 -5.11450195 65.28930664 C-5.12153641 64.4273317 -5.12857086 63.56535675 -5.13581848 62.67726135 C-5.13998276 61.74606979 -5.14414703 60.81487823 -5.1484375 59.85546875 C-5.17165881 57.8691303 -5.19577704 55.88280217 -5.22070312 53.89648438 C-5.25562146 50.77654342 -5.28505145 47.65697659 -5.29858398 44.53686523 C-5.18351398 29.34774184 -5.18351398 29.34774184 -9.07299805 14.82397461 C-10.53705942 11.15647107 -10.52978841 8.47023759 -9.97265625 4.5703125 C-7.56229811 0.55304894 -4.66383923 -0.26054968 0 0 Z " fill="#F2F3F4" transform="translate(387.97265625,531.4296875)"/>
<path d="M0 0 C2.34577132 1.68802402 4.29668329 3.28543275 6.375 5.25 C7.59536229 6.34905821 8.81948683 7.44394987 10.046875 8.53515625 C10.68689453 9.10508301 11.32691406 9.67500977 11.98632812 10.26220703 C15.41613883 13.22212369 19.01359285 15.9543903 22.625 18.6875 C23.33906006 19.22971191 24.05312012 19.77192383 24.78881836 20.33056641 C28.06944258 22.81257061 31.36438783 25.27405992 34.67578125 27.71484375 C35.23120605 28.12581299 35.78663086 28.53678223 36.35888672 28.96020508 C37.82771956 30.04399745 39.30230826 31.11997714 40.77734375 32.1953125 C43.64887454 34.52685419 44.87723666 36.19326945 45.4375 39.875 C44.85634522 44.02610555 43.16111793 45.36573506 40 48 C37.16173074 49.41913463 35.14808479 49.28654154 32 49 C29.60546875 47.5234375 29.60546875 47.5234375 27.1875 45.375 C26.24132812 44.55773437 25.29515625 43.74046875 24.3203125 42.8984375 C23.79727539 42.43920898 23.27423828 41.97998047 22.73535156 41.50683594 C19.39719294 38.60825476 15.97467815 35.81065178 12.5625 33 C11.83474365 32.39720215 11.1069873 31.7944043 10.35717773 31.17333984 C6.07663939 27.64447074 1.73058514 24.27066141 -2.75 21 C-12.4931419 13.75956076 -12.4931419 13.75956076 -13.5625 7.9375 C-12.87020639 4.32218892 -11.54408967 2.61891584 -9 0 C-5.76072493 -1.61963754 -3.46473877 -0.81776443 0 0 Z " fill="#F4F4F6" transform="translate(499,218)"/>
<path d="M0 0 C0.99 0.33 1.98 0.66 3 1 C2.01 2.65 1.02 4.3 0 6 C0.66 6 1.32 6 2 6 C2 6.66 2 7.32 2 8 C4.31 8.33 6.62 8.66 9 9 C8.67 9.66 8.34 10.32 8 11 C8.33 11.66 8.66 12.32 9 13 C9.99 12.67 10.98 12.34 12 12 C12 12.66 12 13.32 12 14 C10.20703125 15.5859375 10.20703125 15.5859375 7.8125 17.375 C6.99523437 17.99246094 6.17796875 18.60992188 5.3359375 19.24609375 C4.17964844 20.11427734 4.17964844 20.11427734 3 21 C1.33001351 22.32917292 -0.33857487 23.66014102 -2 25 C-2.99 24.01 -3.98 23.02 -5 22 C-4 20 -4 20 -1 19 C-1.33 18.67 -1.66 18.34 -2 18 C-2.33 17.34 -2.66 16.68 -3 16 C-6.2793737 15.08177536 -8.79101179 14.50190621 -12.01953125 15.83203125 C-13.7241947 16.81455621 -15.36804564 17.90092869 -17 19 C-17 19.99 -17 20.98 -17 22 C-18.98 22.66 -20.96 23.32 -23 24 C-17.39793637 14.74441661 -9.3198126 5.60198122 0 0 Z " fill="#F3F3F4" transform="translate(277,504)"/>
<path d="M0 0 C77.715 0.495 77.715 0.495 157 1 C157 1.33 157 1.66 157 2 C155.83821039 2.00634791 155.83821039 2.00634791 154.65295029 2.01282406 C135.8163933 2.11608023 116.97987434 2.22471046 98.14338303 2.33933926 C89.03424105 2.3946427 79.92509515 2.44811999 70.81591797 2.49731445 C62.87736453 2.54019153 54.93883959 2.58647844 47.00033021 2.63687855 C42.79606415 2.66345107 38.59180364 2.68830346 34.38750458 2.70907402 C30.43131844 2.72867267 26.4751864 2.75282611 22.51904869 2.78049088 C21.06621217 2.78984421 19.61336379 2.79752565 18.16050911 2.80341911 C16.1781695 2.81170939 14.19586063 2.82657486 12.21356201 2.84178162 C11.10372326 2.84823417 9.99388451 2.85468672 8.85041428 2.8613348 C6.39367969 2.98084851 4.34237412 3.2876726 2 4 C1.34 2.68 0.68 1.36 0 0 Z " fill="#E8EEEC" transform="translate(585,752)"/>
<path d="M0 0 C1.98 1.98 1.98 1.98 4 4 C-45.17 4 -94.34 4 -145 4 C-145 3.67 -145 3.34 -145 3 C-97.48 2.67 -49.96 2.34 -1 2 C-0.67 1.34 -0.34 0.68 0 0 Z " fill="#101312" transform="translate(747,749)"/>
<path d="M0 0 C-0.33 1.65 -0.66 3.3 -1 5 C-1.99 4.67 -2.98 4.34 -4 4 C-4 4.99 -4 5.98 -4 7 C-3.01 7 -2.02 7 -1 7 C-1 7.66 -1 8.32 -1 9 C-0.34 9.33 0.32 9.66 1 10 C1 10.99 1 11.98 1 13 C4.63 13.66 8.26 14.32 12 15 C12 15.33 12 15.66 12 16 C8.70840684 16.05790353 5.41694397 16.09356261 2.125 16.125 C0.71927734 16.15013672 0.71927734 16.15013672 -0.71484375 16.17578125 C-2.05869141 16.18544922 -2.05869141 16.18544922 -3.4296875 16.1953125 C-4.25710449 16.20578613 -5.08452148 16.21625977 -5.93701172 16.22705078 C-8 16 -8 16 -10 14 C-9.92262896 9.35773783 -9.55387883 6.21567627 -6.6875 2.5 C-4 0 -4 0 0 0 Z " fill="#E3E4E7" transform="translate(760,592)"/>
<path d="M0 0 C1.5625 1.6875 1.5625 1.6875 3 4 C2.6875 6.75 2.6875 6.75 2 9 C0.948125 9.1546875 0.948125 9.1546875 -0.125 9.3125 C-3.39137647 10.09359003 -6.0471852 11.42058743 -9 13 C-9 13.99 -9 14.98 -9 16 C-10.98 16.66 -12.96 17.32 -15 18 C-10.92985904 11.27541928 -5.5434596 5.5434596 0 0 Z " fill="#E3E5EA" transform="translate(269,510)"/>
<path d="M0 0 C1.32 0 2.64 0 4 0 C3.67 0.66 3.34 1.32 3 2 C3.33 2.66 3.66 3.32 4 4 C4.99 3.67 5.98 3.34 7 3 C7 3.66 7 4.32 7 5 C5.20703125 6.5859375 5.20703125 6.5859375 2.8125 8.375 C1.99523437 8.99246094 1.17796875 9.60992188 0.3359375 10.24609375 C-0.43492187 10.82488281 -1.20578125 11.40367187 -2 12 C-3.66998649 13.32917292 -5.33857487 14.66014102 -7 16 C-7.99 15.01 -8.98 14.02 -10 13 C-9 11 -9 11 -6 10 C-5.34 9.01 -4.68 8.02 -4 7 C-3.34 6.01 -2.68 5.02 -2 4 C-1.31822584 2.67432801 -0.64808564 1.34246312 0 0 Z " fill="#ECECEC" transform="translate(282,513)"/>
<path d="M0 0 C-0.226875 0.7425 -0.45375 1.485 -0.6875 2.25 C-1.29476698 5.05914993 -1.29476698 5.05914993 0.4375 7.3125 C0.953125 7.869375 1.46875 8.42625 2 9 C2.66 8.67 3.32 8.34 4 8 C4.54372951 11.05847848 5 13.88772805 5 17 C-0.80933377 13.81869817 -3.61681985 9.6146394 -7 4 C-3.375 0 -3.375 0 0 0 Z " fill="#F0F0F0" transform="translate(574,752)"/>
<path d="M0 0 C0.33 0.66 0.66 1.32 1 2 C1.66 2.33 2.32 2.66 3 3 C2.01 4.485 2.01 4.485 1 6 C-1.625 6.1875 -1.625 6.1875 -4 6 C-4.59732819 8.76264289 -5 11.16032769 -5 14 C-7.8125 14.1875 -7.8125 14.1875 -11 14 C-12.69921875 12.48828125 -12.69921875 12.48828125 -14 11 C-13.07316406 10.28972656 -12.14632813 9.57945312 -11.19140625 8.84765625 C-9.98174158 7.91930895 -8.77210776 6.99092145 -7.5625 6.0625 C-6.95083984 5.59392578 -6.33917969 5.12535156 -5.70898438 4.64257812 C-2.75031115 2.44328176 -2.75031115 2.44328176 0 0 Z " fill="#E8E9EA" transform="translate(476,761)"/>
<path d="M0 0 C0.66 0.33 1.32 0.66 2 1 C2 4.3 2 7.6 2 11 C1.34 11 0.68 11 0 11 C0.33 12.32 0.66 13.64 1 15 C0.01 14.01 -0.98 13.02 -2 12 C-3.65 12.66 -5.3 13.32 -7 14 C-5.53967505 8.68972746 -3.01679014 4.53669968 0 0 Z " fill="#ECEFF1" transform="translate(253,529)"/>
<path d="M0 0 C3.17964456 0.453584 4.80523382 1.44018709 7.015625 3.72265625 C7.54414063 4.26083984 8.07265625 4.79902344 8.6171875 5.35351562 C9.15601563 5.91748047 9.69484375 6.48144531 10.25 7.0625 C10.80429687 7.63033203 11.35859375 8.19816406 11.9296875 8.78320312 C13.29334214 10.18212469 14.64760417 11.59019114 16 13 C15.34 13.66 14.68 14.32 14 15 C11.5625 14.25 11.5625 14.25 9 13 C8.3125 11 8.3125 11 8 9 C7.34 8.34 6.68 7.68 6 7 C5.01 7.495 5.01 7.495 4 8 C3.67 7.34 3.34 6.68 3 6 C2.01 6 1.02 6 0 6 C-0.38218767 4.34385343 -0.71395102 2.67542976 -1 1 C-0.67 0.67 -0.34 0.34 0 0 Z " fill="#0C0C0D" transform="translate(404,497)"/>
<path d="M0 0 C2.475 0.99 2.475 0.99 5 2 C5 2.99 5 3.98 5 5 C5.66 4.01 6.32 3.02 7 2 C7.556875 3.175625 7.556875 3.175625 8.125 4.375 C10.43306306 7.60628829 12.21616321 8.07506212 16 9 C13 11 13 11 10 12 C7.30078125 10.34765625 7.30078125 10.34765625 4.3125 8.0625 C3.31863281 7.31097656 2.32476563 6.55945313 1.30078125 5.78515625 C0.54152344 5.19605469 -0.21773437 4.60695312 -1 4 C-0.67 2.68 -0.34 1.36 0 0 Z " fill="#F0F1F1" transform="translate(558,185)"/>
<path d="M0 0 C1.32 0.66 2.64 1.32 4 2 C2.625 4 2.625 4 1 6 C0.34 6 -0.32 6 -1 6 C-1.66 7.98 -2.32 9.96 -3 12 C-4.32 10.68 -5.64 9.36 -7 8 C-7.33 9.32 -7.66 10.64 -8 12 C-8.66 11.34 -9.32 10.68 -10 10 C-8.90033225 8.70450101 -7.79508199 7.41373929 -6.6875 6.125 C-6.07261719 5.40570312 -5.45773437 4.68640625 -4.82421875 3.9453125 C-3 2 -3 2 0 0 Z " fill="#E0E4E8" transform="translate(392,705)"/>
<path d="M0 0 C0.66 0.66 1.32 1.32 2 2 C1.56429688 2.4125 1.12859375 2.825 0.6796875 3.25 C-3.25828969 7.06864455 -6.56828251 10.94799125 -9.640625 15.49609375 C-10.08921875 15.99238281 -10.5378125 16.48867188 -11 17 C-11.99 17 -12.98 17 -14 17 C-14 16.34 -14 15.68 -14 15 C-13.34 15 -12.68 15 -12 15 C-11.896875 14.236875 -11.79375 13.47375 -11.6875 12.6875 C-10.94931756 9.80187774 -10.23995711 8.86663092 -8 7 C-7.67 6.67 -7.34 6.34 -7 6 C-5.8160529 4.97504819 -4.6279984 3.954835 -3.4375 2.9375 C-2.79683594 2.38964844 -2.15617187 1.84179688 -1.49609375 1.27734375 C-1.00238281 0.85582031 -0.50867188 0.43429687 0 0 Z " fill="#0A0A0D" transform="translate(266,510)"/>
<path d="M0 0 C4 2 4 2 6 5 C6.375 7.9375 6.375 7.9375 6 11 C4 13.375 4 13.375 2 15 C2.33 12.69 2.66 10.38 3 8 C2.67 8.66 2.34 9.32 2 10 C1.01 9.67 0.02 9.34 -1 9 C-0.67 6.03 -0.34 3.06 0 0 Z M4 6 C5 8 5 8 5 8 Z " fill="#ECEDED" transform="translate(538,250)"/>
<path d="M0 0 C5.75 0.75 5.75 0.75 8 3 C8.33 2.01 8.66 1.02 9 0 C10.32 0.33 11.64 0.66 13 1 C13 1.66 13 2.32 13 3 C6.07 5.97 6.07 5.97 -1 9 C-1 8.34 -1 7.68 -1 7 C-0.34 7 0.32 7 1 7 C1 6.34 1 5.68 1 5 C0.34 4.67 -0.32 4.34 -1 4 C-0.67 2.68 -0.34 1.36 0 0 Z " fill="#F2F2F2" transform="translate(858,449)"/>
<path d="M0 0 C0.66 0 1.32 0 2 0 C2.125 3.375 2.125 3.375 2 7 C1.34 7.66 0.68 8.32 0 9 C0 9.99 0 10.98 0 12 C0.66 12.66 1.32 13.32 2 14 C0.125 14.625 0.125 14.625 -2 15 C-4 13 -4 13 -4.3125 9.6875 C-3.96368567 5.57149093 -2.9398098 2.9398098 0 0 Z M1 11 C1.66 11 2.32 11 3 11 C2.67 11.66 2.34 12.32 2 13 C1.67 12.34 1.34 11.68 1 11 Z " fill="#E7E8EA" transform="translate(742,630)"/>
<path d="M0 0 C0.66 0.33 1.32 0.66 2 1 C1.34 2.98 0.68 4.96 0 7 C0.66 7.66 1.32 8.32 2 9 C1.84910669 12.54599288 1.65238084 14.3686637 -0.9375 16.875 C-3 18 -3 18 -5 18 C-4.54851905 15.748615 -4.08855496 13.49893002 -3.625 11.25 C-3.36976563 9.99703125 -3.11453125 8.7440625 -2.8515625 7.453125 C-2.1569875 4.63659152 -1.44319917 2.48481248 0 0 Z " fill="#E2E3E7" transform="translate(245,544)"/>
<path d="M0 0 C3.33355357 1.37940148 5.36343728 2.72687457 7 6 C6.1875 9.25 6.1875 9.25 5 12 C2.03 11.505 2.03 11.505 -1 11 C-1.125 3.375 -1.125 3.375 0 0 Z " fill="#E8ECEE" transform="translate(378,724)"/>
<path d="M0 0 C0.14953125 0.61746094 0.2990625 1.23492188 0.453125 1.87109375 C0.9658118 4.00998828 0.9658118 4.00998828 1.75 6.0625 C1.87375 7.0215625 1.87375 7.0215625 2 8 C1.30003906 8.63035156 1.30003906 8.63035156 0.5859375 9.2734375 C-1.54688941 11.59538206 -1.67211558 13.47053455 -2.125 16.5625 C-2.92571429 21.85142857 -2.92571429 21.85142857 -4 24 C-4.66 24 -5.32 24 -6 24 C-6 24.99 -6 25.98 -6 27 C-6.66 27 -7.32 27 -8 27 C-5.62971149 17.90425874 -2.84301919 8.95607231 0 0 Z " fill="#D3D6DB" transform="translate(881,525)"/>
<path d="M0 0 C23.265 0.495 23.265 0.495 47 1 C47 1.33 47 1.66 47 2 C45.77893555 2.02505615 44.55787109 2.0501123 43.29980469 2.07592773 C38.76730955 2.17013579 34.23496286 2.27032384 29.70263672 2.37231445 C27.74140904 2.4156126 25.7801449 2.45729131 23.81884766 2.49731445 C20.99891172 2.55514099 18.17915839 2.61879984 15.359375 2.68359375 C14.04510529 2.70866249 14.04510529 2.70866249 12.70428467 2.73423767 C11.88373596 2.75418289 11.06318726 2.77412811 10.21777344 2.79467773 C9.49829529 2.81022202 8.77881714 2.8257663 8.03753662 2.84178162 C5.93053354 3.0053942 4.03164263 3.42999531 2 4 C1.34 2.68 0.68 1.36 0 0 Z " fill="#E3E4E5" transform="translate(585,752)"/>
<path d="M0 0 C0.99 0.33 1.98 0.66 3 1 C3 1.66 3 2.32 3 3 C3.99 2.67 4.98 2.34 6 2 C6 2.66 6 3.32 6 4 C5.01 4.495 5.01 4.495 4 5 C4 5.99 4 6.98 4 8 C3.34 8 2.68 8 2 8 C2 8.66 2 9.32 2 10 C1.34 10 0.68 10 0 10 C-0.33 10.66 -0.66 11.32 -1 12 C-2.20272819 9.59454362 -2.10071472 8.05003047 -2.0625 5.375 C-2.05347656 4.55773437 -2.04445313 3.74046875 -2.03515625 2.8984375 C-2.02355469 2.27195312 -2.01195312 1.64546875 -2 1 C-1.34 0.67 -0.68 0.34 0 0 Z " fill="#EBEEF0" transform="translate(554,433)"/>
<path d="M0 0 C0.12375 0.53625 0.2475 1.0725 0.375 1.625 C1.12206016 4.4638286 2.05303364 7.22223202 3 10 C1.64567309 11.35432691 0.2697269 12.68731586 -1.125 14 C-3.22798038 15.7862684 -3.22798038 15.7862684 -3 18 C-4.32 17.34 -5.64 16.68 -7 16 C-6.66226563 15.34773438 -6.32453125 14.69546875 -5.9765625 14.0234375 C-3.6285312 9.42238194 -1.4422387 4.98227915 0 0 Z " fill="#E2E4E9" transform="translate(604,334)"/>
<path d="M0 0 C5.78461538 3.44615385 5.78461538 3.44615385 6.875 6.25 C6.936875 7.11625 6.936875 7.11625 7 8 C4.69 8 2.38 8 0 8 C-0.33 7.34 -0.66 6.68 -1 6 C-1.66 5.67 -2.32 5.34 -3 5 C-1.125 1.125 -1.125 1.125 0 0 Z " fill="#050507" transform="translate(740,744)"/>
<path d="M0 0 C1.32 0.33 2.64 0.66 4 1 C4 1.99 4 2.98 4 4 C2.75539217 4.67667998 1.50403104 5.34094719 0.25 6 C-0.79414062 6.556875 -0.79414062 6.556875 -1.859375 7.125 C-4 8 -4 8 -8 8 C-6.68 5.69 -5.36 3.38 -4 1 C-2.68 1.33 -1.36 1.66 0 2 C0 1.34 0 0.68 0 0 Z " fill="#EDEDED" transform="translate(532,736)"/>
<path d="M0 0 C0.99 0 1.98 0 3 0 C2.5670911 3.03036227 2.03169454 4.95002015 0.375 7.5625 C-0.305625 8.7690625 -0.305625 8.7690625 -1 10 C-0.79375 10.639375 -0.5875 11.27875 -0.375 11.9375 C0 14 0 14 -1.03515625 15.58203125 C-2.30852656 17.09659706 -3.65104753 18.55234369 -5 20 C-6 18 -6 18 -5.56274414 16.12060547 C-5.30614014 15.37697754 -5.04953613 14.63334961 -4.78515625 13.8671875 C-4.51123047 13.06152344 -4.23730469 12.25585938 -3.95507812 11.42578125 C-3.51325195 10.16314453 -3.51325195 10.16314453 -3.0625 8.875 C-2.77181641 8.02550781 -2.48113281 7.17601562 -2.18164062 6.30078125 C-1.46106999 4.19813251 -0.73361685 2.09812523 0 0 Z " fill="#D3D5DB" transform="translate(818,722)"/>
<path d="M0 0 C0.66 0.33 1.32 0.66 2 1 C1.375 3.375 1.375 3.375 0 6 C-3.45531798 7.76605141 -5.13204029 8.26416165 -8.875 7.125 C-9.57625 6.75375 -10.2775 6.3825 -11 6 C-7.57874946 3.12614955 -4.16111563 1.54115394 0 0 Z " fill="#EAEBED" transform="translate(296,494)"/>
<path d="M0 0 C0.99 0.33 1.98 0.66 3 1 C2.67 4.63 2.34 8.26 2 12 C1.01 11.67 0.02 11.34 -1 11 C-1.33 11.99 -1.66 12.98 -2 14 C-2.66 14 -3.32 14 -4 14 C-3.52188823 12.22888156 -3.0424722 10.45811517 -2.5625 8.6875 C-2.29566406 7.70136719 -2.02882813 6.71523438 -1.75390625 5.69921875 C-1.21920575 3.78482474 -0.62855462 1.88566385 0 0 Z " fill="#E4E7EE" transform="translate(836,667)"/>
<path d="M0 0 C6.27 0 12.54 0 19 0 C18.67 1.98 18.34 3.96 18 6 C17.01 6.33 16.02 6.66 15 7 C13 4 13 4 13 1 C8.71 1 4.42 1 0 1 C0 0.67 0 0.34 0 0 Z " fill="#303133" transform="translate(772,607)"/>
<path d="M0 0 C0.66 0.99 1.32 1.98 2 3 C0.02 6.63 -1.96 10.26 -4 14 C-4.99 13.67 -5.98 13.34 -7 13 C-7 12.01 -7 11.02 -7 10 C-6.34 10 -5.68 10 -5 10 C-5.33 8.02 -5.66 6.04 -6 4 C-5.38125 3.896875 -4.7625 3.79375 -4.125 3.6875 C-1.63473516 3.12474627 -1.63473516 3.12474627 0 0 Z " fill="#EEEEEE" transform="translate(392,217)"/>
<path d="M0 0 C0.66 0.33 1.32 0.66 2 1 C0.68326091 6.66197809 -1.40589263 8.74584061 -6 12 C-6.66 12 -7.32 12 -8 12 C-6.63565891 6.41860465 -6.63565891 6.41860465 -3.4375 4.3125 C-2.2309375 3.6628125 -2.2309375 3.6628125 -1 3 C-0.67 2.01 -0.34 1.02 0 0 Z " fill="#ECEDED" transform="translate(796,635)"/>
<path d="M0 0 C0.99 0 1.98 0 3 0 C3.625 1.8125 3.625 1.8125 4 4 C3.01 5.485 3.01 5.485 2 7 C1.896875 7.825 1.79375 8.65 1.6875 9.5 C1 12 1 12 -1.5625 13.8125 C-2.366875 14.204375 -3.17125 14.59625 -4 15 C-4.66 14.34 -5.32 13.68 -6 13 C-5.01 12.67 -4.02 12.34 -3 12 C-1.96683512 9.20827761 -1.96683512 9.20827761 -1.3125 5.9375 C-1.06113281 4.83277344 -0.80976562 3.72804688 -0.55078125 2.58984375 C-0.36902344 1.73519531 -0.18726563 0.88054687 0 0 Z " fill="#D4D5D8" transform="translate(564,419)"/>
<path d="M0 0 C0.66 0.33 1.32 0.66 2 1 C1.09985829 5.30067708 -0.09828697 7.3884892 -3.625 9.875 C-4.73875 10.57625 -5.8525 11.2775 -7 12 C-7.33 10.68 -7.66 9.36 -8 8 C-2.25 3.125 -2.25 3.125 0 2 C0 1.34 0 0.68 0 0 Z " fill="#ECECEC" transform="translate(663,720)"/>
<path d="M0 0 C0.66 0.33 1.32 0.66 2 1 C0.5682479 6.01113235 -1.98445693 7.94469549 -6 11 C-6.66 9.35 -7.32 7.7 -8 6 C-7.05125 5.38125 -6.1025 4.7625 -5.125 4.125 C-2.05554891 2.18029031 -2.05554891 2.18029031 0 0 Z " fill="#0A0B0D" transform="translate(582,708)"/>
<path d="M0 0 C1.98 0.99 1.98 0.99 4 2 C4 2.66 4 3.32 4 4 C5.32 4 6.64 4 8 4 C8 6.31 8 8.62 8 11 C7.01 11.33 6.02 11.66 5 12 C5 10.35 5 8.7 5 7 C3.02 7.99 3.02 7.99 1 9 C1.020625 8.071875 1.04125 7.14375 1.0625 6.1875 C1.15769604 2.97713989 1.15769604 2.97713989 0 0 Z " fill="#FBFBFC" transform="translate(800,593)"/>
<path d="M0 0 C1.32 1.32 2.64 2.64 4 4 C3.34 4 2.68 4 2 4 C2 4.66 2 5.32 2 6 C1.34 6 0.68 6 0 6 C-0.33 6.66 -0.66 7.32 -1 8 C-4 8 -4 8 -7 6 C-4.69 4.02 -2.38 2.04 0 0 Z " fill="#E2E3E8" transform="translate(449,480)"/>
<path d="M0 0 C0.93423645 3.01031744 1.04449911 3.86650268 0 7 C0.66 7 1.32 7 2 7 C1.6875 8.9375 1.6875 8.9375 1 11 C0.01 11.33 -0.98 11.66 -2 12 C-2.12375 12.804375 -2.2475 13.60875 -2.375 14.4375 C-2.58125 15.283125 -2.7875 16.12875 -3 17 C-3.66 17.33 -4.32 17.66 -5 18 C-1.92482916 5.33029613 -1.92482916 5.33029613 0 0 Z " fill="#DADAE1" transform="translate(901,464)"/>
<path d="M0 0 C3 0 3 0 4.6875 1.5 C5.120625 1.995 5.55375 2.49 6 3 C4.35 4.98 2.7 6.96 1 9 C0.01 8.01 -0.98 7.02 -2 6 C-1.34 4.02 -0.68 2.04 0 0 Z " fill="#EBEBEB" transform="translate(354,393)"/>
<path d="M0 0 C0.66 0 1.32 0 2 0 C2.598125 1.093125 3.19625 2.18625 3.8125 3.3125 C5.29044697 5.91074129 6.69822933 8.04349493 9 10 C7.02 10.99 7.02 10.99 5 12 C4.67 10.35 4.34 8.7 4 7 C3.34 7 2.68 7 2 7 C1.67 7.66 1.34 8.32 1 9 C0.855625 8.21625 0.71125 7.4325 0.5625 6.625 C0.12201075 4.03578982 0.12201075 4.03578982 -1 2 C-0.67 1.34 -0.34 0.68 0 0 Z " fill="#EEF0EF" transform="translate(698,691)"/>
<path d="M0 0 C0.66 0.99 1.32 1.98 2 3 C1.34 4.32 0.68 5.64 0 7 C-4.95 7 -9.9 7 -15 7 C-15 6.67 -15 6.34 -15 6 C-11.97265625 5.75585938 -11.97265625 5.75585938 -8.9453125 5.51171875 C-6.60480784 5.12606964 -6.60480784 5.12606964 -5 2 C-5 2.66 -5 3.32 -5 4 C-3.68 4 -2.36 4 -1 4 C-0.67 2.68 -0.34 1.36 0 0 Z " fill="#16191A" transform="translate(783,624)"/>
<path d="M0 0 C0 1.32 0 2.64 0 4 C-0.66 4 -1.32 4 -2 4 C-2.33 4.99 -2.66 5.98 -3 7 C-6.87455037 7 -8.04172555 6.44822713 -11 4 C-9.5437455 3.32880451 -8.08492133 2.66318193 -6.625 2 C-5.81289063 1.62875 -5.00078125 1.2575 -4.1640625 0.875 C-2 0 -2 0 0 0 Z " fill="#E2E3E7" transform="translate(792,512)"/>
<path d="M0 0 C1.32 0.66 2.64 1.32 4 2 C0.38671875 6.6875 0.38671875 6.6875 -1 8 C-1.99 8 -2.98 8 -4 8 C-4.25 5.6875 -4.25 5.6875 -4 3 C-2 1.1875 -2 1.1875 0 0 Z " fill="#EBEBEB" transform="translate(365,386)"/>
<path d="M0 0 C0.33 0.66 0.66 1.32 1 2 C1.66 2.33 2.32 2.66 3 3 C0.69 4.98 -1.62 6.96 -4 9 C-4.99 8.01 -5.98 7.02 -7 6 C-4.74259377 3.66475218 -2.7194239 1.81294927 0 0 Z " fill="#0E0F13" transform="translate(632,344)"/>
<path d="M0 0 C1.90401138 1.90401138 2.93520439 3.33425686 3.19921875 6.046875 C3.1886578 8.03233273 3.09915043 10.0169914 3 12 C2.01 11.67 1.02 11.34 0 11 C-0.99 11.66 -1.98 12.32 -3 13 C-2.68817931 11.58318366 -2.37551263 10.16655349 -2.0625 8.75 C-1.88847656 7.96109375 -1.71445312 7.1721875 -1.53515625 6.359375 C-1.052444 4.23121297 -0.53836822 2.11467158 0 0 Z " fill="#DCDFE5" transform="translate(843,644)"/>
<path d="M0 0 C2 3 2 3 3 5 C1.35 5.66 -0.3 6.32 -2 7 C-2 7.66 -2 8.32 -2 9 C-4.475 8.01 -4.475 8.01 -7 7 C-4.78071806 4.09197539 -3.07030857 2.04687238 0 0 Z " fill="#E7EAED" transform="translate(457,473)"/>
<path d="M0 0 C0 3 0 3 -1 6 C-2.9375 7.0625 -2.9375 7.0625 -5 8 C-5.66 8.66 -6.32 9.32 -7 10 C-7 7 -7 7 -5.46875 5.17578125 C-4.8190625 4.56089844 -4.169375 3.94601562 -3.5 3.3125 C-2.8503125 2.68988281 -2.200625 2.06726563 -1.53125 1.42578125 C-0.77328125 0.72001953 -0.77328125 0.72001953 0 0 Z M-9 9 C-8.67 9.66 -8.34 10.32 -8 11 C-8.66 11 -9.32 11 -10 11 C-10 11.66 -10 12.32 -10 13 C-11.62626404 14.38232443 -13.2925002 15.71937515 -15 17 C-15 14 -15 14 -13.6875 12.61328125 C-12.125 11.40885417 -10.5625 10.20442708 -9 9 Z " fill="#181818" transform="translate(382,376)"/>
<path d="M0 0 C0.33 0 0.66 0 1 0 C1 1.98 1 3.96 1 6 C1.99 6.33 2.98 6.66 4 7 C3.34 9.97 2.68 12.94 2 16 C1.34 16 0.68 16 0 16 C0 10.72 0 5.44 0 0 Z " fill="#CACFCF" transform="translate(648,298)"/>
<path d="M0 0 C0.66 0.99 1.32 1.98 2 3 C2.99 3.33 3.98 3.66 5 4 C5 4.66 5 5.32 5 6 C2.24921116 6.91692961 0.64051087 7.10886083 -2.1875 7.0625 C-4.0746875 7.0315625 -4.0746875 7.0315625 -6 7 C-6 6.34 -6 5.68 -6 5 C-4.35 4.67 -2.7 4.34 -1 4 C-0.67 2.68 -0.34 1.36 0 0 Z " fill="#E4E6E5" transform="translate(646,728)"/>
<path d="M0 0 C-1.3125 1.5 -1.3125 1.5 -3 3 C-3.99 3 -4.98 3 -6 3 C-7.41164137 3.45345268 -8.80776511 3.95715349 -10.1875 4.5 C-10.90292969 4.7784375 -11.61835937 5.056875 -12.35546875 5.34375 C-12.89816406 5.5603125 -13.44085937 5.776875 -14 6 C-14 5.34 -14 4.68 -14 4 C-14.66 3.67 -15.32 3.34 -16 3 C-10.28264895 0.54970669 -6.20970773 -0.33266291 0 0 Z " fill="#DDDEDD" transform="translate(859,490)"/>
<path d="M0 0 C2.31 0 4.62 0 7 0 C5.08864614 3.53600465 3.37357234 5.78972846 0 8 C-0.79953138 4.71303767 -1.09658936 3.28976808 0 0 Z " fill="#0C0D0E" transform="translate(533,456)"/>
<path d="M0 0 C0.99 1.32 1.98 2.64 3 4 C1.125 5.0625 1.125 5.0625 -1 6 C-1.66 5.67 -2.32 5.34 -3 5 C-3.33 5.66 -3.66 6.32 -4 7 C-4.66 7 -5.32 7 -6 7 C-6.33 8.32 -6.66 9.64 -7 11 C-8.32 10.67 -9.64 10.34 -11 10 C-7.50640535 6.40365256 -3.88901869 3.16548033 0 0 Z " fill="#E4E6E9" transform="translate(461,773)"/>
<path d="M0 0 C0.4125 0.45375 0.825 0.9075 1.25 1.375 C3.06408095 3.05950374 4.75285627 3.99265971 7 5 C6.34 6.32 5.68 7.64 5 9 C2.36 7.35 -0.28 5.7 -3 4 C-2.34 3.67 -1.68 3.34 -1 3 C-0.67 2.01 -0.34 1.02 0 0 Z " fill="#E9E9E9" transform="translate(629,672)"/>
<path d="M0 0 C-3.41016497 2.86453858 -6.90694544 4.34703566 -11 6 C-11.33 5.34 -11.66 4.68 -12 4 C-11.67 3.34 -11.34 2.68 -11 2 C-10.01 2 -9.02 2 -8 2 C-8 1.34 -8 0.68 -8 0 C-5.13822943 -1.43088528 -3.06624227 -0.59991697 0 0 Z " fill="#ECECEC" transform="translate(785,490)"/>
<path d="M0 0 C0.66 0.66 1.32 1.32 2 2 C1.01 3.485 1.01 3.485 0 5 C0 5.99 0 6.98 0 8 C-0.99 8.495 -0.99 8.495 -2 9 C-4.625 8.0625 -4.625 8.0625 -7 7 C-2.25 1.125 -2.25 1.125 0 0 Z " fill="#E2E3E7" transform="translate(471,461)"/>
<path d="M0 0 C0.33 0 0.66 0 1 0 C1.61081304 7.20759389 1.61081304 7.20759389 -1.3125 11 C-4 13 -4 13 -7 13 C-7 12.34 -7 11.68 -7 11 C-6.34 11 -5.68 11 -5 11 C-5 10.01 -5 9.02 -5 8 C-3.66666667 6.66666667 -2.33333333 5.33333333 -1 4 C-0.2127322 1.8618034 -0.2127322 1.8618034 0 0 Z " fill="#E5E7E6" transform="translate(799,685)"/>
<path d="M0 0 C2.33944736 0.28730055 4.6739143 0.61936779 7 1 C3.99390278 3.00406482 1.40757305 4.03076258 -2 5.1875 C-3.051875 5.55230469 -4.10375 5.91710937 -5.1875 6.29296875 C-8 7 -8 7 -11 6 C-10.28972656 5.65066406 -9.57945312 5.30132813 -8.84765625 4.94140625 C-7.92855469 4.48636719 -7.00945312 4.03132812 -6.0625 3.5625 C-4.68771484 2.88380859 -4.68771484 2.88380859 -3.28515625 2.19140625 C-1.09471096 1.19474606 -1.09471096 1.19474606 0 0 Z " fill="#ECECEC" transform="translate(474,693)"/>
<path d="M0 0 C0.33 1.32 0.66 2.64 1 4 C0.34 4.433125 -0.32 4.86625 -1 5.3125 C-1.66 5.869375 -2.32 6.42625 -3 7 C-3 7.99 -3 8.98 -3 10 C-4.98 10.66 -6.96 11.32 -9 12 C-6.2520787 7.72545575 -3.30749011 3.85873847 0 0 Z " fill="#D5D7DC" transform="translate(263,516)"/>
<path d="M0 0 C0.33 1.32 0.66 2.64 1 4 C-1.64 5.98 -4.28 7.96 -7 10 C-7.33 9.34 -7.66 8.68 -8 8 C-7.34 8 -6.68 8 -6 8 C-5.67 5.69 -5.34 3.38 -5 1 C-2 0 -2 0 0 0 Z " fill="#EEEEEE" transform="translate(407,201)"/>
<path d="M0 0 C0.12375 0.556875 0.2475 1.11375 0.375 1.6875 C1.05976855 4.22114364 1.99133763 6.57921032 3 9 C-4.71428571 5 -4.71428571 5 -6 1 C-4 0 -4 0 0 0 Z " fill="#E6E7E7" transform="translate(577,760)"/>
<path d="M0 0 C3.96 1.98 3.96 1.98 8 4 C7.01 4.99 6.02 5.98 5 7 C3.02 6.34 1.04 5.68 -1 5 C-0.67 3.35 -0.34 1.7 0 0 Z " fill="#0A0A0A" transform="translate(681,705)"/>
<path d="M0 0 C2.875 0.25 2.875 0.25 6 1 C7.375 3.0625 7.375 3.0625 8 5 C6.02 5.99 6.02 5.99 4 7 C2 5.1875 2 5.1875 0 3 C0 2.01 0 1.02 0 0 Z " fill="#EBECEC" transform="translate(400,488)"/>
<path d="M0 0 C-3.17320782 3.53586014 -5.16743695 5.58578031 -10 6 C-7.83322503 -0.036016 -6.28508493 -0.13663228 0 0 Z " fill="#E9EBEA" transform="translate(525,745)"/>
<path d="M0 0 C3.99500618 1.3697164 6.80009492 3.25722422 10 6 C8.02 6.99 6.04 7.98 4 9 C3.67 7.02 3.34 5.04 3 3 C2.01 2.67 1.02 2.34 0 2 C0 1.34 0 0.68 0 0 Z " fill="#EAEAEA" transform="translate(753,727)"/>
<path d="M0 0 C1.12894876 0.93274109 2.25300876 1.87140122 3.375 2.8125 C4.00148438 3.33457031 4.62796875 3.85664063 5.2734375 4.39453125 C7 6 7 6 9 9 C4.48279689 9.36625971 4.48279689 9.36625971 2.1875 7.625 C1 6 1 6 1 4 C0.34 3.01 -0.32 2.02 -1 1 C-0.67 0.67 -0.34 0.34 0 0 Z " fill="#0A0B0A" transform="translate(396,487)"/>
<path d="M0 0 C1.36118461 2.24195113 2.06138028 3.47826762 1.75 6.125 C1 8 1 8 -1 10 C-1.67292501 11.96690374 -1.67292501 11.96690374 -2.125 14.125 C-2.41375 15.40375 -2.7025 16.6825 -3 18 C-3.66 18 -4.32 18 -5 18 C-1.92482916 5.33029613 -1.92482916 5.33029613 0 0 Z " fill="#C5C8CD" transform="translate(894,485)"/>
<path d="M0 0 C1.65 1.65 3.3 3.3 5 5 C4.01 6.485 4.01 6.485 3 8 C1.68 8 0.36 8 -1 8 C-1.93065133 5.39417629 -2.14917407 4.35801776 -1.0625 1.75 C-0.711875 1.1725 -0.36125 0.595 0 0 Z " fill="#E8EAEF" transform="translate(643,332)"/>
<path d="M0 0 C1.32 0.66 2.64 1.32 4 2 C3.34 3.32 2.68 4.64 2 6 C1.01 5.67 0.02 5.34 -1 5 C-1.99 5.99 -2.98 6.98 -4 8 C-4.33 7.01 -4.66 6.02 -5 5 C-3.35 3.35 -1.7 1.7 0 0 Z " fill="#101010" transform="translate(403,208)"/>
<path d="M0 0 C0.33 0.66 0.66 1.32 1 2 C0.67 2.99 0.34 3.98 0 5 C0 5.99 0 6.98 0 8 C-1.65 8.66 -3.3 9.32 -5 10 C-4.67 9.01 -4.34 8.02 -4 7 C-4.33 6.01 -4.66 5.02 -5 4 C-3.35 2.68 -1.7 1.36 0 0 Z " fill="#E6E7EB" transform="translate(503,740)"/>
<path d="M0 0 C0.66 0.66 1.32 1.32 2 2 C-1.63 3.32 -5.26 4.64 -9 6 C-9 4.35 -9 2.7 -9 1 C-5.98675805 -0.50662097 -3.31713623 -0.17770373 0 0 Z " fill="#0E0F11" transform="translate(530,721)"/>
<path d="M0 0 C0.66 0 1.32 0 2 0 C2 0.66 2 1.32 2 2 C2.66 2 3.32 2 4 2 C4.33 3.65 4.66 5.3 5 7 C1.09161134 7 -0.11594107 5.49432124 -3 3 C-2.34 3 -1.68 3 -1 3 C-0.67 2.01 -0.34 1.02 0 0 Z " fill="#EAEAEA" transform="translate(610,659)"/>
<path d="M0 0 C0.66 0.33 1.32 0.66 2 1 C2.40729228 3.32156597 2.74438677 5.6568787 3 8 C2.01 8 1.02 8 0 8 C-1.6875 5.5 -1.6875 5.5 -3 3 C-2.01 2.01 -1.02 1.02 0 0 Z " fill="#0C0D0C" transform="translate(499,441)"/>
<path d="M0 0 C2.3125 0.1875 2.3125 0.1875 4 1 C3.67 1.99 3.34 2.98 3 4 C2.34 4 1.68 4 1 4 C1 4.99 1 5.98 1 7 C-0.98 6.34 -2.96 5.68 -5 5 C-2.75 2.4375 -2.75 2.4375 0 0 Z " fill="#D8DBE0" transform="translate(492,217)"/>
<path d="M0 0 C0.99 0.99 1.98 1.98 3 3 C-1.95 4.485 -1.95 4.485 -7 6 C-7.33 4.68 -7.66 3.36 -8 2 C-5 1 -5 1 -2 1 C-1.34 0.67 -0.68 0.34 0 0 Z " fill="#ECECEC" transform="translate(531,675)"/>
<path d="M0 0 C1.32 1.65 2.64 3.3 4 5 C3.67 5.66 3.34 6.32 3 7 C2.34 7 1.68 7 1 7 C1 7.99 1 8.98 1 10 C-0.32 9.67 -1.64 9.34 -3 9 C-2.01 6.03 -1.02 3.06 0 0 Z " fill="#DADBDD" transform="translate(787,618)"/>
<path d="M0 0 C1.6396875 0.2475 1.6396875 0.2475 3.3125 0.5 C6.87525873 1.06718184 6.87525873 1.06718184 10 1 C10 1.66 10 2.32 10 3 C5.545 4.485 5.545 4.485 1 6 C0.67 4.02 0.34 2.04 0 0 Z " fill="#EAEAEA" transform="translate(298,409)"/>
<path d="M0 0 C0.99 0.99 1.98 1.98 3 3 C2.34 3 1.68 3 1 3 C1 4.98 1 6.96 1 9 C-0.98 9.99 -0.98 9.99 -3 11 C-2.53199289 6.94393835 -2.12046792 3.53411321 0 0 Z " fill="#D9DCDE" transform="translate(443,324)"/>
<path d="M0 0 C0.66 0.66 1.32 1.32 2 2 C1.9375 3.9375 1.9375 3.9375 1 6 C-1.5625 7.75 -1.5625 7.75 -4 9 C-4.33 8.34 -4.66 7.68 -5 7 C-3.35 4.69 -1.7 2.38 0 0 Z " fill="#141414" transform="translate(396,216)"/>
<path d="M0 0 C0.66 0.33 1.32 0.66 2 1 C1.01 3.64 0.02 6.28 -1 9 C-1.66 9 -2.32 9 -3 9 C-3.33 9.66 -3.66 10.32 -4 11 C-4.8125 8.875 -4.8125 8.875 -5 6 C-3.55576519 3.69892439 -1.89127865 1.98353614 0 0 Z " fill="#EFEFEF" transform="translate(702,679)"/>
<path d="M0 0 C5.94 0.99 5.94 0.99 12 2 C7.78370866 4.10814567 5.60209225 4.17700355 1 4 C0.67 2.68 0.34 1.36 0 0 Z " fill="#E5E6E6" transform="translate(755,672)"/>
<path d="M0 0 C3.125 0.375 3.125 0.375 6 1 C4 4 4 4 1.5625 4.5 C0.716875 4.665 -0.12875 4.83 -1 5 C-2.79385992 6.4579186 -2.79385992 6.4579186 -4 8 C-2.25 2.25 -2.25 2.25 0 0 Z " fill="#E6E6E7" transform="translate(729,668)"/>
<path d="M0 0 C0.8125 1.625 0.8125 1.625 1 4 C-0.46818136 6.24609835 -2.15852858 8.02378677 -4 10 C-4.66 9.01 -5.32 8.02 -6 7 C-5.34 7 -4.68 7 -4 7 C-4 5.35 -4 3.7 -4 2 C-2.68 1.34 -1.36 0.68 0 0 Z " fill="#EEEEEE" transform="translate(201,482)"/>
<path d="M0 0 C1.65 0.33 3.3 0.66 5 1 C3.70700306 3.88437779 2.34058637 5.87219421 0 8 C0 7.34 0 6.68 0 6 C-0.66 5.67 -1.32 5.34 -2 5 C-1.34 3.35 -0.68 1.7 0 0 Z " fill="#F1F1F1" transform="translate(483,772)"/>
<path d="M0 0 C1.32 0 2.64 0 4 0 C6.125 4.625 6.125 4.625 5 8 C3.02 6.35 1.04 4.7 -1 3 C-0.67 2.01 -0.34 1.02 0 0 Z " fill="#EEEEF0" transform="translate(746,745)"/>
<path d="M0 0 C1.32 0.66 2.64 1.32 4 2 C2.68 3.32 1.36 4.64 0 6 C-0.66 5.67 -1.32 5.34 -2 5 C-2 5.66 -2 6.32 -2 7 C-2.66 7 -3.32 7 -4 7 C-3.6875 4.625 -3.6875 4.625 -3 2 C-2.01 1.34 -1.02 0.68 0 0 Z " fill="#E9ECEE" transform="translate(392,705)"/>
<path d="M0 0 C0.66 0.33 1.32 0.66 2 1 C-1.75 5.875 -1.75 5.875 -4 7 C-4 6.34 -4 5.68 -4 5 C-5.65 5.33 -7.3 5.66 -9 6 C-9.33 5.01 -9.66 4.02 -10 3 C-9.04287109 2.80083984 -9.04287109 2.80083984 -8.06640625 2.59765625 C-7.24011719 2.42105469 -6.41382813 2.24445312 -5.5625 2.0625 C-4.73878906 1.88847656 -3.91507812 1.71445312 -3.06640625 1.53515625 C-1.02338796 1.19247006 -1.02338796 1.19247006 0 0 Z " fill="#1D1D1D" transform="translate(365,511)"/>
<path d="M0 0 C0.99 0.66 1.98 1.32 3 2 C2.814375 2.5775 2.62875 3.155 2.4375 3.75 C1.95976454 6.20692525 2.24270636 7.64397534 3 10 C1.35 8.35 -0.3 6.7 -2 5 C-1.34 3.35 -0.68 1.7 0 0 Z " fill="#F1F1F1" transform="translate(413,496)"/>
<path d="M0 0 C1.32 0.99 2.64 1.98 4 3 C1.69 4.65 -0.62 6.3 -3 8 C-3.33 6.68 -3.66 5.36 -4 4 C-2.68 3.34 -1.36 2.68 0 2 C0 1.34 0 0.68 0 0 Z " fill="#101013" transform="translate(460,465)"/>
<path d="M0 0 C0.99 0.66 1.98 1.32 3 2 C3.1875 4.625 3.1875 4.625 3 7 C1.02 6.34 -0.96 5.68 -3 5 C-3 4.01 -3 3.02 -3 2 C-2.01 1.34 -1.02 0.68 0 0 Z " fill="#0A0A0A" transform="translate(508,248)"/>
<path d="M0 0 C0.99 0.33 1.98 0.66 3 1 C4.125 5.75 4.125 5.75 3 8 C2.01 7.67 1.02 7.34 0 7 C-1.125 2.25 -1.125 2.25 0 0 Z " fill="#EAEAEA" transform="translate(714,634)"/>
<path d="M0 0 C1.65 0 3.3 0 5 0 C4.4409112 3.24271506 3.5867822 4.93057424 1 7 C0.34 7 -0.32 7 -1 7 C-0.67 4.69 -0.34 2.38 0 0 Z " fill="#EAEBED" transform="translate(395,601)"/>
<path d="M0 0 C1.32 0.66 2.64 1.32 4 2 C4 2.99 4 3.98 4 5 C2.02 5.99 0.04 6.98 -2 8 C-1.34 5.36 -0.68 2.72 0 0 Z " fill="#E1E3EC" transform="translate(865,576)"/>
<path d="M0 0 C0.66 0 1.32 0 2 0 C2.33 0.99 2.66 1.98 3 3 C-0.60957611 6.2910841 -3.12637153 7.54663921 -8 8 C-5.16569547 4.7457985 -3.31392226 3.4793247 1 3 C0.67 2.01 0.34 1.02 0 0 Z " fill="#ECECEC" transform="translate(841,552)"/>
<path d="M0 0 C3.73584906 1.47169811 3.73584906 1.47169811 5 4 C1.535 5.485 1.535 5.485 -2 7 C-2 5 -2 3 -2 1 C-1.34 0.67 -0.68 0.34 0 0 Z " fill="#ECEEED" transform="translate(472,169)"/>
<path d="M0 0 C0 0.66 0 1.32 0 2 C0.66 2 1.32 2 2 2 C2 2.66 2 3.32 2 4 C0.741875 3.87625 -0.51625 3.7525 -1.8125 3.625 C-2.87404297 3.52058594 -2.87404297 3.52058594 -3.95703125 3.4140625 C-6 3 -6 3 -9 1 C-5.846632 0.29925156 -3.27275026 0 0 0 Z " fill="#E4E5E4" transform="translate(737,681)"/>
<path d="M0 0 C0.99 0.66 1.98 1.32 3 2 C2.05066101 5.35433109 1.10251165 8.69246505 0 12 C-0.66 12 -1.32 12 -2 12 C-2.28571429 3.42857143 -2.28571429 3.42857143 0 0 Z " fill="#0D0E10" transform="translate(724,670)"/>
<path d="M0 0 C1.32 1.32 2.64 2.64 4 4 C2.35 5.98 0.7 7.96 -1 10 C-2.27351308 7.45297384 -1.80191925 6.5717055 -1.0625 3.875 C-0.86785156 3.15054688 -0.67320312 2.42609375 -0.47265625 1.6796875 C-0.31667969 1.12539063 -0.16070313 0.57109375 0 0 Z " fill="#DCDEE5" transform="translate(857,600)"/>
<path d="M0 0 C1.125 1.625 1.125 1.625 2 4 C1.25 7.1875 1.25 7.1875 0 10 C-0.99 10.495 -0.99 10.495 -2 11 C-2.28571429 3.57142857 -2.28571429 3.57142857 0 0 Z " fill="#DFDEE2" transform="translate(779,519)"/>
<path d="M0 0 C-4.25 4.25 -4.25 4.25 -8 5 C-8.33 3.68 -8.66 2.36 -9 1 C-3.375 -1.125 -3.375 -1.125 0 0 Z " fill="#E9EAEC" transform="translate(305,508)"/>
<path d="M0 0 C1.65 0.99 3.3 1.98 5 3 C2.03312999 4.64826111 -0.65626525 5.44271087 -4 6 C-2.84826645 3.53199953 -1.95216435 1.95216435 0 0 Z " fill="#0B0C0E" transform="translate(461,330)"/>
<path d="M0 0 C0.99 0.33 1.98 0.66 3 1 C3.33 2.98 3.66 4.96 4 7 C3.34 7 2.68 7 2 7 C1.67 7.66 1.34 8.32 1 9 C-1.09230769 4.56923077 -1.09230769 4.56923077 -0.625 1.6875 C-0.41875 1.130625 -0.2125 0.57375 0 0 Z " fill="#EEEEEE" transform="translate(634,249)"/>
<path d="M0 0 C1.32 0 2.64 0 4 0 C4 0.66 4 1.32 4 2 C4.66 2.33 5.32 2.66 6 3 C5.34 3 4.68 3 4 3 C4.33 4.32 4.66 5.64 5 7 C3.02 5.68 1.04 4.36 -1 3 C-0.67 2.01 -0.34 1.02 0 0 Z " fill="#EAEBED" transform="translate(492,232)"/>
<path d="M0 0 C0.66 1.32 1.32 2.64 2 4 C-1 6 -1 6 -3.6875 5.625 C-4.450625 5.41875 -5.21375 5.2125 -6 5 C-4.62308038 2.24616077 -2.63279958 1.48516899 0 0 Z " fill="#E8E9EB" transform="translate(877,838)"/>
<path d="M0 0 C2.97 0.495 2.97 0.495 6 1 C5.34 1.66 4.68 2.32 4 3 C4 3.99 4 4.98 4 6 C2.02 5.01 0.04 4.02 -2 3 C-1.34 2.67 -0.68 2.34 0 2 C0 1.34 0 0.68 0 0 Z " fill="#EEEEEE" transform="translate(713,722)"/>
<path d="M0 0 C4.67692308 1.47692308 4.67692308 1.47692308 6.3125 4.125 C6.539375 4.74375 6.76625 5.3625 7 6 C6.34 6 5.68 6 5 6 C4.67 6.66 4.34 7.32 4 8 C3.54625 7.21625 3.0925 6.4325 2.625 5.625 C1.11571258 2.96301969 1.11571258 2.96301969 -1 1 C-0.67 0.67 -0.34 0.34 0 0 Z " fill="#0A0A0A" transform="translate(631,705)"/>
<path d="M0 0 C3.96 0 7.92 0 12 0 C9.14521674 1.90318884 7.58058692 2.4619099 4.3125 3.125 C3.50425781 3.29257812 2.69601562 3.46015625 1.86328125 3.6328125 C1.24839844 3.75398437 0.63351562 3.87515625 0 4 C0 2.68 0 1.36 0 0 Z " fill="#E8E8E8" transform="translate(535,673)"/>
<path d="M0 0 C1.32 0 2.64 0 4 0 C4.33 1.32 4.66 2.64 5 4 C1.25 7 1.25 7 -1 7 C-0.67 4.69 -0.34 2.38 0 0 Z " fill="#E8E8ED" transform="translate(241,555)"/>
<path d="M0 0 C0.97079451 3.0202496 1.32756618 5.06038917 0 8 C-2.5625 9.75 -2.5625 9.75 -5 11 C-3.77472971 6.94718288 -2.30119506 3.55639236 0 0 Z " fill="#D0D2D7" transform="translate(251,532)"/>
<path d="M0 0 C0.33 0.66 0.66 1.32 1 2 C1.99 2.33 2.98 2.66 4 3 C2.68 4.32 1.36 5.64 0 7 C-0.66 6.34 -1.32 5.68 -2 5 C-1.46428571 1.46428571 -1.46428571 1.46428571 0 0 Z " fill="#EEEFF3" transform="translate(507,737)"/>
<path d="M0 0 C0.99 0.66 1.98 1.32 3 2 C2.34 5.96 1.68 9.92 1 14 C0.67 14 0.34 14 0 14 C-0.06058594 13.37351562 -0.12117188 12.74703125 -0.18359375 12.1015625 C-0.26738281 11.28429687 -0.35117187 10.46703125 -0.4375 9.625 C-0.51871094 8.81289063 -0.59992188 8.00078125 -0.68359375 7.1640625 C-0.89090114 4.95727195 -0.89090114 4.95727195 -2 3 C-1.34 3 -0.68 3 0 3 C0 2.01 0 1.02 0 0 Z " fill="#D2D2D3" transform="translate(436,522)"/>
<path d="M0 0 C0.53625 0.37125 1.0725 0.7425 1.625 1.125 C-5 4.25 -5 4.25 -8.375 3.125 C-8.375 2.465 -8.375 1.805 -8.375 1.125 C-2.95961538 -1.09038462 -2.95961538 -1.09038462 0 0 Z " fill="#101110" transform="translate(846.375,490.875)"/>
<path d="M0 0 C1.66666667 0 3.33333333 0 5 0 C5.33 2.31 5.66 4.62 6 7 C5.01 7 4.02 7 3 7 C0 2.77777778 0 2.77777778 0 0 Z " fill="#EAEAEC" transform="translate(449,420)"/>
<path d="M0 0 C0.33 0 0.66 0 1 0 C1 3.3 1 6.6 1 10 C-0.98 10.99 -0.98 10.99 -3 12 C-3.99 11.34 -4.98 10.68 -6 10 C-4.02 9.34 -2.04 8.68 0 8 C0 5.36 0 2.72 0 0 Z " fill="#222325" transform="translate(586,402)"/>
<path d="M0 0 C2.99324263 1.0975223 3.84610901 1.67682892 5.25 4.625 C5.4975 5.40875 5.745 6.1925 6 7 C4.35 6.67 2.7 6.34 1 6 C0.4465236 3.92446352 0 2.15634036 0 0 Z " fill="#E9EAEC" transform="translate(514,248)"/>
<path d="M0 0 C1.0326802 2.78823655 1.04509293 3.8677274 0.0625 6.75 C-0.288125 7.4925 -0.63875 8.235 -1 9 C-2.65 7.68 -4.3 6.36 -6 5 C-4.68 5 -3.36 5 -2 5 C-1.67 4.34 -1.34 3.68 -1 3 C-1.66 3 -2.32 3 -3 3 C-2 1 -2 1 0 0 Z " fill="#ECECEE" transform="translate(503,234)"/>
<path d="M0 0 C0.66 0.33 1.32 0.66 2 1 C0.6875 3.5 0.6875 3.5 -1 6 C-1.99 6 -2.98 6 -4 6 C-4.66 6.66 -5.32 7.32 -6 8 C-6 5 -6 5 -4.6875 3.61328125 C-3.125 2.40885417 -1.5625 1.20442708 0 0 Z " fill="#DDE1E2" transform="translate(447,784)"/>
<path d="M0 0 C3.7910119 1.44950455 7.3874638 3.15172566 11 5 C8 6 8 6 5 4.625 C4.01 4.08875 3.02 3.5525 2 3 C1.01 2.67 0.02 2.34 -1 2 C-0.67 1.34 -0.34 0.68 0 0 Z " fill="#E6E7E6" transform="translate(737,718)"/>
<path d="M0 0 C0.33 0 0.66 0 1 0 C1.9765625 6.0546875 1.9765625 6.0546875 2 8 C0 10 0 10 -3 11 C-2.01 7.37 -1.02 3.74 0 0 Z " fill="#CBCED3" transform="translate(829,688)"/>
<path d="M0 0 C1.32 0.66 2.64 1.32 4 2 C0.04 2 -3.92 2 -8 2 C-6.15250685 -1.69498631 -3.41131658 -1.13710553 0 0 Z " fill="#FAFBFD" transform="translate(780,605)"/>
<path d="M0 0 C0.99 0.66 1.98 1.32 3 2 C2.34 3.98 1.68 5.96 1 8 C0.34 8 -0.32 8 -1 8 C-1.93065133 5.39417629 -2.14917407 4.35801776 -1.0625 1.75 C-0.711875 1.1725 -0.36125 0.595 0 0 Z " fill="#EEEEEE" transform="translate(747,544)"/>
<path d="M0 0 C-2.39509338 2.89932357 -4.31245243 3.50168276 -8 4 C-8.33 3.01 -8.66 2.02 -9 1 C-3.375 -1.125 -3.375 -1.125 0 0 Z " fill="#0C0F12" transform="translate(552,442)"/>
<path d="M0 0 C0.99 0.33 1.98 0.66 3 1 C2.01 2.98 1.02 4.96 0 7 C-1.32 5.68 -2.64 4.36 -4 3 C-2.1875 1.4375 -2.1875 1.4375 0 0 Z " fill="#101014" transform="translate(597,345)"/>
<path d="M0 0 C1.32 0.66 2.64 1.32 4 2 C2.68 3.32 1.36 4.64 0 6 C-0.99 5.67 -1.98 5.34 -3 5 C-1.125 1.125 -1.125 1.125 0 0 Z " fill="#0B0B0D" transform="translate(875,835)"/>
<path d="M0 0 C0.33 0.99 0.66 1.98 1 3 C-1.3125 5.0625 -1.3125 5.0625 -4 7 C-4.99 6.67 -5.98 6.34 -7 6 C-2.25 1.125 -2.25 1.125 0 0 Z " fill="#E0E0E2" transform="translate(497,745)"/>
<path d="M0 0 C0 0.66 0 1.32 0 2 C0.99 1.67 1.98 1.34 3 1 C2.34 2.65 1.68 4.3 1 6 C0.67 5.34 0.34 4.68 0 4 C-2.52733235 3.34444881 -2.52733235 3.34444881 -5 3 C-2.25 0 -2.25 0 0 0 Z " fill="#EFF1F0" transform="translate(629,721)"/>
<path d="M0 0 C-2.06756277 2.7972908 -3.14440371 3.02692273 -6.6875 3.6875 C-7.780625 3.790625 -8.87375 3.89375 -10 4 C-7.10257116 -0.27715685 -5.06635533 -1.57231717 0 0 Z " fill="#CFD0D3" transform="translate(776,554)"/>
<path d="M0 0 C1.98 1.65 3.96 3.3 6 5 C5.34 5.66 4.68 6.32 4 7 C2.68 6.34 1.36 5.68 0 5 C0 3.33333333 0 1.66666667 0 0 Z " fill="#121212" transform="translate(421,512)"/>
<path d="M0 0 C0.66 1.32 1.32 2.64 2 4 C-2.75 7 -2.75 7 -5 7 C-3.70700306 4.11562221 -2.34058637 2.12780579 0 0 Z " fill="#E3E4E9" transform="translate(596,352)"/>
<path d="M0 0 C2.5 1.3125 2.5 1.3125 5 3 C5 3.99 5 4.98 5 6 C4.01 6.33 3.02 6.66 2 7 C0 5 0 5 -0.125 2.375 C-0.08375 1.59125 -0.0425 0.8075 0 0 Z " fill="#090909" transform="translate(594,216)"/>
<path d="M0 0 C0.66 0.33 1.32 0.66 2 1 C1.34 2.65 0.68 4.3 0 6 C-1.32 6 -2.64 6 -4 6 C-4 5.01 -4 4.02 -4 3 C-2 1.3125 -2 1.3125 0 0 Z " fill="#0F1110" transform="translate(525,745)"/>
<path d="M0 0 C0.33 1.32 0.66 2.64 1 4 C1.2475 4.680625 1.495 5.36125 1.75 6.0625 C2 8 2 8 0.6875 9.75 C-1 11 -1 11 -3 11 C-2.01 7.37 -1.02 3.74 0 0 Z " fill="#BBBEC5" transform="translate(881,525)"/>
<path d="M0 0 C0.66 0.66 1.32 1.32 2 2 C1.625 4.625 1.625 4.625 1 7 C1.99 7 2.98 7 4 7 C4 7.66 4 8.32 4 9 C3.34 9 2.68 9 2 9 C1.67 9.66 1.34 10.32 1 11 C-0.20272819 8.59454362 -0.10071472 7.05003047 -0.0625 4.375 C-0.05347656 3.55773437 -0.04445313 2.74046875 -0.03515625 1.8984375 C-0.02355469 1.27195312 -0.01195312 0.64546875 0 0 Z " fill="#D8D9DB" transform="translate(552,434)"/>
<path d="M0 0 C1.65 1.65 3.3 3.3 5 5 C4.01 5.33 3.02 5.66 2 6 C1.67 6.66 1.34 7.32 1 8 C0.34 5.69 -0.32 3.38 -1 1 C-0.67 0.67 -0.34 0.34 0 0 Z " fill="#18181A" transform="translate(450,424)"/>
<path d="M0 0 C0.33 1.32 0.66 2.64 1 4 C-1.31 4.66 -3.62 5.32 -6 6 C-6 4 -6 4 -4.125 1.875 C-2 0 -2 0 0 0 Z " fill="#1D201F" transform="translate(615,356)"/>
<path d="M0 0 C0.33 0 0.66 0 1 0 C1.25 2.75 1.25 2.75 1 6 C-1 8.375 -1 8.375 -3 10 C-2.49287967 6.28111761 -1.88391785 3.26545761 0 0 Z " fill="#D7D9D8" transform="translate(543,255)"/>
<path d="M0 0 C1.65 1.65 3.3 3.3 5 5 C4.34 5.66 3.68 6.32 3 7 C1.68 5.68 0.36 4.36 -1 3 C-0.67 2.01 -0.34 1.02 0 0 Z " fill="#1E1E1E" transform="translate(875,773)"/>
<path d="M0 0 C2.475 0.99 2.475 0.99 5 2 C4.01 2.495 4.01 2.495 3 3 C2.34 2.67 1.68 2.34 1 2 C1 2.99 1 3.98 1 5 C-0.32 5 -1.64 5 -3 5 C-1.125 1.125 -1.125 1.125 0 0 Z " fill="#EAECEB" transform="translate(780,743)"/>
<path d="M0 0 C-1.32 1.32 -2.64 2.64 -4 4 C-4.99 3.34 -5.98 2.68 -7 2 C-7 1.34 -7 0.68 -7 0 C-4.3333581 -1.33332095 -2.83319697 -0.67102033 0 0 Z " fill="#141517" transform="translate(518,729)"/>
<path d="M0 0 C0.99 0.66 1.98 1.32 3 2 C0.69 3.65 -1.62 5.3 -4 7 C-4 4 -4 4 -2 1.8125 C-1.34 1.214375 -0.68 0.61625 0 0 Z " fill="#0D1115" transform="translate(389,704)"/>
<path d="M0 0 C0.66 0.33 1.32 0.66 2 1 C1.01 3.97 0.02 6.94 -1 10 C-1.66 8.68 -2.32 7.36 -3 6 C-1.625 2.75 -1.625 2.75 0 0 Z " fill="#16161B" transform="translate(836,663)"/>
<path d="M0 0 C3.63 0.33 7.26 0.66 11 1 C11 1.33 11 1.66 11 2 C10.31292969 2.06058594 9.62585938 2.12117187 8.91796875 2.18359375 C7.56638672 2.30927734 7.56638672 2.30927734 6.1875 2.4375 C5.29417969 2.51871094 4.40085937 2.59992187 3.48046875 2.68359375 C0.87256441 2.93489767 0.87256441 2.93489767 -2 4 C-1.34 2.68 -0.68 1.36 0 0 Z " fill="#202221" transform="translate(741,628)"/>
<path d="M0 0 C0.99 0.33 1.98 0.66 3 1 C2.67 3.31 2.34 5.62 2 8 C1.67 7.01 1.34 6.02 1 5 C0.01 4.67 -0.98 4.34 -2 4 C-1.34 2.68 -0.68 1.36 0 0 Z " fill="#ECECEC" transform="translate(131,624)"/>
<path d="M0 0 C0 3.38023517 -0.87455622 5.83468937 -2 9 C-3.5 7.625 -3.5 7.625 -5 6 C-5 5.34 -5 4.68 -5 4 C-3.37373596 2.61767557 -1.7074998 1.28062485 0 0 Z " fill="#E4E4E4" transform="translate(759,517)"/>
<path d="M0 0 C0.99 0.33 1.98 0.66 3 1 C1.515 3.475 1.515 3.475 0 6 C0.66 6.33 1.32 6.66 2 7 C1.01 7.33 0.02 7.66 -1 8 C-1.33 7.01 -1.66 6.02 -2 5 C-1.67 4.34 -1.34 3.68 -1 3 C-1.66 2.67 -2.32 2.34 -3 2 C-2.01 1.34 -1.02 0.68 0 0 Z " fill="#E5E6E8" transform="translate(277,504)"/>
<path d="M0 0 C0 3.62453269 -0.92469613 5.07920195 -3 8 C-3.99 8.33 -4.98 8.66 -6 9 C-4.68775452 5.06326356 -3.08089673 2.77280706 0 0 Z " fill="#222222" transform="translate(196,492)"/>
<path d="M0 0 C0.66 0.33 1.32 0.66 2 1 C-0.13464912 3.45484649 -1.70720291 4.68134222 -5 5 C-5.66 4.34 -6.32 3.68 -7 3 C-4.69631264 1.93347808 -2.35981813 0.93578995 0 0 Z " fill="#D7D7D9" transform="translate(296,494)"/>
<path d="M0 0 C1.9453125 -0.29296875 1.9453125 -0.29296875 4.125 -0.1875 C5.40375 -0.125625 6.6825 -0.06375 8 0 C6.375 2.0625 6.375 2.0625 4 4 C0.75 3.75 0.75 3.75 -2 3 C-1.34 2.01 -0.68 1.02 0 0 Z " fill="#FAFBFA" transform="translate(332,491)"/>
<path d="M0 0 C0 2.83967231 -0.40267181 5.23735711 -1 8 C-1.99 8.33 -2.98 8.66 -4 9 C-4.33 7.35 -4.66 5.7 -5 4 C-3.35 2.68 -1.7 1.36 0 0 Z " fill="#DBDDDD" transform="translate(537,460)"/>
<path d="M0 0 C4.455 1.98 4.455 1.98 9 4 C7.02 4.99 7.02 4.99 5 6 C2.75 5.125 2.75 5.125 1 4 C1 3.34 1 2.68 1 2 C0.34 1.67 -0.32 1.34 -1 1 C-0.67 0.67 -0.34 0.34 0 0 Z " fill="#E2E3E3" transform="translate(513,461)"/>
<path d="M0 0 C0.99 0.33 1.98 0.66 3 1 C1.37660195 2.70884005 -0.29319053 4.37446717 -2 6 C-2.66 6 -3.32 6 -4 6 C-2.25 1.125 -2.25 1.125 0 0 Z " fill="#E7E7E7" transform="translate(254,435)"/>
<path d="M0 0 C0.33 0.66 0.66 1.32 1 2 C-0.98 4.31 -2.96 6.62 -5 9 C-5.66 8.34 -6.32 7.68 -7 7 C-4.69 4.69 -2.38 2.38 0 0 Z " fill="#181818" transform="translate(353,402)"/>
<path d="M0 0 C2.97 1.98 2.97 1.98 6 4 C5.01 4.66 4.02 5.32 3 6 C1.68 5.34 0.36 4.68 -1 4 C-0.67 2.68 -0.34 1.36 0 0 Z " fill="#EBEBEC" transform="translate(528,242)"/>
<path d="M0 0 C2.97 1.98 2.97 1.98 6 4 C5.67 4.66 5.34 5.32 5 6 C4.34 6 3.68 6 3 6 C3 5.34 3 4.68 3 4 C2.01 4.33 1.02 4.66 0 5 C-0.33 4.01 -0.66 3.02 -1 2 C-0.67 1.34 -0.34 0.68 0 0 Z " fill="#131313" transform="translate(569,197)"/>
<path d="M0 0 C-1.65 1.65 -3.3 3.3 -5 5 C-5 4.01 -5 3.02 -5 2 C-5.99 2.33 -6.98 2.66 -8 3 C-7.67 2.01 -7.34 1.02 -7 0 C-2.25 -1.125 -2.25 -1.125 0 0 Z " fill="#ECECEC" transform="translate(460,184)"/>
<path d="M0 0 C3.37503669 1.1858237 5.64722731 2.27573689 8 5 C7.01 5.33 6.02 5.66 5 6 C1.8125 4.0625 1.8125 4.0625 -1 2 C-0.67 1.34 -0.34 0.68 0 0 Z " fill="#111111" transform="translate(549,184)"/>
<path d="M0 0 C1.32 0.66 2.64 1.32 4 2 C2.68 3.32 1.36 4.64 0 6 C-0.66 5.34 -1.32 4.68 -2 4 C-1.34 2.68 -0.68 1.36 0 0 Z " fill="#141416" transform="translate(465,765)"/>
<path d="M0 0 C1.65 0.99 3.3 1.98 5 3 C4.67 3.66 4.34 4.32 4 5 C3.34 5 2.68 5 2 5 C2 4.34 2 3.68 2 3 C0.35 3.66 -1.3 4.32 -3 5 C-1.125 1.125 -1.125 1.125 0 0 Z " fill="#121214" transform="translate(740,744)"/>
<path d="M0 0 C2.31 0 4.62 0 7 0 C6.67 0.66 6.34 1.32 6 2 C3.6859378 2.73075648 1.35171131 3.40138258 -1 4 C-0.67 2.68 -0.34 1.36 0 0 Z " fill="#E8E8E8" transform="translate(429,708)"/>
<path d="M0 0 C0.99 0.33 1.98 0.66 3 1 C2.75 3.375 2.75 3.375 2 6 C-0.0625 7.3125 -0.0625 7.3125 -2 8 C-1.34 5.36 -0.68 2.72 0 0 Z " fill="#DBDEE4" transform="translate(836,667)"/>
<path d="M0 0 C3 1 3 1 4.1875 3.0625 C4.455625 3.701875 4.72375 4.34125 5 5 C4.01 5.495 4.01 5.495 3 6 C2.34 5.67 1.68 5.34 1 5 C1 4.34 1 3.68 1 3 C0.34 3 -0.32 3 -1 3 C-0.67 2.01 -0.34 1.02 0 0 Z " fill="#EBEBEC" transform="translate(803,592)"/>
<path d="M0 0 C1.98 0 3.96 0 6 0 C5.67 1.32 5.34 2.64 5 4 C4.01 4 3.02 4 2 4 C1.34 2.68 0.68 1.36 0 0 Z " fill="#E5E5E5" transform="translate(272,524)"/>
<path d="M0 0 C0.66 1.32 1.32 2.64 2 4 C1.01 4.99 0.02 5.98 -1 7 C-1.99 6.01 -2.98 5.02 -4 4 C-2.68 2.68 -1.36 1.36 0 0 Z " fill="#E5E8EB" transform="translate(476,456)"/>
<path d="M0 0 C2.0625 0.4375 2.0625 0.4375 4 1 C4 1.66 4 2.32 4 3 C0.535 4.485 0.535 4.485 -3 6 C-1.125 1.125 -1.125 1.125 0 0 Z " fill="#ECECEC" transform="translate(867,449)"/>
<path d="M0 0 C0.99 0 1.98 0 3 0 C4.125 3.75 4.125 3.75 3 6 C2.01 5.67 1.02 5.34 0 5 C0 3.35 0 1.7 0 0 Z " fill="#DFE0E4" transform="translate(564,419)"/>
<path d="M0 0 C0.598125 0.20625 1.19625 0.4125 1.8125 0.625 C1.8125 1.615 1.8125 2.605 1.8125 3.625 C-0.4975 2.965 -2.8075 2.305 -5.1875 1.625 C-2.1875 -0.375 -2.1875 -0.375 0 0 Z " fill="#EBEBED" transform="translate(650.1875,716.375)"/>
<path d="M0 0 C1.65 0.99 3.3 1.98 5 3 C4.67 4.32 4.34 5.64 4 7 C2 5.1875 2 5.1875 0 3 C0 2.01 0 1.02 0 0 Z " fill="#131313" transform="translate(694,713)"/>
<path d="M0 0 C-0.33 1.65 -0.66 3.3 -1 5 C-2.65 5 -4.3 5 -6 5 C-3.74193548 0 -3.74193548 0 0 0 Z " fill="#E4E7E8" transform="translate(594,704)"/>
<path d="M0 0 C1.98 1.65 3.96 3.3 6 5 C4.68 5.99 3.36 6.98 2 8 C0.74335022 5.09399739 0 3.20395416 0 0 Z " fill="#E6E7E7" transform="translate(701,695)"/>
<path d="M0 0 C0.99 0.33 1.98 0.66 3 1 C3.66 0.67 4.32 0.34 5 0 C5.33 1.32 5.66 2.64 6 4 C4.68 4.33 3.36 4.66 2 5 C1.34 3.35 0.68 1.7 0 0 Z " fill="#F1F1F1" transform="translate(744,537)"/>
<path d="M0 0 C0.66 0.33 1.32 0.66 2 1 C1.67 2.98 1.34 4.96 1 7 C0.01 6.67 -0.98 6.34 -2 6 C-1.34 4.02 -0.68 2.04 0 0 Z " fill="#E3E6EF" transform="translate(253,529)"/>
<path d="M0 0 C-0.33 1.65 -0.66 3.3 -1 5 C-2.65 4.67 -4.3 4.34 -6 4 C-5.67 3.01 -5.34 2.02 -5 1 C-2 0 -2 0 0 0 Z " fill="#1C1E1D" transform="translate(814,521)"/>
<path d="M0 0 C0 0.66 0 1.32 0 2 C-2.875 2.625 -2.875 2.625 -6 3 C-6.66 2.34 -7.32 1.68 -8 1 C-2.25 -1.125 -2.25 -1.125 0 0 Z " fill="#DDDEE0" transform="translate(834,498)"/>
<path d="M0 0 C0.33 0.99 0.66 1.98 1 3 C-0.65 3.66 -2.3 4.32 -4 5 C-4 4.34 -4 3.68 -4 3 C-4.66 2.67 -5.32 2.34 -6 2 C-2.25 0 -2.25 0 0 0 Z " fill="#F0F2F1" transform="translate(887,441)"/>
<path d="M0 0 C0 0.99 0 1.98 0 3 C0.66 3 1.32 3 2 3 C1.67 3.99 1.34 4.98 1 6 C-0.65 4.35 -2.3 2.7 -4 1 C-2 0 -2 0 0 0 Z " fill="#E3E5E4" transform="translate(470,441)"/>
<path d="M0 0 C1.98 0 3.96 0 6 0 C4.35 1.65 2.7 3.3 1 5 C0 1.125 0 1.125 0 0 Z " fill="#E5E5E5" transform="translate(370,382)"/>
<path d="M0 0 C-1.75 1.5625 -1.75 1.5625 -4 3 C-6.25 2.6875 -6.25 2.6875 -8 2 C-8 1.34 -8 0.68 -8 0 C-4.71023192 -1.09658936 -3.28696233 -0.79953138 0 0 Z " fill="#EFEFEF" transform="translate(417,198)"/>
</svg>
